<svg xmlns="http://www.w3.org/2000/svg" data-name="site is under constraction" viewBox="0 0 1000 1000"><path fill="#cecccd" d="M798.07728,549.3519l11.133-41.0951-39.8686-12.1573-5.8225-37.5772,45.6911-24.0594L795.957,393.1972l-42.57352-.6642-19.6377-35.6364,34.666-38.5881-25.4064-35.9733-43.117,27.3473-24.611-37.3481,16.0617-41.7117-43.9347-25.2481-36.1755,38.022s-26.09319-9.3093-28.88329-11.1693c-2.7764-1.8465,5.2695-56.5182,2.4931-58.3647-2.7901-1.86-43.5752-10.203-43.5752-10.203l-26.1746,50.988-32.6306-4.6365-23.9508-46.3515c-4.4074,0-39.38349,7.413-39.38349,7.413l-10.74211,44.505L376.223,233.1937l-39.38331-34.7739-33.1026,21.7944,24.1664,52.1202-24.1664,20.6216-51.2196-13.262-25.5657,38.6145,27.6708,28.9243-5.6205,29.7329-45.2327,7.979-8.34309,41.2434,35.232,19.5029,4.6365,42.4429L190.7897,508.2568l8.34309,37.0921,47.8879,4.003,13.3571,39.4777-26.9429,24.1934,19.476,42.2406,45.6506-20.5542,29.5173,31.0268-17.8721,41.2433,35.5689,26.889,31.7817-33.6955,42.5103,13.6804-4.7579,43.5346,45.7585,12.7638L475.436,734.785l32.37469-6.483L544.97,770.1518s29.20739-6.3077,30.19119-6.1595c.9706.1348-2.8708-50.1254-2.8708-50.1254l43.14369-14.9878,42.3484,34.0594,33.6821-26.889-24.948-40.3133L699.592,639.1976l43.41338,16.066,22.0503-33.2777-31.3099-34.2615,19.6377-37.8064ZM545.49569,373.8252l23.9238-95.3043c1.87351-7.5074,8.2643-7.7767,16.484-3.8817,17.442,8.265,84.16809,52.0612,114.17379,133.0972,2.8874,7.798.7144,16.0525-7.6019,15.7426l-94.7785-3.5448c-.3101-.0135-.6336-.0405-.9436-.0809a31.54726,31.54726,0,0,1-18.88289-9.5695c-9.664-10.1626-25.3659-26.579-30.5282-31.202A5.765,5.765,0,0,1,545.49569,373.8252Zm-29.5308,51.6755c14.1116,4.3939,26.9969,14.8125,29.00511,33.9785,1.24009,11.8204-2.17,23.9373-23.97781,36.6203-23.088,13.4378-44.0197,5.6204-59.924-7.9656s-3.437-48.4946,9.9336-54.4519C484.37209,427.7246,503.63249,421.6459,515.96489,425.5007Zm-189.6113-94.4148c42.8772-66.9842,138.5457-89.9142,174.3271-82.7158,10.4409,2.1004,13.4244,2.1026,12.656,9.0169l-12.6695,114.12a8.87805,8.87805,0,0,1-5.297,7.1704l-55.4088,23.9912a8.88433,8.88433,0,0,1-7.6422-.2696l-106.2756-55.3954C319.53349,343.6071,320.62739,340.0315,326.35359,331.0859Zm-5.3778,257.0698c-4.81179,3.4774-8.1949,1.9943-12.1709-5.4722-17.9944-33.792-38.1728-119.0017-20.0825-195.3127.9832-4.1476,1.5365-3.976,3.5852-3.976a3.6228,3.6228,0,0,1,1.22641.2156,3.491,3.491,0,0,1,.337.1348l112.44869,53.9937a3.6168,3.6168,0,0,1,2.0352,3.41c-.4986,10.8095-.1077,61.8245,0,75.141a6.56834,6.56834,0,0,1-2.45289,5.1891C394.149,531.0081,343.65959,571.8066,320.97579,588.1557Zm250.4924,88.4574-1.9409,4.7039a4.32463,4.32463,0,0,1-4.9194,2.5609l-209.3976-46.2707a4.31279,4.31279,0,0,1-2.3857-6.9682,4.15071,4.15071,0,0,1,.48541-.4853l86.20659-75.2892a4.364,4.364,0,0,1,2.8305-1.0648h3.6256a4.545,4.545,0,0,1,.8491.0944l59.1019,11.8608a4.3046,4.3046,0,0,1,2.8709,2.0217l62.3905,104.9818A4.3238,4.3238,0,0,1,571.46819,676.6131Zm146.37329-196.957c-20.5597,91.8596-96.7871,159.4068-96.7871,159.4068a9.43592,9.43592,0,0,1-16.8342-1.4018l-37.84679-95.0348a9.37507,9.37507,0,0,1,.8357-8.5857l35.19169-54.7484a9.45728,9.45728,0,0,1,7.0221-4.2861l99.4287-9.6503C716.58808,464.6144,719.90838,470.4213,717.84148,479.6561Z"/><g data-name="landing page"><path fill="#fff" stroke="#231f20" stroke-linecap="round" stroke-linejoin="round" stroke-width="3" d="M735.47928,536.6452s-2.6151,234.3102-3.1649,234.2663-289.46669-42.2226-289.46669-42.2226l-4.8728-235.383Z"/><line x1="735.229" x2="465.691" y1="560.244" y2="522.784" fill="#fff" stroke="#231f20" stroke-linecap="round" stroke-linejoin="round" stroke-width="3"/><path fill="#fff" stroke="#231f20" stroke-linecap="round" stroke-linejoin="round" stroke-width="3" d="M572.63549,596.1596c10.3788-7.4476,24.52109-7.2225,35.58429-6.7777,13.937.5603,25.9625,12.5869,32.1835,20.7023s5.4784,18.7477,5.3425,28.8059-14.764,27.5188-26.6793,28.5569-19.97748,2.9684-32.61719-3.26-23.6777-18.66-24.73529-27.9405c-1.01821-8.9347-.94181-24.527,5.30069-34.1715"/><polygon fill="#f45d4a" stroke="#231f20" stroke-linecap="round" stroke-linejoin="round" stroke-width="3" points="631.254 629.748 666.698 636.875 663.923 584.087 631.272 582.031 631.254 629.748"/><path fill="#fff" stroke="#231f20" stroke-linecap="round" stroke-linejoin="round" stroke-width="3" d="M643.63808,616.6053q3.13095.32445,6.2618.649l-.4824-26.8775-7.3556-.7352Z"/><path fill="#fff" stroke="#231f20" stroke-linecap="round" stroke-linejoin="round" stroke-width="3" d="M644.38408,627.0241c.8916,1.23,5.3983,1.8586,6.3295.6935s.0029-4.3919-1.5298-5.7024-4.4822-1.2695-5.1449-.0048A5.71121,5.71121,0,0,0,644.38408,627.0241Z"/><polygon fill="#fff" stroke="#231f20" stroke-linecap="round" stroke-linejoin="round" stroke-width="3" points="584.167 610.084 581.542 614.146 595.31 627.896 578.734 640.466 582.023 644.722 598.983 632.33 619.317 648.9 622.524 645.921 603.836 629.701 621.559 618.146 617.94 613.46 600.889 623.888 584.167 610.084"/><line x1="674.285" x2="683.313" y1="544.622" y2="545.525" fill="#fff" stroke="#231f20" stroke-linecap="round" stroke-linejoin="round" stroke-width="3"/><polygon fill="#fff" stroke="#231f20" stroke-linecap="round" stroke-linejoin="round" stroke-width="3" points="695.293 538.629 695.184 546.711 702.856 548.917 702.984 539.397 695.306 537.73 695.293 538.629"/><path fill="#fff" stroke="#231f20" stroke-linecap="round" stroke-linejoin="round" stroke-width="3" d="M713.18058,540.5962c.5016.0502,7.0631,10.0583,7.0631,10.0583"/><line x1="721.54" x2="711.717" y1="541.432" y2="549.802" fill="#fff" stroke="#231f20" stroke-linecap="round" stroke-linejoin="round" stroke-width="3"/><line x1="683.408" x2="732.563" y1="754.789" y2="761.917" fill="none" stroke="#231f20" stroke-linecap="round" stroke-linejoin="round" stroke-width="3"/><line x1="442.665" x2="673.08" y1="719.88" y2="753.291" fill="none" stroke="#231f20" stroke-linecap="round" stroke-linejoin="round" stroke-width="3"/></g><path fill="#231f20" stroke="#231f20" stroke-linecap="round" stroke-linejoin="round" stroke-width="3" d="M285.54219,774.1584l15.3545-.884c-3.7324-51.7436,1.4566-104.0685,7.1268-155.6358-3.2197-.1198-12.9026.9249-12.9026.9249S285.42969,774.1584,285.54219,774.1584Z"/><path fill="#231f20" stroke="#231f20" stroke-linecap="round" stroke-linejoin="round" stroke-width="3" d="M415.44849,731.5109q5.86905.0393,11.7381.0788c.6081-16.8797-2.8557-72.7662-1.1209-72.7978s-10.2112-.4705-10.2112-.4705S415.39349,718.9473,415.44849,731.5109Z"/><path fill="#231f20" stroke="#231f20" stroke-linecap="round" stroke-linejoin="round" stroke-width="3" d="M444.31979,667.1765s-2.931,92.0521-.36479,130.3881q-5.59022-.8874-11.18031-1.7749c-2.4543-.3895-.1984-133.8678-.1984-133.8678Z"/><path fill="#231f20" stroke="#231f20" stroke-linecap="round" stroke-linejoin="round" stroke-width="3" d="M587.06,457.4764a12.90367,12.90367,0,0,1-4.71891.2836c-1.5882-.1021-3.165-.1928-4.75309-.2836a345.1672,345.1672,0,0,0-19.42041,62.8782L548.809,566.9773c-1.22521,6.0689-2.40491,12.5688.02269,18.2634,1.2025,2.8132,3.27831,5.513,2.938,8.5645-.2836,2.507-2.1326,4.4014-4.2651,5.9101,1.2135,53.7919-1.3954,110.9983,4.0835,164.4953q-6.36375.5274-12.7162,1.0549c-1.747-54.1435-5.1615-110.6806-4.25389-157.8818q-9.74986,5.56395-19.69271,10.7765L446.965,587.8952l34.99859-.0004,50.4409-7.0294c6.3638-33.9858,15.066-89.5507,25.264-124.6028q-33.99705-2.07585-68.0057-4.1404-41.79015-2.5524-83.6031-5.0934c-4.7304-.2836-26.533.5899-22.9938-9.3359,2.2235-6.2504,16.6754-6.6927,21.7573-6.6927,27.4177-.0114,55.10781,2.7679,82.5142,3.8795q41.75641,1.7016,83.5464,2.7905c4.1066.1135,8.2923.2269,12.1718,1.5995,3.8796,1.3613,7.4643,4.1859,8.6668,8.1221C592.91339,451.3281,590.98489,456.2626,587.06,457.4764Z"/><g data-name="left foot"><path fill="#231f20" stroke="#231f20" stroke-linecap="round" stroke-linejoin="round" stroke-width="3" d="M349.51129,783.4835c-11.85429-1.3271-25.8411,1.3045-32.31829,15.2347-13.09071-2.0533-26.95271-4.2199-42.75451-8.0654-4.7418-1.1571-15.4161-2.3255-12.9546-12.0244,1.9624-7.7024,37.4343-28.4841,40.6787-31.3086,3.0968-2.6885,49.0275,2.0985,51.6025,4.0043C356.34019,753.2185,352.65349,770.8693,349.51129,783.4835Z"/><path fill="none" stroke="#f45d4a" stroke-linecap="round" stroke-linejoin="round" stroke-width="3" d="M278.54309,761.1983c4.6753.92,10.2676,4.2316,11.9584,8.4632"/><path fill="none" stroke="#f45d4a" stroke-linecap="round" stroke-linejoin="round" stroke-width="3" d="M284.80429,755.441c5.6972.5647,11.9781,4.054,14.2705,8.1079"/><path fill="#fff" stroke="#231f20" stroke-linecap="round" stroke-linejoin="round" stroke-width="3" d="M349.51129,783.4835c-1.5429,6.1483-2.9609,11.1055-3.4599,12.4554-1.8377,4.9459-9.51739,5.9441-15.79039,4.8778-4.23131-.7146-8.50781-1.3839-12.87521-2.0645-.0682-.0113-.12479-.0227-.19279-.034C323.67019,784.788,337.657,782.1564,349.51129,783.4835Z"/></g><g data-name="upper foot"><path fill="#fff" stroke="#231f20" stroke-linecap="round" stroke-linejoin="round" stroke-width="3" d="M529.037,639.7133c-.19291,5.2408-2.60921,10.1072-5.05941,14.7354a50.214,50.214,0,0,1-6.48859-8.4283c-1.90581-3.1196-1.96241-6.534-1.73561-10.1867.28361-4.4127,3.698-9.0523,7.54361-11.253C526.87029,628.7893,529.22969,634.2002,529.037,639.7133Z"/><path fill="#231f20" stroke="#231f20" stroke-linecap="round" stroke-linejoin="round" stroke-width="3" d="M523.97759,654.4487a454.01625,454.01625,0,0,1-24.7747,41.4613c-1.7924,2.6658-3.8114,5.4677-6.8176,6.6021-5.2068,1.9624-11.0374-2.1666-13.2607-7.26-2.2347-5.0934-1.9624-10.8786-2.3255-16.4257a70.73464,70.73464,0,0,0-10.1639-32.2275c-1.4407-2.3595-3.0516-5.2408-1.7811-7.6797a7.69725,7.69725,0,0,1,3.562-2.87q15.99465-8.23545,32.0007-16.4824c2.541-1.3045,5.0706-2.6317,7.6116-3.9136,3.1081-1.5768,2.4388-1.3385,4.2993-.3856,3.5845,1.8489,8.2468,6.1028,10.96931,9.3131-3.84561,2.2007-7.26,6.8403-7.54361,11.253-.2268,3.6527-.1702,7.0671,1.73561,10.1867A50.214,50.214,0,0,0,523.97759,654.4487Z"/><path fill="none" stroke="#f45d4a" stroke-linecap="round" stroke-linejoin="round" stroke-width="3" d="M473.56209,678.2927c0-3.1337,4.4331-9.0017,10.1331-8.7898"/><path fill="none" stroke="#f45d4a" stroke-linecap="round" stroke-linejoin="round" stroke-width="3" d="M475.16709,685.401c-.7643-2.5223,3.4615-10.0127,10.1657-8.4841"/></g><g data-name="left hand"><path fill="#f45d4a" stroke="#f45d4a" stroke-linecap="round" stroke-linejoin="round" stroke-width="3" d="M430.39189,425.9068a126.06158,126.06158,0,0,0-14.0322,39.7938,4.41344,4.41344,0,0,1-5.1954,3.5733l-.1134-.0227c3.9434,25.6027-4.0908,46.0672-10.5226,66.8716-1.7924,5.7626-12.3918,7.1348-15.4092,12.3642-5.5583,9.6309-14.656,16.3464-24.9335,20.9066q-5.37675-5.428-10.7425-10.8901c-1.3385-1.3499-2.7678-2.9379-2.6998-4.8437.1361-3.3124,4.2653-4.5488,7.4188-5.5811,10.9013-3.596,17.7871-14.6107,20.7476-25.6935,2.9608-11.0942,9.4287-23.0179,11.56131-34.2936C391.63239,460.6398,404.38069,436.0254,430.39189,425.9068Z"/><line x1="411.051" x2="411.051" y1="463.121" y2="469.251" fill="none" stroke="#231f20" stroke-linecap="round" stroke-linejoin="round" stroke-width="3"/></g><g data-name="right hand1"><path fill="#f45d4a" stroke="#f45d4a" stroke-linecap="round" stroke-linejoin="round" stroke-width="3" d="M551.50879,523.701c-2.2574,20.4074-11.0941,40.8147-27.4065,53.2588-6.3638,4.8664-14.191,8.4284-22.0748,8.4737a24.44519,24.44519,0,0,1-5.4223-.5558c-7.23719-1.5881-13.431-6.5113-17.7528-12.5234-4.3221-6.0236-6.9425-13.0907-8.9731-20.2032-2.18929-7.6457-5.0365-16.8114-12.739-18.7512-2.5069-.6353-5.3769-.4084-7.362-2.0532-2.8587-2.3482-1.9852-7.1806.5785-9.8464,2.5637-2.6544,6.2163-3.8795,9.4835-5.6151a31.95028,31.95028,0,0,0,15.3026-18.5243c.8054-2.6091,1.7243-5.7967,4.3786-6.4545,2.32551-.5672,4.4922,1.2477,6.2051,2.9266a88.19536,88.19536,0,0,1,10.8445,12.0924c3.6301-5.876,2.0646-13.533-2.1325-19.012-2.1327-2.7906-4.14059-1.6903-5.1841-5.048-3.1536-10.0732,12.7844-45.9761,22.9483-57.3539a38.42258,38.42258,0,0,1,13.4424,7.9179c11.4456,10.4023,18.5129,22.4833,21.4963,35.0294C551.90579,487.4238,553.75479,503.305,551.50879,523.701Z"/><path fill="none" stroke="#231f20" stroke-linecap="round" stroke-linejoin="round" stroke-width="3" d="M498.967,477.4271s-7.17481.6883-8.06771,6.8469"/></g><g data-name="back leg"><path fill="#fff" stroke="#231f20" stroke-linecap="round" stroke-linejoin="round" stroke-width="3" d="M425.37789,663.5804c-7.9406,6.466-18.2406,8.2923-28.4273,7.294-3.7433-.363-12.6937,3.4939-15.0984,4.4922a6.86673,6.86673,0,0,0-4.1518,6.1029c-.0455,2.3368,1.123,4.7189.3402,6.9083-.9528,2.6998-4.1971,3.6186-6.6473,5.1046-4.9005,2.9608-3.0898,8.8595-4.3604,14.4407-2.6205,11.3663-6.8927,27.2659-4.794,38.7458.6012,3.3237,1.4066,6.6814.4197,10.0391-.5558,1.8604-4.2048,5.0829-7.4711,4.4128-5.0094-1.0278-9.3586-1.8945-13.6352-4.5942-6.7496-4.2426-17.7735-6.0105-25.7482-5.8517s-13.3649,2.1082-21.215.7243a24.15114,24.15114,0,0,1-11.2074-4.685c-3.1763-2.5864-5.3996-6.534-5.2069-10.629.2156-4.9686,22.0681-81.8676,43.2241-103.9765,14.1683,4.1291,40.1367,11.2459,54.4524,14.8419C392.77609,651.2045,409.93929,655.5378,425.37789,663.5804Z"/><path fill="none" stroke="#f45d4a" stroke-linecap="round" stroke-linejoin="round" stroke-width="3" d="M358.98879,745.8978c-9.3084-4.6871-21.0256-15.4358-19.19879-26.1768,2.84209-16.7108,14.19679-24.3861,25.77209-23.3009"/></g><path fill="#f45d4a" stroke="#f45d4a" stroke-linecap="round" stroke-linejoin="round" stroke-width="3" d="M499.736,421.9592a161.17914,161.17914,0,0,0-23.58361,55.9245,2.71638,2.71638,0,0,1-3.0741,2.1327,284.67908,284.67908,0,0,1-44.7168-11.0035,3.70054,3.70054,0,0,1-2.4164-4.2992c3.4712-15.8585,10.0166-29.0399,15.8698-42.2894C460.49819,418.1477,480.429,419.9401,499.736,421.9592Z"/><path fill="none" stroke="#231f20" stroke-linecap="round" stroke-linejoin="round" stroke-width="3" d="M484.54409,424.5115c.1956,4.0874-2.7745,13.292-7.1793,15.0743"/><path fill="none" stroke="#231f20" stroke-linecap="round" stroke-linejoin="round" stroke-width="3" d="M448.99559,421.9592c-.8513,2.5082-5.2693,7.9044-4.3352,12.5037,1.0405,5.1229,5.5491,5.1229,7.97,5.1229"/><path fill="#fff" stroke="#231f20" stroke-linecap="round" stroke-linejoin="round" stroke-width="3" d="M501.67649,440.9512c-7.7724,14.9609-14.5841,34.008-12.422,40.9142,1.04351,3.3577,3.0514,2.2574,5.1841,5.048,4.1971,5.479,5.7626,13.136,2.1325,19.012a88.19536,88.19536,0,0,0-10.8445-12.0924c-1.7129-1.6789-3.87959-3.4938-6.2051-2.9266-2.6543.6578-3.5732,3.8454-4.3786,6.4545a31.95028,31.95028,0,0,1-15.3026,18.5243c-3.2672,1.7356-6.9198,2.9607-9.4835,5.6151-2.5637,2.6658-3.4372,7.4982-.5785,9.8464,1.9851,1.6448,4.8551,1.4179,7.362,2.0532,7.7025,1.9398,10.54971,11.1055,12.739,18.7512,2.0306,7.1125,4.651,14.1796,8.9731,20.2032,4.3218,6.0121,10.51561,10.9353,17.7528,12.5234a24.44519,24.44519,0,0,0,5.4223.5558c-.1248,8.8822-5.26349,17.9118-11.1283,24.1508.2609-.0567.5219-.1361.78281-.2155,5.91019-1.8377,12.33059-7.7364,17.11769-3.6641a6.57374,6.57374,0,0,1,1.917,6.6135c-1.0435,4.2085-4.48069,6.7948-7.8384,9.1203-12.274,8.5191-26.3969,17.129-30.50329,31.4902-2.21211,7.7704-1.39531,24.9108-9.85781,29.4483a17.68616,17.68616,0,0,1-10.5155,1.7582c-8.383-1.0096-131.2469-44.2405-137.31569-46.271-7.36211-2.4615-15.20071-5.5698-19.239-12.1945-6.52261-10.7084-3.52781-38.1375,5.28629-47.065,13.7031-13.8735,45.1192-19.4179,53.0372-21.3236,11.0941-2.6658,22.79551-1.6929,31.3486-8.7941,14.8944-12.3646,23.4361-55.9698,25.9318-79.2358l.1134.0227a4.41344,4.41344,0,0,0,5.1954-3.5733,126.06158,126.06158,0,0,1,14.0322-39.7938c.2949-.1248.5899-.2382.8962-.3517a80.53734,80.53734,0,0,1,10.5268-3.1308c-5.8532,13.2495-12.3986,26.4309-15.8698,42.2894a3.70054,3.70054,0,0,0,2.4164,4.2992,284.67908,284.67908,0,0,0,44.7168,11.0035,2.71638,2.71638,0,0,0,3.0741-2.1327A161.17914,161.17914,0,0,1,499.736,421.9592q.81673.085,1.63349.1702a48.25735,48.25735,0,0,1,10.8333,2.3708v.0113a61.25179,61.25179,0,0,0-6.1623,8.6547"/><path fill="none" stroke="#231f20" stroke-linecap="round" stroke-linejoin="round" stroke-width="3" d="M415.444,570.46c-3.991-2.2543-7.17021-.6503-10.884,3.8583-3.06611,3.7223-7.00491,6.4171-11.705,6.5471-3.06651.0849-5.72241-1.735-7.78781-1.0823-2.9315.9265-5.8808,3.5315-5.0641,6.7168.8962,3.5279,4.719,5.6491,8.3603,5.8533s7.1693-1.0663,10.6518-2.1553c3.4712-1.089,7.1919-2.0305,10.7311-1.157,3.3805.8281,6.3412,3.267,9.82371,3.3917,3.16489.1248,6.09159-1.6902,9.23379-2.0872,3.4825-.4424,6.9083.8848,10.164,2.178q17.83232,7.11255,35.676,14.2137c5.1954,2.0645,10.8786,4.1631,16.2555,2.8472"/><path fill="none" stroke="#f45d4a" stroke-linecap="round" stroke-linejoin="round" stroke-width="3" d="M324.61639,570.6135c5.2561,8.6469,6.03961,19.9325.4798,26.1661-6.8929,7.7283-20.8623,8.1704-29.9291,7.0482"/><path fill="none" stroke="#f45d4a" stroke-linecap="round" stroke-linejoin="round" stroke-width="3" d="M395.50469,594.331c-.4164,4.5633.6176,11.6085,3.6232,15.0674a31.64672,31.64672,0,0,0,11.8048,8.4885c15.8487,5.9235,35.2988-1.7118,45.68031-15.0719"/><path fill="none" stroke="#f45d4a" stroke-linecap="round" stroke-linejoin="round" stroke-width="3" d="M409.10979,499.6538c5.0961,3.1923,8.4726,12.8447,7.724,18.3368-1.7393,12.7592-10.34179,16.2079-18.3864,16.117"/><path fill="none" stroke="#231f20" stroke-linecap="round" stroke-linejoin="round" stroke-width="3" d="M458.23959,629.469a20.17971,20.17971,0,0,1,10.0796-7.1334,69.36536,69.36536,0,0,1,12.2557-2.636c4.261-.6809,9.9878-6.1635,11.10711-10.3308"/><g data-name="arm with coffee"><path fill="#231f20" stroke="#231f20" stroke-linecap="round" stroke-linejoin="round" stroke-width="3" d="M463.53829,458.9171l-.2496,1.0322v.0114a6.51929,6.51929,0,0,1-2.212,2.4162,23.20265,23.20265,0,0,1-15.1665,4.1972c-10.3343-.76-13.46519-2.3142-15.507-7.4302v-.0227l-.0113-.0113c.2724-1.9738,2.473-4.1405,5.7625-5.1841,6.0009-1.8944,14.3953-1.0777,22.1771.5785a9.58125,9.58125,0,0,1,3.4712,1.2932A3.72047,3.72047,0,0,1,463.53829,458.9171Z"/><path fill="#fff" stroke="#231f20" stroke-linecap="round" stroke-linejoin="round" stroke-width="3" d="M463.28869,459.9607l-11.718,49.2544a3.31412,3.31412,0,0,1-3.3011,2.4616c-4.4581-.1248-11.7521-.3063-15.2574-.6239a2.073,2.073,0,0,1-1.8943-2.144c.2949-7.2713-.4991-48.1994-.7147-49.7649,2.04181,5.116,5.1727,6.6702,15.507,7.4302a23.20265,23.20265,0,0,0,15.1665-4.1972A6.51929,6.51929,0,0,0,463.28869,459.9607Z"/><path fill="#fff" stroke="#231f20" stroke-linecap="round" stroke-linejoin="round" stroke-width="3" d="M475.65339,495.2396c-5.1501-5.0139-6.7041-12.444-6.94239-19.636-.15881-4.8097-3.64141-9.1884-6.40921-10.0505,0,0-1.5541,8.0654-2.4049,9.6649-2.7112,5.15-9.7896,6.6701-15.3027,4.787s-9.7328-6.3071-13.4536-10.7878a16.262,16.262,0,0,0,6.87441,18.8192c-3.34651-1.9625-4.58291-2.6204-8.73481-11.0602a15.47656,15.47656,0,0,0,1.57681,14.6675,26.426,26.426,0,0,0,2.40489,2.7905,14.1434,14.1434,0,0,1-2.40489-2.7905c-.71461-.9302-1.42931-1.8831-2.17791-2.8133a10.96085,10.96085,0,0,0,.39691,10.13c-.63521.8848-2.01641,3.4373-.07941,5.3996.8021.8125,1.3386,1.8377,2.15541,2.6204q5.20679,4.91745,10.41339,9.8463c4.7984,4.5489,9.6195,9.1204,15.1213,12.7844a.77134.77134,0,0,0,.4309.1815c.193,0,.3631-2.4049.4992-2.541,2.05321-1.8263,1.2024-1.3045,3.21021-3.0968.01139,0,.03409-.0227.04549-.0341l18.2067-15.348Zm-38.9657,1.4747a9.90041,9.90041,0,0,1-3.3919-2.2461A13.36131,13.36131,0,0,0,436.68769,496.7143Z"/><path fill="none" stroke="#231f20" stroke-linecap="round" stroke-linejoin="round" stroke-width="3" d="M412.83279,338.2902s2.9416-2.3426,2.32021-5.2447c-.71991-3.3621-5.34311-4.4231-6.71311-7.5767-1.2241-2.8178.6105-5.9458,2.3008-8.5113s3.342-5.8751,1.81331-8.54"/><path fill="none" stroke="#231f20" stroke-linecap="round" stroke-linejoin="round" stroke-width="3" d="M417.18379,417.7962c-1.0846.905-2.8872-.2002-3.1016-1.5964a5.04928,5.04928,0,0,1,1.5252-3.8119,10.47677,10.47677,0,0,0,2.3829-3.4632c.8041-2.6581-1.1909-5.3054-3.21429-7.2075s-4.38531-3.9381-4.57211-6.7089c-.1972-2.9255,2.1035-5.324,3.9173-7.6279s3.2432-5.7153,1.4113-8.0048c-2.139-2.6733-6.409-1.2574-9.3722.4575-2.8828,1.6684-5.78029,3.4513-9.0316,4.1744s-7.0036.1809-9.2748-2.2553c-3.1628-3.3924-2.1141-9.2924,1.2743-12.4594s8.348-4.0623,12.9821-3.8709c3.0873.1275,6.2438.6638,9.2224-.1578s5.7446-3.5936,5.2257-6.6396c-.9635-5.6558-11.1861-6.2321-11.3006-11.9683-.03779-1.8953,1.1251-3.4155,2.6186-4.6883"/><path fill="#f45d4a" stroke="#f45d4a" stroke-linecap="round" stroke-linejoin="round" stroke-width="3" d="M502.02749,585.4335a24.44519,24.44519,0,0,1-5.4223-.5558c-7.23719-1.5881-13.431-6.5113-17.7528-12.5234-4.3221-6.0236-6.9425-13.0907-8.9731-20.2032-2.18929-7.6457-5.0365-16.8114-12.739-18.7512-2.5069-.6353-5.3769-.4084-7.362-2.0532-2.8587-2.3482-1.9852-7.1806.5785-9.8464,2.5637-2.6544,6.2163-3.8795,9.4835-5.6151a31.95028,31.95028,0,0,0,15.3026-18.5243c.8054-2.6091,1.7243-5.7967,4.3786-6.4545,2.32551-.5672,4.4922,1.2477,6.2051,2.9266a88.19536,88.19536,0,0,1,10.8445,12.0924C500.20119,500.0494,509.91129,585.3882,502.02749,585.4335Z"/><path fill="none" stroke="#231f20" stroke-linecap="round" stroke-linejoin="round" stroke-width="3" d="M497.88789,503.0523a16.9164,16.9164,0,0,1,2.01711,6.0923,8.648,8.648,0,0,0,6.79689,6.8679q.4818.0954.9634.1903a9.692,9.692,0,0,1,7.5663,8.3717,10.83482,10.83482,0,0,0,.9755,3.2443,6.21774,6.21774,0,0,1,9.4607,6.9197"/><path fill="none" stroke="#231f20" stroke-linecap="round" stroke-linejoin="round" stroke-width="3" d="M460.41119,534.8051s11.7776,1.537,17.37-12.8991"/><path fill="#fff" stroke="#231f20" stroke-linecap="round" stroke-linejoin="round" stroke-width="3" d="M429.076,498.9604s1.74229,3.7061,4.21979,4.0919"/></g><g><path fill="#fff" d="M457.12689,365.6344s-3.5324,14.1873-4.0564,22.2567c-.2804,4.3171.417,12.5189,2.5792,16.266,2.2165,3.8411,3.5336,4.5574,4.4006,5.2076,0,0-4.20929,10.8433-6.30229,16.0007-1.128,2.7793-2.10631,6.4281.77039,8.193a5.29055,5.29055,0,0,0,3.4911.6453,77.97705,77.97705,0,0,0,15.411-3.7687,5.07743,5.07743,0,0,0,3.3244-3.9472l2.1302-10.6542c8.9491-3.0691,17.8942-9.2434,18.735-22.1146l4.0673-12.9311s-4.4375-14.8423-12.9633-22.5711h0s-2.2914,7.1985-8.1078,6.9915-4.13929-3.7124-11.4156-4.1706S467.29569,365.357,457.12689,365.6344Z"/><path fill="none" stroke="#231f20" stroke-linecap="round" stroke-linejoin="round" stroke-width="3" d="M484.70559,365.1839c-.6919,1.8036-2.9493,2.541-4.8551,2.2234a15.893,15.893,0,0,1-5.2181-2.4389,9.14439,9.14439,0,0,0-5.4449-1.6676c-2.5523.2836-4.46949,2.4049-6.829,3.4258a12.24707,12.24707,0,0,1-5.22949,1.2025c-1.71731,3.9461-3.51051,14.5569-3.92831,19.3696-.5691,6.5556,1.1635,15.5742,3.6416,19.1181,2.0158,2.8829,5.419,6.3294,12.7891,6.2498-4.8557-.0071-7.7761-1.4884-8.8991-2.3278,0,0-4.8964,9.8735-6.9837,15.0235-1.1231,2.7792-2.3139,6.8181.77141,8.2015,3.55779,1.5953,13.90739.9188,18.89869-.8621a5.0454,5.0454,0,0,0,3.3236-3.9476l2.1328-12.9205a30.48613,30.48613,0,0,0,12.9658-8.3149c2.87-3.2217,4.4357-7.3741,5.7739-12.1605C504.17989,371.8752,484.70559,365.1839,484.70559,365.1839Z"/><path fill="#f45d4a" d="M517.74989,379.0459c-.98689,6.6475-3.6187,13.5558-8.678,18.1727-2.50689,2.2801-3.8568,2.7678-5.2407,5.8306,1.7469-11.6613-3.2784-27.0321-10.4249-36.7309-4.22-5.7172-9.0638-11.1169-15.1325-14.8036-4.2993-2.6204-11.61679-4.3202-16.6195-4.4563,12.5868-1.8007,20.508-7.3919,29.4581-6.1895a30.28424,30.28424,0,0,1,21.8705,14.3928C517.53169,363.0662,519.07709,370.107,517.74989,379.0459Z"/><path fill="#231f20" stroke="#231f20" stroke-linecap="round" stroke-linejoin="round" stroke-width="3" d="M503.83119,403.0492c-.43119,3.8002-2.84719,7.26-5.2863,8.0768-2.6543.8961-6.3297-.295-6.704-3.6073,9.019-8.9052-.6223-11.5997,1.2868-16.1883,8.5497-20.5488-8.4221-26.1465-8.4221-26.1465-.6919,1.8036-2.9493,2.541-4.8551,2.2234a15.893,15.893,0,0,1-5.2181-2.4389,9.14439,9.14439,0,0,0-5.4449-1.6676c-2.5523.2836-4.46949,2.4049-6.829,3.4258a12.24707,12.24707,0,0,1-5.22949,1.2025c-1.067,3.2427-2.24311,6.1479-2.45871,9.4035-7.0671-.7033-11.53929-8.0536-10.6205-15.0981.9074-7.0444,6.9423-12.7843,13.828-14.5199a22.22275,22.22275,0,0,1,6.1028-.6467,29.42217,29.42217,0,0,1,14.2932,4.4468c6.0687,3.6867,10.9125,9.0864,15.1325,14.8036C500.55279,376.0171,505.57809,391.3879,503.83119,403.0492Z"/><path fill="none" stroke="#231f20" stroke-linecap="round" stroke-linejoin="round" stroke-width="3" d="M489.93129,347.0584c6.5779.7468,12.5936,5.3646,16.6355,12.1917,1.0105,1.7067,5.636,11.0113,4.3785,17.7742"/></g><g data-name="arm on the knee"><path fill="#fff" stroke="#231f20" stroke-linecap="round" stroke-linejoin="round" stroke-width="3" d="M358.82079,585.645c-2.6089,1.3586-6.7201-4.56-8.6651-10.8733-.9428-3.0599-4.1738-3.8695-7.2574-3.0073-15.2592,4.2665-14.5668,10.1418-19.991,14.9463-3.79,3.357-8.3096-5.2987,1.842-14.2318,4.3288-3.8092,10.1923-5.636,11.73-6.1783-18.12,7.4619-16.0907,11.116-21.5449,14.5118-1.408.8766-2.6016,1.2997-3.5039.9926-4.0054-1.3636,3.4123-17.033,17.8583-20.2918-7.0113.495-17.8996,8.8261-21.5075,13.0293-1.2877,1.5002-3.7381,2.7778-4.26129.4575-1.21391-5.3836,9.84889-15.1365,17.64389-16.3738-8.5374,1.3198-17.4876,11.4967-17.879,10.9902-7.9187-10.2478,34.50011-26.9101,44.9447-23.4384,7.6199,3.6221,13.3115,7.5815,17.5709,13.2462-.2748,3.4776-3.9419,5.5114-5.9739,8.8401C355.54619,575.2763,363.86219,583.0195,358.82079,585.645Z"/><path fill="#f45d4a" stroke="#f45d4a" stroke-linecap="round" stroke-linejoin="round" stroke-width="3" d="M394.28559,525.4175c-1.43059,24.745-21.5111,36.6004-25.224,37.2951-2.9903.5596-5.95859-.8758-8.6329-2.326q-7.0248-3.8091-13.746-8.1455c-2.3888-1.5413-5.9636-3.7794-7.5405-6.1448-1.0405-1.5607-.0158-3.7716,1.6907-5.4623,6.314-6.2557,9.62411.2601,20.6788-9.7542,4.7599-4.3119,13.423-6.5351,14.7044-12.8286Z"/><path fill="none" stroke="#231f20" stroke-linecap="round" stroke-linejoin="round" stroke-width="3" d="M353.61209,536.1228c14.5662,5.3914,15.0526,11.5342,15.0526,11.5342"/></g><polyline fill="#fff" stroke="#231f20" stroke-linecap="round" stroke-linejoin="round" stroke-width="3" points="546.212 795.483 536.194 798.329 514.813 792.627 492.479 796.025 476.515 814.4 492.479 808.697 514.813 811.289 509.29 818.029 488.15 822.176 509.29 829.952 536.194 823.731 541.276 810.253 596.393 796.025 620.488 805.006 636.853 802.531 642.091 783.814 628.797 787.045 610.813 784.333 622.981 776.523 636.853 776.523 622.981 767.485 596.393 772.004 596.393 781.222 554.801 793.042"/><polygon fill="#fff" stroke="#231f20" stroke-linecap="round" stroke-linejoin="round" stroke-width="3" points="457.781 743.382 476.48 740.898 480.411 762.433 457.781 743.382"/><g><path fill="#fff" stroke="#231f20" stroke-linecap="round" stroke-linejoin="round" stroke-width="3" d="M670.13708,784.1682c.49192.0941,15.5784,12.7451,22.7265,18.743-6.9255,1.1113-38.66758,12.546-39.0212,12.4702-.3158-.0677-19.28638-16.1699-22.81338-20.7955C633.23138,793.6555,669.58728,784.063,670.13708,784.1682Z"/><polygon fill="#fff" stroke="#231f20" stroke-linecap="round" stroke-linejoin="round" stroke-width="3" points="692.864 802.911 692.864 818.248 653.296 830.832 653.842 815.381 692.864 802.911"/><polygon fill="#fff" stroke="#231f20" stroke-linecap="round" stroke-linejoin="round" stroke-width="3" points="631.029 794.586 622.157 804.372 653.296 830.832 653.842 815.381 631.029 794.586"/><path fill="#f45d4a" stroke="#231f20" stroke-linecap="round" stroke-linejoin="round" stroke-width="3" d="M668.94308,792.8215a3.99127,3.99127,0,0,1-1.4073,2.2094c-1.3932,1.0837-3.3351,1.0837-5.1082,1.0274-1.9141-.0563-3.8419-.1126-5.77-.1689-3.5182-.0985-7.6977-2.913-7.8525-5.8683-.0843-1.4355.77392-2.899,3.11-4.1092a12.79638,12.79638,0,0,1,5.967-.9992,20.237,20.237,0,0,1,6.1073.7177,7.57291,7.57291,0,0,1,4.6582,3.7856A5.15727,5.15727,0,0,1,668.94308,792.8215Z"/><path fill="#231f20" stroke="#231f20" stroke-linecap="round" stroke-linejoin="round" stroke-width="3" d="M669.80158,800.5193a1.03624,1.03624,0,0,1-.8304,1.2243,24.2954,24.2954,0,0,1-20.0113-.9147,2.0784,2.0784,0,0,1-.9991-.8303,2.16837,2.16837,0,0,1-.0704-1.2384c.52062-3.6729.4081-5.0662.9147-8.7391.1548,2.9553,4.3343,5.7698,7.8525,5.8683,1.9281.0563,3.8559.1126,5.77.1689,1.7731.0563,3.715.0563,5.1082-1.0274a3.99127,3.99127,0,0,0,1.4073-2.2094C669.28078,795.5375,669.80158,798.7321,669.80158,800.5193Z"/><path fill="none" stroke="#231f20" stroke-linecap="round" stroke-linejoin="round" stroke-width="3" d="M633.03748,813.9137c-5.0649-1.5835-11.7527-3.514-15.8111,1.0274-5.4522,5.8765-13.2367,12.1017-18.5953,6.1597a9.84391,9.84391,0,0,1-2.3703-7.1745c.0868-1.5307-.1312-2.9594-1.89278-3.0984"/><path fill="none" stroke="#231f20" stroke-linecap="round" stroke-linejoin="round" stroke-width="3" d="M640.16828,819.9073c2.4952,9.411-15.8099,2.2869-11.30128,14.9331"/></g></svg>