<svg id="sellervibe-logo-with-text" data-name="sellervibe-logo-with-text" xmlns="http://www.w3.org/2000/svg" viewBox="0 0 138.24 148.32">
  <path fill="#fc4577" class="cls-1" d="m23.25,118.91l72.57.14c20.59.04,30.92-24.85,16.37-39.4L39.47,6.93C24.91-7.63.03,2.71.07,23.3l.14,72.57c.03,12.71,10.32,23.01,23.04,23.04Z"/>
  <path fill="#00bbfb" class="cls-2" d="m115.08,29.09l-72.89.02c-20.56,0-30.85,24.87-16.32,39.4l72.87,72.87c14.54,14.54,39.4,4.25,39.4-16.32l.02-72.89c0-12.75-10.34-23.09-23.09-23.09Z"/>
  <path fill="#3f5bbc" class="cls-3" d="m112.12,79.57L61.65,29.11h-19.56c-20.56.01-30.85,24.87-16.32,39.41l50.46,50.46h19.56c20.56-.01,30.85-24.87,16.32-39.41Z"/>
</svg>