<svg xmlns="http://www.w3.org/2000/svg" viewBox="0 0 100 100"><path fill="#333" d="M64.284 20.244V5.255H19.502a4.874 4.874 0 0 0-4.873 4.874v80.252a4.874 4.874 0 0 0 4.873 4.874h59.771a4.876 4.876 0 0 0 4.875-4.874V25.118h-14.99a4.874 4.874 0 0 1-4.874-4.874zM30.121 61.731h-.019c-.919 0-1.585-.702-1.585-1.657 0-.99.666-1.674 1.621-1.674.936 0 1.584.666 1.602 1.674 0 .955-.647 1.657-1.619 1.657zm13.592-.198h-2.881l-2.593-4.682c-.72-1.314-1.53-2.863-2.106-4.285h-.072c.09 1.621.126 3.331.126 5.312v3.655h-2.521V49.397h3.205l2.521 4.447c.72 1.278 1.423 2.791 1.98 4.159h.036c-.162-1.602-.216-3.24-.216-5.077v-3.529h2.521v12.136zm10.295 0h-7.725V49.397h7.473v2.251h-4.735v2.521h4.466v2.233h-4.466v2.881h4.987v2.25zm13.608 0h-2.971l-1.026-5.222c-.234-1.224-.432-2.358-.576-3.745h-.036c-.216 1.369-.414 2.521-.702 3.745l-1.152 5.222h-3.007l-2.881-12.136H58.2l.918 4.987c.271 1.459.523 3.025.721 4.268h.036c.198-1.332.486-2.791.792-4.303l1.026-4.952h2.917l.973 5.114c.27 1.422.468 2.719.648 4.068h.035c.181-1.35.451-2.772.703-4.23l.99-4.952h2.791l-3.134 12.136z"/><path fill="#333" d="M64.284 20.244a4.874 4.874 0 0 0 4.873 4.874h14.99L64.284 5.255v14.989z"/><path fill="#FFF" d="M64.284 20.244a4.874 4.874 0 0 0 4.873 4.874h14.99L64.284 5.255v14.989z" opacity=".6"/><path fill="#FFF" d="M30.139 58.4c-.955 0-1.621.684-1.621 1.674 0 .955.666 1.657 1.585 1.657h.019c.972 0 1.619-.702 1.619-1.657-.018-1.008-.667-1.674-1.602-1.674zM41.192 52.927c0 1.837.054 3.476.216 5.077h-.036c-.558-1.368-1.261-2.881-1.98-4.159l-2.521-4.447h-3.205v12.136h2.521v-3.655c0-1.98-.036-3.69-.126-5.312h.072c.576 1.422 1.387 2.971 2.106 4.285l2.593 4.682h2.881V49.397h-2.521v3.53zM49.021 56.402h4.465v-2.233h-4.465v-2.521h4.735v-2.251h-7.473v12.136h7.725v-2.25h-4.987zM66.969 54.35c-.252 1.458-.522 2.881-.703 4.23h-.036a74.835 74.835 0 0 0-.648-4.068l-.973-5.114h-2.917l-1.026 4.952c-.306 1.512-.594 2.971-.792 4.303h-.036a169.36 169.36 0 0 0-.721-4.268l-.918-4.987h-2.935l2.881 12.136h3.007l1.152-5.222c.288-1.224.486-2.376.702-3.745h.036c.145 1.387.342 2.521.576 3.745l1.026 5.222h2.971l3.134-12.136h-2.791l-.989 4.952z"/></svg>