<svg xmlns="http://www.w3.org/2000/svg" enable-background="new 0 0 750 750" viewBox="0 0 750 750"><path fill="#e1e5ff" d="M597.7,442c-1.1,11.1-11,20.1-22.1,20.1H385.6c-8.9,0-15.8-5.8-17.6-13.8c6.1-5.4,14.1-8.9,22-10.4       c11.7-2.2,23.3-0.5,34.7,0.9c27.7,3.4,56.1,5.7,84.3-0.4c28.2-6.1,56.4-21.7,72.5-46.5c10.3-15.9,14.9-34.3,18-52.4       c6.6-38,7.4-76.4,2.6-113.4c-1.7-13.2-4.2-26.4-3.9-39.9c0.3-13.5,3.7-27.8,12.5-39.1c4.6-5.9,10.8-10.8,17.6-13.7       C629.6,139.1,630.1,121.9,597.7,442z"/><path fill="#fc6054" d="M523.7,431.6c-0.4,3.6-3.6,6.5-7.2,6.5h-67.1c-3.6,0-6.2-2.9-5.8-6.5l2.3-22.2c0.4-3.6,3.6-6.5,7.2-6.5       h67.1c3.1,0,5.4,2.1,5.8,5C526.2,409.2,526.1,408.1,523.7,431.6z"/><path fill="#e64b38" d="M523.7,431.6c-0.4,3.6-3.6,6.5-7.2,6.5h-67.1c-3.6,0-6.2-2.9-5.8-6.5l0.2-2.3c3.6,0.2,17.1,2.6,30.8,2.2       c9.7-0.3,19.6-2,28.7-6.2c6.9-3.2,13.3-7.7,18.6-13.3c1.3-1.4,2.6-2.9,4.1-4.2C526.2,409.2,526.1,408.1,523.7,431.6z"/><ellipse cx="506.6" cy="208.3" fill="#fff" rx="69" ry="62.3" transform="rotate(-43.581 506.553 208.296)"/><path fill="#e1e5ff" d="M549.3,253.7c-27.4,25.8-68.5,27.1-92.3,2.5c-6.8-7.1-11.8-15.9-14.4-25.8c19.7,34.7,68.8,39,100.9,8.9       c20.1-19,27-45.5,21.3-67.6C578.7,196.2,573.9,230.5,549.3,253.7z"/><path fill="#112544" d="M575.5,463H385.6c-11.7,0-20.2-9.5-19-21.2l31-302.4c1.2-11.6,11.5-21,23.1-21h189.9       c11.7,0,20.2,9.5,19,21.2l-1-0.1l1,0.1l-31,302.4C597.5,453.6,587.1,463,575.5,463z M420.7,120.5c-10.6,0-20,8.6-21.1,19.2       l-31,302.4c-1.1,10.5,6.5,19,17,19h189.9c10.6,0,20-8.6,21.1-19.2l31-302.4c1.1-10.5-6.5-19-17-19H420.7z"/><path fill="#8d95ff" d="M549.3,253.7c-27.4,25.8-68.5,27.1-92.3,2.5c12.9-13,30.6-21.1,49.4-21.1       C523.8,235.2,539,242.3,549.3,253.7z"/><path fill="#112544" d="M487.8,181.3c0,0-3.8,2.5-0.8,12.1l8-11.5L487.8,181.3z"/><path fill="#fcbba4" d="M486.8,227.5c0.4,0,5-0.4,5.6-0.4c-0.9,7.7-2.4,12.6-2.3,13c1,9.7,29,9.6,30.3-0.8l2.5-32.6l8.5-18.1        l-35.6-12.8c0,0-4.2,8.8-10.3,17.9c-1.4,2.1-3.4,5.4-4.7,8c0,0,0,0,0,0c-0.5,1-1,2.2-1.4,3.4        C475.8,214.4,474.5,227.1,486.8,227.5z"/><path fill="#112544" d="M489,240.2c0-0.4,0.1-0.8,0.7-3.3c0.1-0.5,0.6-0.9,1.2-0.8c0.5,0.1,0.9,0.7,0.8,1.2        c-0.3,1.3-0.6,2.5-0.6,2.8c1,8.4,27.1,8.3,28.3-0.9l0.1-1.9c0-0.6,0.5-1,1.1-0.9c0.6,0,1,0.5,0.9,1.1l-0.1,2        C519.9,251,490.2,251.1,489,240.2z"/><path fill="#112544" d="M485.6,176.4c0.1,5.1,4.1,8,5.9,9.3c12.7,9.3,25.1,2,25.1,2c-3,8.1,3.9,9.1,3.9,9.1        c-2.8,1.1-4.6,6.5-2.3,14.6l8-1.3c0.5-0.7,0.7-1.6,1.3-2.1l0,0c37-31.6-7-52.5-25.1-49.6c-9.3,1.5-13.3,7.1-15.2,11.8        C486,173.3,485.6,175.9,485.6,176.4z"/><path fill="#112544" d="M494.9,192.6c-0.4,0.8-1.8-0.2-3.6-1.1c-1.8-0.9-3.4-1.4-2.9-2.2c0.4-0.8,2.3-0.6,4.1,0.3        C494.2,190.4,495.3,191.8,494.9,192.6z"/><path fill="#112544" d="M507.3,197.9c-0.4,0.8-1.8-0.1-3.6-1c-1.8-0.9-3.4-1.3-3-2.1c0.4-0.8,2.2-0.7,4.1,0.2        C506.6,195.8,507.8,197.1,507.3,197.9z"/><path fill="#e2805d" d="M491.8,206.7C491.8,206.7,491.8,206.7,491.8,206.7c-2.5-0.1-6.2-1.8-5.4-4.1c0.3-0.9,1.2-1.3,1.9-1.6        c1.9-0.8,3.6-2.2,4.8-3.8c0.3-0.4,1-0.5,1.4-0.2c0.4,0.3,0.5,1,0.2,1.4c-2.8,3.8-6.2,4.5-6.4,4.9c0,0,0.2,0.2,0.5,0.4        c0.9,0.6,2,0.9,3.1,1c0.6,0,1,0.5,0.9,1.1C492.8,206.2,492.4,206.7,491.8,206.7z"/><path fill="#fcbba4" d="M516.6,205.7c-1,3.8,0.9,7.3,4.3,7.9c3.4,0.5,6.9-2.1,7.9-5.9c1-3.8-0.9-7.3-4.3-7.9        S517.6,201.9,516.6,205.7z"/><path fill="#112544" d="M486.2,194c0-0.6,0.4-1,0.9-1.1c0.5,0,1,0.4,1.1,0.9c0,0.3,0.3,1.2,2,1.1c0.6,0,1,0.4,1.1,0.9        c0,0.6-0.4,1-0.9,1.1C487.7,197,486.3,195.5,486.2,194z"/><path fill="#112544" d="M498.2,199.5c0-0.6,0.4-1,0.9-1.1c0.6,0,1,0.4,1.1,0.9c0,0.3,0.3,1.2,2,1.1c0.5,0,1,0.4,1.1,0.9        c0,0.6-0.4,1-0.9,1.1C499.7,202.5,498.3,201,498.2,199.5z"/><path fill="#e2805d" d="M482.4,213.8c-0.4-0.4-0.4-1-0.1-1.4c0.4-0.4,1-0.4,1.4-0.1c3.2,2.9,7,0.1,7.1-0.1        c0.4-0.3,1.1-0.3,1.4,0.2c0.3,0.4,0.3,1.1-0.2,1.4C489.3,216.1,485.3,216.5,482.4,213.8z"/><path fill="#112544" d="M522.1,207.7c-0.3,0-0.5-0.1-0.7-0.3c-0.4-0.4-0.4-1,0.1-1.4l1-0.9c0.4-0.4,1-0.4,1.4,0.1        c0.4,0.4,0.4,1-0.1,1.4l-1,0.9C522.6,207.6,522.3,207.7,522.1,207.7z"/><path fill="#e2805d" d="M492.3,227.1c0,0,7.8,0.1,16.7-3.4c0.8-0.3,1.4,0.4,1.1,1.1c-1.4,3-5.7,8.7-18.9,9.9        C491.6,232.2,492,229.6,492.3,227.1z"/><path fill="#112544" d="M499.9,274.9c-36.8,0-63.6-29.9-59.9-66.7c3.8-36.7,36.6-66.5,73.3-66.5c36.7,0,63.6,29.7,59.9,66.7l0,0       C569.4,244.9,536.9,274.9,499.9,274.9z M513.3,143.7c-35.7,0-67.7,29-71.3,64.7c-3.7,35.7,22.3,64.5,57.9,64.5       c36,0,67.7-29.2,71.3-64.7l0,0C574.8,172.5,548.9,143.7,513.3,143.7z"/><path fill="#fff" d="M572,302.8l-1.9,18.7c-0.4,3.9-3.9,7.1-7.8,7.1H426.3c-3.9,0-6.8-3.1-6.4-7.1l1.9-18.7        c0.4-3.9,3.9-7.1,7.8-7.1h135.9C569.5,295.7,572.4,298.9,572,302.8z"/><path fill="#e1e5ff" d="M571,312.6l-0.9,8.9c-0.4,3.9-3.9,7.1-7.8,7.1H426.3c-1.6,0-3-0.5-4.1-1.4c1.5-2.2,5-3,7.8-3.2        c39.2-3.1,77.8,4.6,116.9-1.3c5.7-0.9,11.6-2.1,16.9-4.8C566.4,316.5,568.9,314.7,571,312.6z"/><path fill="#ffc25e" d="M444.1,312.2c-0.4,3.6-3.6,6.6-7.3,6.6c-3.6,0-6.3-3-5.9-6.6c0.4-3.7,3.6-6.6,7.3-6.6         C441.8,305.5,444.4,308.5,444.1,312.2z"/><path fill="#ffc25e" d="M467.5,312.2c-0.4,3.6-3.6,6.6-7.3,6.6c-3.6,0-6.3-3-5.9-6.6c0.4-3.7,3.6-6.6,7.3-6.6         C465.2,305.5,467.8,308.5,467.5,312.2z"/><path fill="#ffc25e" d="M490.9,312.2c-0.4,3.6-3.6,6.6-7.3,6.6c-3.6,0-6.3-3-5.9-6.6c0.4-3.7,3.6-6.6,7.3-6.6         C488.6,305.5,491.2,308.5,490.9,312.2z"/><path fill="#ffc25e" d="M514.2,312.2c-0.4,3.6-3.6,6.6-7.3,6.6c-3.6,0-6.3-3-5.9-6.6c0.4-3.7,3.6-6.6,7.3-6.6         C512,305.5,514.6,308.5,514.2,312.2z"/><path fill="#ffc25e" d="M537.6,312.2c-0.4,3.6-3.6,6.6-7.3,6.6c-3.6,0-6.3-3-5.9-6.6c0.4-3.7,3.6-6.6,7.3-6.6         C535.4,305.5,538,308.5,537.6,312.2z"/><path fill="#ffc25e" d="M561,312.2c-0.4,3.6-3.6,6.6-7.3,6.6c-3.6,0-6.3-3-5.9-6.6c0.4-3.7,3.6-6.6,7.3-6.6         C558.8,305.5,561.4,308.5,561,312.2z"/><path fill="#efa130" d="M436.8,318.8c-3.3,0-5.9-2.5-6-5.7c4.3,3.8,11.6-0.3,11.3-6C446.5,310.9,443,318.8,436.8,318.8z"/><path fill="#efa130" d="M460.2,318.8c-3.4,0-5.9-2.5-6-5.7c4.3,3.8,11.6-0.2,11.3-6C469.9,310.9,466.4,318.8,460.2,318.8z"/><path fill="#efa130" d="M483.6,318.8c-3.4,0-5.9-2.5-6-5.7c1,0.9,2.4,1.5,4,1.5c4.2,0,7.5-3.8,7.3-7.5         C493.3,310.9,489.8,318.8,483.6,318.8z"/><path fill="#efa130" d="M514.3,312.2c-0.4,3.7-3.6,6.6-7.3,6.6c-3.4,0-5.9-2.5-6-5.7c1,0.9,2.4,1.5,4,1.5c4.2,0,7.5-3.8,7.3-7.5         C513.7,308.2,514.5,310.1,514.3,312.2z"/><path fill="#efa130" d="M530.4,318.8c-3.4,0-5.9-2.5-6-5.7c1,0.9,2.4,1.5,4,1.5c4.2,0,7.5-3.8,7.3-7.5         C540.1,310.9,536.6,318.8,530.4,318.8z"/><path fill="#efa130" d="M553.8,318.8c-3.4,0-5.9-2.5-6-5.7c1,0.9,2.4,1.5,4,1.5c4.1,0,7.5-3.7,7.3-7.5         C563.5,310.9,560,318.8,553.8,318.8z"/><path fill="#112544" d="M562.2,329.6H426.3c-4.5,0-7.8-3.7-7.4-8.2l1.9-18.7c0.5-4.4,4.4-8,8.8-8h135.9c4.5,0,7.8,3.7,7.4,8.2        l-1.9,18.7C570.6,326,566.6,329.6,562.2,329.6z M429.7,296.7c-3.4,0-6.5,2.8-6.8,6.2l-1.9,18.7c-0.3,3.3,2.1,6,5.4,6h135.9        c3.4,0,6.5-2.8,6.8-6.2l1.9-18.7l0,0c0.3-3.4-2.1-6-5.4-6H429.7z"/><g><path fill="#112544" d="M436.8,319.8c-4.2,0-7.4-3.5-6.9-7.7c0.7-6.7,9.2-10.1,13.5-5.3c1.3,1.5,1.9,3.4,1.7,5.5l0,0         C444.6,316.4,440.9,319.8,436.8,319.8z M431.8,312.3c-0.3,3.1,1.9,5.5,4.9,5.5c5.1,0,8.2-6.2,5.1-9.6         C438.7,304.7,432.4,307.2,431.8,312.3z M444.1,312.2L444.1,312.2L444.1,312.2z"/><path fill="#112544" d="M460.2,319.8c-4.2,0-7.4-3.5-6.9-7.7c0.7-6.7,9.2-10.1,13.5-5.3c1.3,1.5,1.9,3.4,1.7,5.5l0,0         C468,316.4,464.3,319.8,460.2,319.8z M455.2,312.3c-0.3,3.1,1.9,5.5,4.9,5.5c5.1,0,8.2-6.2,5.1-9.6         C462.1,304.7,455.8,307.2,455.2,312.3z M467.5,312.2L467.5,312.2L467.5,312.2z"/><path fill="#112544" d="M478.4,317.5c-4.3-4.8-0.1-13,6.6-13c4.2,0,7.4,3.5,6.9,7.7l0,0C491.2,318.9,482.7,322.3,478.4,317.5z          M484.9,306.5c-5.1,0-8.2,6.2-5.1,9.6c3.1,3.5,9.5,0.9,10-4.1C490.2,309,488,306.5,484.9,306.5z M490.9,312.2L490.9,312.2         L490.9,312.2z"/><path fill="#112544" d="M501.8,317.5c-4.3-4.8-0.1-13,6.6-13c4.2,0,7.4,3.5,6.9,7.7l0,0C514.6,318.9,506.1,322.3,501.8,317.5z          M508.3,306.5c-5.1,0-8.2,6.2-5.1,9.6c3.1,3.5,9.5,0.9,10-4.1C513.6,309,511.4,306.5,508.3,306.5z M514.2,312.2L514.2,312.2         L514.2,312.2z"/><path fill="#112544" d="M530.4,319.8c-4.2,0-7.4-3.5-6.9-7.7c0.7-6.7,9.2-10.1,13.5-5.3c1.3,1.5,1.9,3.4,1.7,5.5l0,0         C538.2,316.4,534.5,319.8,530.4,319.8z M525.4,312.3c-0.3,3.1,1.9,5.5,4.9,5.5c5.1,0,8.2-6.2,5.1-9.6         C532.3,304.7,525.9,307.2,525.4,312.3z M537.6,312.2L537.6,312.2L537.6,312.2z"/><path fill="#112544" d="M548.5,317.5c-1.3-1.5-1.9-3.4-1.7-5.4c0.4-4.1,4.1-7.5,8.3-7.5c4.2,0,7.4,3.5,6.9,7.7l0,0         C561.3,318.9,552.9,322.3,548.5,317.5z M555.1,306.5c-5.1,0-8.2,6.2-5.1,9.6c3.1,3.5,9.5,0.9,10-4.1         C560.4,309,558.1,306.5,555.1,306.5z M561,312.2L561,312.2L561,312.2z"/></g><g><path fill="#fff" d="M566.7,353.9l-1.9,18.7c-0.4,3.9-3.9,7.1-7.8,7.1H421.1c-3.9,0-6.8-3.1-6.4-7.1l1.9-18.7        c0.4-3.9,3.9-7.1,7.8-7.1h135.9C564.3,346.8,567.1,350,566.7,353.9z"/><path fill="#e1e5ff" d="M565.7,363.6l-0.9,8.9c-0.4,3.9-3.9,7.1-7.8,7.1H421.1c-1.6,0-3-0.5-4.1-1.4c1.5-2.2,5-3,7.8-3.2        c39.2-3.1,77.8,4.6,116.9-1.3c5.7-0.9,11.6-2.1,16.9-4.8C561.2,367.6,563.7,365.8,565.7,363.6z"/><path fill="#ffc25e" d="M438.8,363.2c-0.4,3.6-3.6,6.6-7.3,6.6c-3.6,0-6.3-3-5.9-6.6c0.4-3.7,3.6-6.6,7.3-6.6         C436.6,356.6,439.2,359.6,438.8,363.2z"/><path fill="#ffc25e" d="M462.2,363.2c-0.4,3.6-3.6,6.6-7.3,6.6c-3.6,0-6.3-3-5.9-6.6c0.4-3.7,3.6-6.6,7.3-6.6         C460,356.6,462.6,359.6,462.2,363.2z"/><path fill="#ffc25e" d="M485.6,363.2c-0.4,3.6-3.6,6.6-7.3,6.6c-3.6,0-6.3-3-5.9-6.6c0.4-3.7,3.6-6.6,7.3-6.6         C483.3,356.6,486,359.6,485.6,363.2z"/><path fill="#ffc25e" d="M509,363.2c-0.4,3.6-3.6,6.6-7.3,6.6c-3.6,0-6.3-3-5.9-6.6c0.4-3.7,3.6-6.6,7.3-6.6         C506.7,356.6,509.4,359.6,509,363.2z"/><path fill="#ffc25e" d="M532.4,363.2c-0.4,3.6-3.6,6.6-7.3,6.6c-3.6,0-6.3-3-5.9-6.6c0.4-3.7,3.6-6.6,7.3-6.6         C530.1,356.6,532.8,359.6,532.4,363.2z"/><path fill="#ffc25e" d="M555.8,363.2c-0.4,3.6-3.6,6.6-7.3,6.6s-6.3-3-5.9-6.6c0.4-3.7,3.6-6.6,7.3-6.6         C553.5,356.6,556.2,359.6,555.8,363.2z"/><path fill="#efa130" d="M438.8,363.2c-0.4,3.7-3.6,6.6-7.3,6.6c-3.3,0-5.9-2.5-6-5.7c1,0.9,2.4,1.5,4,1.5c4.2,0,7.5-3.8,7.3-7.5         C438.3,359.3,439,361.1,438.8,363.2z"/><path fill="#efa130" d="M462.2,363.2c-0.4,3.7-3.6,6.6-7.3,6.6c-3.4,0-5.9-2.5-6-5.7c1,0.9,2.4,1.5,4,1.5c4.2,0,7.5-3.8,7.3-7.5         C461.7,359.3,462.4,361.1,462.2,363.2z"/><path fill="#efa130" d="M485.6,363.2c-0.4,3.7-3.6,6.6-7.3,6.6c-3.4,0-5.9-2.5-6-5.7c1,0.9,2.4,1.5,4,1.5c4.2,0,7.5-3.8,7.3-7.5         C485.1,359.3,485.8,361.1,485.6,363.2z"/><path fill="#efa130" d="M509,363.2c-0.4,3.7-3.6,6.6-7.3,6.6c-3.4,0-5.9-2.5-6-5.7c1,0.9,2.4,1.5,4,1.5c4.2,0,7.5-3.8,7.3-7.5         C508.5,359.3,509.2,361.1,509,363.2z"/><path fill="#efa130" d="M532.4,363.2c-0.4,3.7-3.6,6.6-7.3,6.6c-3.4,0-5.9-2.5-6-5.7c1,0.9,2.4,1.5,4,1.5c4.2,0,7.5-3.8,7.3-7.5         C531.9,359.3,532.6,361.1,532.4,363.2z"/><path fill="#efa130" d="M555.8,363.2c-0.4,3.7-3.6,6.6-7.3,6.6c-3.4,0-5.9-2.5-6-5.7c1,0.9,2.4,1.5,4,1.5c4.1,0,7.5-3.7,7.3-7.5         C555.2,359.3,556,361.1,555.8,363.2z"/><g><path fill="#112544" d="M557,380.7H421.1c-4.5,0-7.8-3.7-7.4-8.2l1.9-18.7c0.5-4.4,4.4-8,8.8-8h135.9c4.5,0,7.8,3.7,7.4,8.2l0,0        l-1.9,18.7C565.4,377.1,561.4,380.7,557,380.7z M424.4,347.8c-3.4,0-6.5,2.8-6.8,6.2l-1.9,18.7c-0.3,3.3,2,6,5.4,6H557        c3.4,0,6.5-2.8,6.8-6.2l1.9-18.7c0.3-3.3-2.1-6-5.4-6H424.4z M566.7,353.9L566.7,353.9L566.7,353.9z"/></g><g><path fill="#112544" d="M431.6,370.8c-4.2,0-7.4-3.5-6.9-7.7c0.4-4.1,4.1-7.5,8.3-7.5c4.2,0,7.4,3.5,6.9,7.7l0,0         C439.4,367.5,435.7,370.8,431.6,370.8z M432.9,357.6c-3.1,0-6,2.6-6.3,5.7c-0.3,3.1,1.9,5.5,4.9,5.5c3.1,0,6-2.6,6.3-5.7         C438.2,360,435.9,357.6,432.9,357.6z M438.8,363.2L438.8,363.2L438.8,363.2z"/><path fill="#112544" d="M454.9,370.8c-4.2,0-7.4-3.5-6.9-7.7c0.4-4.1,4.1-7.5,8.3-7.5c4.2,0,7.4,3.5,6.9,7.7         C462.8,367.5,459.1,370.8,454.9,370.8z M456.3,357.6c-3.1,0-6,2.6-6.3,5.7c-0.3,3.1,1.9,5.5,4.9,5.5c3.1,0,6-2.6,6.3-5.7l0,0         C461.5,360,459.3,357.6,456.3,357.6z"/><path fill="#112544" d="M478.3,370.8c-4.2,0-7.4-3.5-6.9-7.7c0.4-4.1,4.1-7.5,8.3-7.5c4.2,0,7.4,3.5,6.9,7.7         C486.2,367.5,482.5,370.8,478.3,370.8z M479.7,357.6c-3.1,0-6,2.6-6.3,5.7c-0.3,3.1,1.9,5.5,4.9,5.5c3.1,0,6-2.6,6.3-5.7l0,0         C484.9,360,482.7,357.6,479.7,357.6z"/><path fill="#112544" d="M501.7,370.8c-4.2,0-7.4-3.4-6.9-7.7c0.4-4.1,4.1-7.5,8.3-7.5c4.2,0,7.4,3.5,6.9,7.7         C509.6,367.5,505.9,370.8,501.7,370.8z M503.1,357.6c-3.1,0-6,2.6-6.3,5.7c-0.3,3,1.8,5.5,4.9,5.5c3.1,0,6-2.6,6.3-5.7l0,0         C508.3,360,506.1,357.6,503.1,357.6z"/><path fill="#112544" d="M525.1,370.8c-4.2,0-7.4-3.4-6.9-7.7c0.4-4.1,4.1-7.5,8.3-7.5c4.2,0,7.4,3.5,6.9,7.7l0,0         C533,367.5,529.3,370.8,525.1,370.8z M526.5,357.6c-3.1,0-6,2.6-6.3,5.7c-0.3,3,1.8,5.5,4.9,5.5c3.1,0,6-2.6,6.3-5.7l0,0         C531.7,360,529.5,357.6,526.5,357.6z M532.4,363.2L532.4,363.2L532.4,363.2z"/><path fill="#112544" d="M548.5,370.8c-4.2,0-7.4-3.4-6.9-7.7c0.4-4.1,4.1-7.5,8.3-7.5c4.2,0,7.4,3.5,6.9,7.7l0,0         C556.4,367.5,552.7,370.8,548.5,370.8z M549.9,357.6c-3.1,0-6,2.6-6.3,5.7c-0.3,3,1.8,5.5,4.9,5.5c3.1,0,6-2.6,6.3-5.7l0,0         C555.1,360,552.9,357.6,549.9,357.6z M555.8,363.2L555.8,363.2L555.8,363.2z"/></g></g><g><path fill="#112544" d="M516.6,439.1h-67.1c-4.2,0-7.2-3.4-6.8-7.6l2.3-22.2c0.4-4.1,4.1-7.4,8.1-7.4h67.1c4.2,0,7.2,3.4,6.8,7.6       l0,0l-2.3,22.2C524.3,435.8,520.7,439.1,516.6,439.1z M453.1,403.9c-3.1,0-5.8,2.5-6.2,5.6l-2.3,22.2c-0.3,3,1.9,5.4,4.8,5.4       h67.1c3.1,0,5.8-2.5,6.2-5.6l2.3-22.2c0.3-3-1.9-5.4-4.8-5.4H453.1z M526,409.4L526,409.4L526,409.4z"/></g><g><path fill="#fff" d="M459.8,413.6c0.1,0,1.5-0.1,2.2,0.3c0.4,0.2,0.6,0.5,0.5,0.9l0,0c-0.1,0.4-0.4,0.7-1,0.7        c-1-0.3-1.9-0.2-2-0.2c-1.8,0.1-2.7,0.7-2.8,1.8c-0.1,1.1,0.7,1.7,2.3,1.8c2.6,0.1,3.8,1.2,3.6,3.3c-0.4,2.5-2,3.7-4.7,3.8        c-0.8,0-2.2,0-2.9-0.4c-0.6-0.3-0.8-0.6-0.8-1c0.1-0.9,0.8-1,1.5-0.6c0.4,0.2,1.2,0.4,2.4,0.4c1.6,0,2.5-0.7,2.8-2.1        c0-0.1,0.5-1.6-2.1-1.8c-2.7-0.2-3.9-1.3-3.7-3.3C455.3,414.8,456.9,413.7,459.8,413.6z"/><path fill="#fff" d="M467.2,417.6l-0.9,7.8c0,0.4-0.3,0.7-0.9,0.7c-0.5-0.1-0.7-0.3-0.7-0.8c0.6-5.4,0.9-8.1,1-8.1        C466.2,416.8,467,416.7,467.2,417.6z M467.9,414.7c0,0.1,0.2,0.9-1,1.3c-1.1,0.2-1.3-0.6-1.4-0.8c0-0.1-0.2-0.9,1-1.3        C466.7,413.8,467.7,413.5,467.9,414.7z"/><path fill="#fff" d="M477.2,424.7c-0.1,0.6,0,2.8-1.3,4.4c-0.8,1-2,1.5-3.6,1.5c-1.4,0-2.4-0.3-3-0.8c-0.2-0.3-0.5-0.7-0.4-1        c0.3-1.3,1.8-0.1,2.1,0.1c0.3,0.1,0.8,0.2,1.5,0.2c1.1,0,1.8-0.4,2.3-1.2c0.4-0.4,0.6-1.1,0.7-2l0.1-1.3h-0.1        c-0.8,1-1.9,1.5-3,1.5c-0.2,0-2.2,0.3-3.2-2c-0.2-0.6-0.3-1.3-0.2-2c0.3-3.3,2.2-5.2,5.4-4.9c1.1,0.1,1.8,0.3,2.2,0.6        s0.7,0.5,0.7,0.6C477.6,418.5,477.4,422.7,477.2,424.7z M470.7,422.1c-0.1,1.4,0.4,2.3,1.8,2.3c0.1,0,1.8,0.3,3.2-2.1        c0-1.1,0.1-2.2,0.2-3.3c-0.8-0.5-2.6-0.7-3.9,0.2C471.3,419.8,470.9,420.8,470.7,422.1z"/><path fill="#fff" d="M480.2,416.9c0.5,0,0.8,0.2,0.8,0.6l-0.1,0.9c0.5-0.9,1.4-1.4,2.8-1.4h0c2.3,0,3.4,1.5,3.3,4.4        c-0.3,2.8-0.5,4.3-0.6,4.5c-0.2,0.3-0.4,0.4-0.7,0.4h0c-0.5-0.1-0.8-0.3-0.7-0.7l0.4-3.9c0.2-1.9-0.5-2.9-2-2.9        c-1.2,0-2.1,0.5-2.7,1.6l-0.5,5.3c-0.1,0.4-0.4,0.7-0.9,0.7c-0.4,0-0.6-0.2-0.7-0.6c0-0.1,0.2-2.7,0.7-7.6        C479.4,417.2,479.7,416.9,480.2,416.9z"/><path fill="#fff" d="M495.4,413.6c0.3,0,0.6,0.2,0.7,0.7c-0.5,3.3-1.4,8.4-0.4,9.3c0.5,0.7,1.2,1,2.2,1c1.2,0,2.1-0.5,2.6-1.5        c1-1.8,1.2-6.5,1.3-8.5c0-0.3,0.3-0.6,0.7-0.8l0.2,0c0.5,0.1,0.8,0.4,0.7,0.8c-0.1,2.3-0.3,3.9-0.3,4.2        c-0.3,3.1-1.1,6.6-4.2,7.3c-1.6,0.5-3.5,0.1-4.6-1.6c-0.6-0.8-0.7-2.1-0.6-3.7c0.2-2.1,0.4-4.1,0.9-6.5        C494.7,413.8,495,413.6,495.4,413.6z"/><path fill="#fff" d="M505.4,416.9c0.5,0,0.7,0.3,0.7,0.9l0,0c0,0.4,0.1,0.6,0.1,0.6c0.8-0.9,2.1-1.4,3.3-1.4        c1.6,0,2.5,0.8,2.9,2.4c0.3,1.3,0.1,2.3,0.1,2.4c-0.4,3.5-3.8,5.2-6.9,3.6c-0.3,2.4-0.6,4.8-0.7,4.8c-0.4,0.6-1.3,0.7-1.5-0.2        c1.6-16.8,1-11,1.1-12.2c0-0.4,0.3-0.7,0.6-0.8L505.4,416.9z M505.9,423.6c0.7,0.6,1.4,0.9,2.2,0.9c0.7,0,1.3-0.2,1.9-0.7        c1-1.1,1.2-3.4,0.2-4.8c-0.7-0.6-2.6-0.6-4.1,1.1L505.9,423.6z"/></g><g><path fill="#fc6054" d="M274.6,585.7c-1.9,6.9-3.7,14.6-4.7,21.5c-1,6.5-1.3,12.4-0.5,16.4c1,4.6,5.1,8,9.8,7.9        c19.5-0.4,69-2.7,69.7-8.2c1.1-9.3-12.2-15.3-21.4-18.7c-4.3-1.6-7.9-4.6-10.2-8.4c-1.3-2.1-2.2-4.5-2.6-7L274.6,585.7z"/><path fill="#e64b38" d="M274.6,585.7c-1.9,6.9-3.7,14.6-4.7,21.5c15.5,7.5,36.3-3.6,47.4-11c-1.3-2.1-2.2-4.5-2.6-7L274.6,585.7z        "/><path fill="#112544" d="M273.8,624.2c-0.5-0.1-0.9-0.6-0.8-1.2c0.1-0.5,0.6-0.9,1.2-0.8c29.5,5.3,67.3-3.8,67.6-3.8        c0.5-0.1,1.1,0.2,1.2,0.7c0.1,0.5-0.2,1.1-0.7,1.2C323.4,625,294.3,628,273.8,624.2z"/><path fill="#112544" d="M320.8,605.5c-0.4-0.4-0.3-1,0.1-1.4l3.8-3.4c0.4-0.4,1-0.3,1.4,0.1s0.3,1-0.1,1.4l-3.8,3.4        C321.8,605.9,321.2,605.9,320.8,605.5z"/><path fill="#112544" d="M324.7,608.2c-0.4-0.4-0.3-1,0.1-1.4l3.8-3.4c0.4-0.4,1-0.3,1.4,0.1c0.4,0.4,0.3,1-0.1,1.4l-3.8,3.4        C325.7,608.6,325,608.6,324.7,608.2z"/><path fill="#fc6054" d="M141.1,564.1c-4.6,5.5-9.4,11.7-13.3,17.5c-3.6,5.5-6.4,10.7-7.3,14.7c-1.1,4.6,1.3,9.4,5.6,11.3       c17.9,7.8,63.8,26.5,66.7,21.8c4.9-8-4.7-19-11.6-25.9c-3.3-3.2-5.3-7.5-5.7-11.9c-0.3-2.5-0.1-5,0.6-7.4L141.1,564.1z"/><path fill="#e64b38" d="M141.1,564.1c-4.6,5.5-9.4,11.7-13.3,17.5c10.9,13.3,34.5,11.9,47.6,9.9c-0.3-2.5-0.1-5,0.6-7.4       L141.1,564.1z"/><path fill="#ffc25e" d="M333.9,471.7c-1.7,30.9-6.5,118.4-6.5,118.4c0,2.3-2.8,4.1-7.1,5.2c-2,0.5-4.3,0.9-6.8,1.2       c-18.8,2.2-50-1.8-50-9.6c0,0,4.8-85.7,2.4-115.2c-2.5-30.9-27.2-122.7-27.2-122.7l65.5-19.2c0,0,2.7,5.1,6.4,14.2       C320.2,367.1,336.9,416.1,333.9,471.7z"/><path fill="#efa130" d="M320.2,595.3c-2,0.5-4.3,0.9-6.8,1.2c-18.8,2.2-50-1.8-50-9.6c0,0,4.8-85.7,2.4-115.2       c-2.5-30.9-27.2-122.7-27.2-122.7l65.5-19.2c0,0,2.7,5.1,6.4,14.2c-0.7,0.7-1.3,1.3-1.8,1.9c-9.8,10.8-19.2,22.3-25.9,35.3       c-3.7,7.3-6.6,15-8.1,23.1c-2.8,15-1,30.4,0.9,45.5c2.9,23.5,5.8,47,8.7,70.5c2.1,17.3,4.3,34.6,6.4,52       c0.7,5.6,1.8,12,6.5,15.2C304.2,592,316.3,587.9,320.2,595.3z"/><path fill="#ffc25e" d="M274.4,335.9c0,0-4.4,89.3-23.4,128.1c-14.5,29.6-63.6,119.8-63.6,119.8c-9.2,10.6-63.6-8.9-57.6-18.8       c0,0,43.2-80.3,48.4-112.3c4.1-25.5-2.5-78.9,26-108.8L274.4,335.9z"/><path fill="#ffc25e" d="M274.4,335.9c0,0-4.4,89.3-23.4,128.1c-14.5,29.6-63.6,119.8-63.6,119.8c-9.2,10.6-63.6-8.9-57.6-18.8       c0,0,43.2-80.3,48.4-112.3c4.1-25.5-2.5-78.9,26-108.8L274.4,335.9z"/><path fill="#112544" d="M258.5,443.8c-0.5-0.2-0.8-0.7-0.7-1.2c12.2-42.6,15.5-106.1,15.5-106.7c0.1-1.3,2.1-1.2,2,0.1       c0,0.6-3.3,64.4-15.6,107.2C259.6,443.7,259,444,258.5,443.8z"/><path fill="#112544" d="M172.9,597.5c-0.2-0.5,0-1.1,0.5-1.3l4.7-1.9c0.5-0.2,1.1,0,1.3,0.5s0,1.1-0.5,1.3l-4.7,1.9       C173.7,598.3,173.1,598.1,172.9,597.5z"/><path fill="#112544" d="M175.5,601.4c-0.2-0.5,0-1.1,0.5-1.3l4.7-1.9c0.5-0.2,1.1,0,1.3,0.5c0.2,0.5,0,1.1-0.5,1.3l-4.7,1.9       C176.3,602.2,175.8,602,175.5,601.4z"/><path fill="#112544" d="M178.2,605.3c-0.2-0.5,0-1.1,0.5-1.3l4.7-1.9c0.5-0.2,1.1,0,1.3,0.5c0.2,0.5,0,1.1-0.5,1.3l-4.7,1.9       C179,606.1,178.4,605.9,178.2,605.3z"/><path fill="#112544" d="M185.7,624.2c-35-9.8-59-26.5-59.3-26.7c-0.5-0.3-0.6-0.9-0.2-1.4s0.9-0.6,1.4-0.2       c0.2,0.2,24,16.7,58.6,26.4c0.5,0.1,0.8,0.7,0.7,1.2C186.8,624.1,186.2,624.4,185.7,624.2z"/><path fill="#112544" d="M317,602.7c-0.4-0.4-0.3-1,0.1-1.4l3.8-3.4c0.4-0.4,1-0.3,1.4,0.1c0.4,0.4,0.3,1-0.1,1.4l-3.8,3.4       C318,603.1,317.4,603.1,317,602.7z"/><path fill="#112544" d="M214.5,398.3c-0.5-0.1-0.9-0.6-0.9-1.1c0.1-0.5,0.6-0.9,1.1-0.9c20.4,2.5,26.9-8.8,23.2-22.2       c-0.1-0.5,0.2-1.1,0.7-1.2c0.5-0.2,1.1,0.2,1.2,0.7c0.1,0.5,3.2,11.7-3.1,19.1C231.5,398.7,222.5,399.2,214.5,398.3z"/><path fill="#8d95ff" d="M375.4,241.8c0,0-11.6,52.2-48.3,63.9c-5.4,1.7-11.8,1.5-17.6,0.6c-3.3-0.5-6.5-1.1-9.1-1.6        c0.1,1.6,2.8,6.1,6,11c4.5,6.9,0.2,16.1-7.9,17.2c-45.8,6-80.2,24.9-100.6,11.9c-17-10.9-36.3-26-33-71.9        c0.2-3.1,0.5-6.3,1-9.6c8-62.1,56-65.4,80.4-63.4c7.9,0.7,26.4,6,33.1,10.3c21.1,13.7,34.3,54.1,34.3,54.1s10.6-15,31.1-30.2        c4.3-3.2,9-6.4,14.1-9.4C358.9,234.1,368.1,239.3,375.4,241.8z"/><path fill="#757bff" d="M285.1,335.1c-39.4,7.4-68.9,21.4-87.3,9.7c-17-10.9-36.3-26-33-71.9c1.1,0.5,2.2,1.1,3.1,1.9        c7.7,5.9,9.6,16.5,13.8,25.3c9.2,18.7,30.3,28.9,50.8,32.3C249.9,335.2,267.6,334.3,285.1,335.1z"/><path fill="#757bff" d="M375.4,241.8c0,0-11.6,52.2-48.3,63.9c-5.4,1.7-11.7,1.5-17.6,0.7c-0.2-1,0-2,0.6-2.7        c1-1.2,2.7-1.3,4.2-1.4c13.7-1.1,26.9-7.5,36.3-17.6c9.4-10.1,14.8-23.7,14.9-37.5c0-2.8-0.3-5.8-2.1-7.8        c-1.6-1.8-4.1-2.4-6.5-2.6c-2.4-0.2-4.8,0.1-7.2-0.3c-2-0.3-3.8-1.1-5.1-2.4c4.3-3.2,9-6.4,14.1-9.4        C358.9,234,368.1,239.3,375.4,241.8z"/><path fill="#112544" d="M215.4,350.3c-6.9,0-12.9-1.3-18.1-4.6c-0.5-0.3-0.6-0.9-0.3-1.4c0.3-0.5,0.9-0.6,1.4-0.3        c19.9,12.7,54.1-6,99.9-12c2.6-0.3,5-1.7,6.6-3.7c0.3-0.4,1-0.5,1.4-0.2c0.4,0.3,0.5,1,0.2,1.4c-2,2.5-4.8,4.1-7.9,4.5        C264.1,338.5,236,350.3,215.4,350.3z"/><path fill="#112544" d="M300.2,304.7c-0.5,0-0.9-0.4-1-0.8c-4.8-30.3-11.4-47.2-16.1-55.9c-0.3-0.5-0.1-1.1,0.4-1.4        c0.5-0.3,1.1-0.1,1.4,0.4c4.8,8.9,11.4,26,16.3,56.6c0.1,0.5-0.3,1.1-0.8,1.1C300.3,304.7,300.3,304.7,300.2,304.7z"/><path fill="#112544" d="M261,142.7c0,0,3.6,2.5-0.5,12.2l-6.9-11.6L261,142.7z"/><path fill="#fcbba4" d="M257.2,189.5c-0.4,0-5.1-0.4-5.6-0.4c0.1,7.8,1.1,12.7,1,13.1c-2,9.8-30.3,9.7-30.5-0.8l0.9-32.9        l-6.7-18.3l37.3-12.9c0,0,3.3,8.9,8.5,18.1c0.8,1.3,1.8,3.4,2.6,5C270.2,171.9,271.3,189,257.2,189.5z"/><path fill="#112544" d="M221.2,201.4c0-0.6,0.4-1,1-1c0,0,0,0,0,0c0.5,0,1,0.4,1,1c0.2,9.1,26.7,9.4,28.5,0.6        c0.1-0.5,0.6-0.9,1.2-0.8c0.5,0.1,0.9,0.6,0.8,1.2C251.4,213.3,221.4,213.1,221.2,201.4z"/><path fill="#112544" d="M263.7,137.8c-0.6,5.2-4.9,8.1-6.9,9.4c-13.8,9.4-25.6,2-25.6,2c2.2,8.2-4.9,9.2-4.9,9.2        c2.7,1.1,4,6.6,0.8,14.8l-8-1.3c-0.4-0.7-0.5-1.6-1.1-2.1l0,0c-34.1-31.9,12.5-53.1,30.5-50.1c9.2,1.5,12.8,7.2,14.2,11.9        C263.6,134.7,263.7,137.3,263.7,137.8z"/><path fill="#112544" d="M252.6,154.2c0.4,0.8,1.8-0.2,3.7-1.1c1.9-0.9,3.6-1.4,3.2-2.2c-0.4-0.8-2.2-0.6-4.1,0.3        C253.5,152,252.3,153.4,252.6,154.2z"/><path fill="#112544" d="M239.5,159.5c0.3,0.8,1.8-0.2,3.7-1c1.9-0.9,3.6-1.4,3.3-2.1c-0.4-0.8-2.2-0.7-4.1,0.2        C240.5,157.4,239.2,158.7,239.5,159.5z"/><path fill="#e2805d" d="M254.4,168.4c-0.5,0-1-0.4-1-0.9c0-0.6,0.4-1,0.9-1.1c1.6-0.1,3.5-0.9,3.8-1.5c-0.5-0.4-3.6-1.2-6-4.9        c-0.3-0.5-0.2-1.1,0.3-1.4c0.5-0.3,1.1-0.2,1.4,0.3c1,1.6,2.6,3,4.4,3.8c0.6,0.3,1.6,0.7,1.8,1.7        C260.7,166.7,256.9,168.2,254.4,168.4C254.4,168.4,254.4,168.4,254.4,168.4z M258.2,164.9L258.2,164.9L258.2,164.9z"/><path fill="#fcbba4" d="M229.4,167.4c0.6,3.8-1.7,7.4-5.1,8c-3.4,0.5-6.7-2.1-7.3-6s1.7-7.4,5.1-8        C225.4,160.9,228.7,163.6,229.4,167.4z"/><path fill="#112544" d="M257,158.5c-0.6,0-1-0.5-0.9-1.1c0-0.6,0.5-1,1.1-0.9c1.8,0.1,2.2-1,2.2-1.2c0.1-0.5,0.6-0.9,1.2-0.8        C262.3,154.9,260.9,158.7,257,158.5z"/><path fill="#112544" d="M244.3,164c-0.6,0-1-0.5-0.9-1.1c0-0.6,0.5-1,1.1-0.9c2,0.1,2.2-1.1,2.2-1.2c0.1-0.5,0.6-0.9,1.2-0.8        c0.5,0.1,0.9,0.6,0.8,1.2C248.3,162.8,246.7,164.2,244.3,164z"/><path fill="#e2805d" d="M253.3,175.7c-0.4-0.4-0.5-1-0.1-1.4c0.4-0.4,1-0.5,1.4-0.1l0,0c0.1,0.1,3.6,3,7.2,0        c0.4-0.4,1.1-0.3,1.4,0.1c0.4,0.4,0.3,1.1-0.1,1.4C259.9,178.3,255.9,177.9,253.3,175.7z"/><path fill="#112544" d="M223,169.1l-0.9-0.9c-0.4-0.4-0.4-1,0-1.4c0.4-0.4,1-0.4,1.4,0l0.9,0.9c0.4,0.4,0.4,1,0,1.4        C224,169.5,223.4,169.5,223,169.1z"/><path fill="#e2805d" d="M251.7,189.1c0,0-7.8,0.1-16.5-3.4c-0.7-0.3-1.5,0.4-1.2,1.1c1.1,3,4.9,8.8,18.1,10        C251.8,194.2,251.7,191.6,251.7,189.1z"/><path fill="#fcbba4" d="M358.7,224.7c0,0,0.9-1.1,0.6-2.4c-0.7-3.2-2.8-11.2,2-12.2c4.8-1,7.3,10.4,7.3,10.4s8.1,1.3,11-6          c1.2-3,6.2-1,4.8,2.5c1.8-1.3,4.5,0.1,3.4,4.3c1.8-1.3,5.9,0.2,3.4,4.3c2.8-2,8.2,2.3-3.9,12.1c-5.7,3.7-11.3,4.7-12.7,4          C365.8,238.9,358.5,235.2,358.7,224.7z"/><path fill="#e2805d" d="M371.3,232c-0.1,0-0.2,0-0.2,0c-0.5-0.1-0.9-0.7-0.7-1.2c1.9-7.9-1.8-9.3-1.9-9.3          c-0.5-0.2-0.8-0.7-0.6-1.3c0.2-0.5,0.7-0.8,1.2-0.6c0.2,0.1,5.6,1.9,3.2,11.7C372.1,231.7,371.7,232,371.3,232z"/><path fill="#e2805d" d="M382.5,220.3c-0.4-0.3-0.5-1-0.2-1.4c0.9-1.1,1.2-2.1,1.2-2.2c0.2-0.5,0.8-0.8,1.3-0.6          c0.5,0.2,0.8,0.8,0.6,1.3c0,0.1-0.5,1.3-1.5,2.7C383.6,220.5,383,220.6,382.5,220.3z"/><path fill="#e2805d" d="M383.7,226.4c-0.3-0.4-0.2-1.1,0.2-1.4c2.3-1.6,3.1-4,3.1-4.1c0.2-0.5,0.8-0.8,1.3-0.6          c0.5,0.2,0.8,0.8,0.6,1.3c0,0.1-1.1,3-3.9,5C384.6,226.9,384,226.8,383.7,226.4z"/><path fill="#e2805d" d="M389.1,229.1c-0.4-0.4-0.5-1-0.1-1.4c1.1-1.3,1.6-2.6,1.6-2.6c0.2-0.5,0.8-0.8,1.3-0.6         c0.5,0.2,0.8,0.8,0.6,1.3c0,0.1-0.6,1.6-1.9,3.2C390.2,229.4,389.5,229.5,389.1,229.1z"/><path fill="#fff" d="M280.5,263.4c0.9,10.3-11.3,19.7-27.1,21.1s-29.5-5.8-30.3-16.1c-0.9-10.3,11.3-19.7,27.1-21.1        C266.1,245.9,279.6,253.1,280.5,263.4z"/></g><g><path fill="#fff" d="M322.8,274.7c-21.6,87.1-17.2,69.5-17.8,71.9c-0.7,2.9-3.3,5-6.2,5h-39.2c-3.6,0-6-3.3-5.1-6.9        c21.4-86.3,17.2-69.5,17.8-71.9c0.7-2.9,3.3-5,6.2-5h39.2C321.3,267.8,323.7,271.1,322.8,274.7z"/><path fill="#e1e5ff" d="M319.8,286.8L305,346.7c-0.7,2.9-3.3,5-6.2,5h-39.2c-3.6,0-6-3.3-5.1-6.9l1.9-7.6c1-0.3,2.1-0.5,3.1-0.6        c6.7-0.9,13.4,0,20.1-1.3c11.4-2.2,21.2-10.9,27.8-21c3.2-5,5.8-10.3,7.9-15.7C316.6,295.3,317.8,290.6,319.8,286.8z"/><path fill="#112544" d="M298.8,352.7h-39.2c-4.2,0-7.1-3.9-6.1-8.1l17.8-71.9c0.8-3.3,3.8-5.7,7.1-5.7h39.2        c4.2,0,7.1,3.9,6.1,8.1l0,0L306,346.9C305.1,350.2,302.1,352.7,298.8,352.7z M278.5,268.8c-2.4,0-4.6,1.8-5.2,4.2L255.5,345        c-0.7,3,1.2,5.7,4.1,5.7h39.2c2.4,0,4.6-1.8,5.2-4.2l17.8-71.9c0.7-3-1.2-5.7-4.1-5.7H278.5z M322.8,274.7L322.8,274.7        L322.8,274.7z"/><path fill="#ffc25e" d="M278.5,267.8c-2.8,0-5.4,2.1-6.2,5l-17.8,71.9c-0.9,3.6,1.5,6.9,5.1,6.9h-6.1c-3.6,0-6-3.3-5.1-6.9        l17.8-71.9c0.7-2.9,3.3-5,6.2-5H278.5z"/><path fill="#112544" d="M259.6,352.7h-6.1c-4.2,0-7.1-3.9-6.1-8.1l17.8-71.9c0.8-3.3,3.8-5.7,7.1-5.7h6.1c0.6,0,1,0.4,1,1        s-0.4,1-1,1c-2.4,0-4.6,1.8-5.2,4.2L255.5,345c-0.7,2.9,1.2,5.7,4.1,5.7c0.6,0,1,0.4,1,1S260.2,352.7,259.6,352.7z         M272.5,268.8c-2.4,0-4.6,1.8-5.2,4.2L249.4,345c-0.4,1.5-0.1,3,0.8,4.1c1.6,2.1,4,1.5,4.8,1.6c-1.4-1.6-2-3.8-1.5-6.1        l17.8-71.9c0.4-1.5,1.2-2.8,2.2-3.7H272.5z"/><path fill="#8d95ff" d="M301,293.7c-1,4.1-5.1,7.5-9.2,7.5c-4,0-6.5-3.3-5.4-7.5c1-4.1,5.1-7.5,9.2-7.5       C299.6,286.2,302,289.5,301,293.7z"/><path fill="#757bff" d="M301,293.7c-1,4.1-5.1,7.5-9.2,7.5c-2.8,0-4.8-1.6-5.4-3.9c0.9,0.6,2,0.9,3.3,0.9c4,0,8.1-3.3,9.2-7.5       c0.3-1.3,0.3-2.5,0-3.6C300.8,288.4,301.7,290.8,301,293.7z"/><path fill="#112544" d="M291.8,302.1c-4.8,0-7.6-4.1-6.4-8.7c1.1-4.5,5.7-8.2,10.1-8.2c4.7,0,7.6,4,6.4,8.7       C300.8,298.5,296.3,302.1,291.8,302.1z M295.6,287.2c-3.6,0-7.3,3-8.2,6.7c-0.9,3.6,1.2,6.2,4.4,6.2c3.6,0,7.3-3,8.2-6.7       c0.4-1.8,0.2-3.4-0.7-4.6C298.5,287.8,297.2,287.2,295.6,287.2z"/></g><g><path fill="#fcbba4" d="M238.8,327c1.8,3.2,23.3,3.8,23.6,0.2c0.1-1.7-5.4-1.8-6-2c3.5,0.2,9.6,0.7,9.6-1.6c0-1.8-5.7-2-6.7-2.3       c3.9,0.1,8.2,0.6,8.2-1.7c0-1.6-5.3-2.2-6.6-2.5c2.8,0,8.1,1.4,8.1-1c0-3.4-12.6-4.1-12.6-4.1l1.8-6.4c0,0-4.1-1.5-10.1,1.7       c-1.6,0.9-9.8,2.2-10.9,3.3C232.3,315.5,235.4,320.9,238.8,327z"/></g><g><path fill="#8d95ff" d="M242.3,330.3c0,0-84,17.2-93.4-26.1c-0.7-3.3-1.2-6.6-1.5-9.8c0,0,0,0,0,0c-4.4-53,50.4-85.8,50.4-85.8      l11.5,12.1c3.2,2.4,6.8,6.7,7.1,14.3c0.6,18.1-35,64.1-35,64.1c18.4-5.1,41.1,1.3,52.9,5.6c5,1.8,8,3.2,8,3.2      C239.6,313.3,239.7,324.4,242.3,330.3z"/></g><g><path fill="#757bff" d="M242.3,330.3c0,0-84,17.2-93.4-26.1c-0.7-3.3-1.2-6.6-1.5-9.8c1,6.9,5.3,13.2,10.9,17.1      c5.6,4,12.4,6,19,7.9c9,2.6,18,5.3,27.2,6.7c9.2,1.4,18.8,1.5,27.8-1c2-0.6,4.4-1.7,4.6-3.8c0.1-2.4-2.6-3.7-4.3-5.5      c-2.9-3-2.9-8.9,1.7-11.2c5,1.8,8,3.2,8,3.2C239.6,313.3,239.7,324.4,242.3,330.3z"/></g><g><path fill="#112544" d="M206.7,334.8c-13.6,0-28.5-1.7-40.1-7.5c-0.5-0.2-0.7-0.8-0.5-1.3s0.8-0.7,1.3-0.5      c24.5,12.2,65.9,5.4,73.4,4.1c-2.2-6.2-2.2-15.8,0-21.2c-5.6-2.4-36.1-14.8-59.3-8.4c-1,0.3-1.7-0.9-1-1.6      c0.4-0.4,35.8-41.1,35.2-58.7c-0.2-7.2-3.8-11.3-6.7-13.5c-0.4-0.3-0.5-1-0.2-1.4c0.3-0.4,1-0.5,1.4-0.2c3.3,2.4,7.2,7,7.5,15      c0.6,16-26,48.6-33.7,57.7c25.8-5.4,57.1,9,58.5,9.6c0.5,0.2,0.7,0.9,0.5,1.4c-2.5,5.1-2.5,15.8,0,21.7c0.3,0.6-0.1,1.2-0.7,1.4      C241.3,331.6,225.3,334.8,206.7,334.8z"/></g><g><path fill="#112544" d="M173.7,302.2c-0.3-0.5-0.1-1.1,0.3-1.4c2.2-1.3,4.6-2.3,7.2-2.8c0.5-0.1,1.1,0.3,1.2,0.8      c0.1,0.5-0.3,1.1-0.8,1.2c-2.4,0.5-4.6,1.3-6.5,2.5C174.6,302.8,174,302.7,173.7,302.2z"/></g><g><path fill="#112544" d="M283.7,190.3c-0.5-0.2-0.8-0.7-0.6-1.3c3.6-10.4,9.8-24.9,23-30.4c2.6-1.1,5.2-1.7,7.8-1.8      c4-7,10.8-12.9,19.3-16.4c19.8-8,53.6-3.3,72.4,6.2c12.5,6.3,22.2,15.9,27.4,27c0.2,0.5,0,1.1-0.5,1.3c-0.5,0.2-1.1,0-1.3-0.5      c-4.9-10.7-14.3-19.9-26.4-26c-18.4-9.3-51.5-13.9-70.8-6.2c-7.7,3.1-13.9,8.3-17.8,14.5c11.3,0.6,17.1,10.3,15,17.8      c-1.7,6.3-9.5,10.2-15.2,7.1c-7.1-3.8-7.3-14.3-3.3-22.8c-2,0.2-4,0.8-5.9,1.6c-9.4,4-16.4,13.3-21.9,29.2      C284.8,190.2,284.2,190.4,283.7,190.3z M315.1,158.7c-3.8,7.4-4.5,17.7,1.9,21.2c4.5,2.5,10.9-0.9,12.3-5.9      C331.1,167.6,325.9,158.7,315.1,158.7C315.1,158.7,315.1,158.7,315.1,158.7z"/></g><g><path fill="#112544" d="M431.8,175l-8.4-2.5c-0.5-0.2-0.8-0.7-0.7-1.2c0.2-0.5,0.7-0.8,1.2-0.7l7.4,2.2l2.3-7.4      c0.2-0.5,0.7-0.8,1.2-0.7c0.5,0.2,0.8,0.7,0.7,1.2l-2.5,8.4C432.9,174.8,432.3,175.1,431.8,175z"/></g><g><path fill="#fff" d="M438.7,623.3c0,0-22.9-28.3-8.1-37.6c10.9-6.9,25.5,8.6,25.5,8.6s-2.4-17.2,5.5-18.3      c7.9-1,18.5,10.8,18.5,10.8s-6.5-57.6,19.9-58.4c26.4-0.8,36.3,64.9,36.3,64.9s7.6-13.7,17.2-8.9c9.7,4.8,1.6,23.6,1.6,23.6      s13.5-14.5,21.6-9.3c7.8,5,1.8,24.6,1.8,24.6"/><path fill="#ccd2ff" d="M578.1,624.2c-0.5-0.2-0.8-0.7-0.7-1.2c1.6-5.3,4.4-19.8-1.4-23.5c-7.3-4.7-20.1,9-20.3,9.2      c-0.8,0.8-2.1-0.1-1.7-1.1c0.1-0.2,7.6-18-1.1-22.4c-8.7-4.3-15.9,8.4-15.9,8.5c-0.5,0.8-1.7,0.6-1.9-0.3      c-0.1-0.6-10-64.1-34.8-64.1c-0.2,0-0.3,0-0.5,0c-20,0.6-21.1,38-18.9,57.3c0.1,1-1.1,1.5-1.7,0.8c-0.1-0.1-10.3-11.4-17.6-10.4      c-5.5,0.7-5.4,11.8-4.6,17.1c0.1,1-1,1.5-1.7,0.8c-0.1-0.1-14.1-14.8-24.2-8.4c-10.8,6.9,0.4,26.3,8.4,36.1      c0.3,0.4,0.3,1.1-0.1,1.4c-0.4,0.3-1.1,0.3-1.4-0.1c-9.1-11.2-20.1-31.3-7.9-39.1c9.1-5.8,20.3,2.8,24.8,6.8      c-0.4-6.4,0.2-15.8,6.6-16.6c6.3-0.8,13.8,5.6,17.3,9c-1.7-21.1-0.1-56.1,21.1-56.7c24.2-0.7,34.7,50.7,36.9,63.2      c3.5-4.9,10-10.6,17.1-7.1c7.5,3.8,5.4,14.8,3.5,20.9c4.6-4.1,13.5-10.5,19.7-6.5c8.3,5.3,2.5,24.9,2.3,25.8      C579.2,624.1,578.6,624.4,578.1,624.2z"/><path fill="#ccd2ff" d="M535.5,591.9c0-0.3-2.1-34.1,20.9-69.6c0.3-0.5,0.9-0.6,1.4-0.3c0.5,0.3,0.6,0.9,0.3,1.4      c-22.7,34.9-20.6,68-20.6,68.4c0,0.6-0.4,1-0.9,1.1C536,592.9,535.5,592.5,535.5,591.9z"/><path fill="#ccd2ff" d="M472.7,623.3c0,0-10.8-13.4-3.8-17.8c5.1-3.3,12,4.1,12,4.1s-1.2-8.2,2.6-8.6c3.7-0.5,8.7,5.1,8.7,5.1      s-3.1-27.2,9.4-27.6c12.5-0.4,17.2,30.7,17.2,30.7s3.6-6.5,8.2-4.2c4.6,2.3,0.8,11.2,0.8,11.2s7.2-7.8,10.2-4.4s2,11.7,2,11.7      H472.7z"/><path fill="#ccd2ff" d="M573.9,515.2c-1.2,6.5-7.4,10.7-13.9,9.5c-6.5-1.2-10.7-7.4-9.5-13.9s7.4-10.7,13.9-9.5      C570.8,502.5,575.1,508.7,573.9,515.2z"/><path fill="#ccd2ff" d="M478.3,586.2c0-0.3-2-32.8-27.8-64.3c-0.3-0.4-0.3-1.1,0.1-1.4c0.4-0.3,1.1-0.3,1.4,0.1      c26.3,32.1,28.3,65.1,28.3,65.5c0,0.6-0.4,1-0.9,1C478.8,587.1,478.3,586.7,478.3,586.2z"/><path fill="#ccd2ff" d="M439.4,518c1.3,4.1,5.6,6.3,9.7,5.1c4.1-1.3,6.3-5.6,5.1-9.7c-1.3-4.1-5.6-6.3-9.7-5.1      C440.4,509.6,438.1,513.9,439.4,518z"/></g><g><path fill="#ccd2ff" d="M586.7,624.3H404.8c-0.6,0-1-0.4-1-1s0.4-1,1-1h181.9c0.6,0,1,0.4,1,1S587.3,624.3,586.7,624.3z"/></g></svg>