<svg xmlns="http://www.w3.org/2000/svg" viewBox="0 0 192 108"><path fill="#fff" d="M0 0h192v108H0z"/><path fill="#f2702e" d="M28.477 51.997c.586 1.208 8.909 18.076 9.018 19.177.108 1.101-.621 11.134-6.102 12.514-5.48 1.378-11.56-.09-8.772-2.855 2.789-2.767 2.914-8.479 2.914-8.479l-4.296-8.963 7.238-11.394z"/><path fill="#f28f5d" d="M35.426 49.263c.612 1.255 9.302 18.745 9.408 19.892.107 1.145-.746 11.607-6.569 13.099-5.823 1.492-10.927 1.545-7.95-1.367 2.978-2.909 3.566-11.115 3.566-11.115l-6.22-8.564 7.765-11.945z"/><path fill="#f49d60" d="M39.644 53.24S24.185 69.964 15.58 69.599c-2.423-3.312-11.267-4.139-11.531-4.983-1-3.19 23.699-22.661 27.699-25.454 7.358-5.139 17.369.67 23.433 13.311 6.064 12.643-.33 29.695-.33 29.695-1.738.977-5.074-1.344-9.296-5.667 1.758-12.542-5.969-22.266-5.911-23.261z"/><path fill="#343829" d="m35.804 83.298-4.787-45.395c-.507-4.804 2.989-9.124 7.793-9.631l107.755-11.363c4.804-.507 9.124 2.989 9.632 7.793l4.787 45.395c.507 4.803-2.989 9.124-7.793 9.631L45.435 91.091c-4.804.507-9.124-2.989-9.631-7.793z"/><path fill="#ffce00" d="m141.715 19.277 6.239 59.15L48.91 88.874l-6.239-59.15z"/><path fill="#a2a49d" d="M41.788 78.494a1.845 1.845 0 1 0-.387-3.67 1.845 1.845 0 0 0 .387 3.67zm-.729-24.495 1.209 11.463a1.85 1.85 0 0 1-1.641 2.028 1.85 1.85 0 0 1-2.028-1.641L37.39 54.385a1.85 1.85 0 0 1 1.641-2.027 1.85 1.85 0 0 1 2.028 1.641z"/><path fill="#83867d" d="m148.648 54.243-1.21-11.464a1.85 1.85 0 0 1 1.641-2.028l1.835-.193a1.85 1.85 0 0 1 2.027 1.641l1.21 11.463a1.85 1.85 0 0 1-1.641 2.027l-1.835.194a1.848 1.848 0 0 1-2.027-1.64z"/><defs><path id="a" d="M65.573 4.276h59.479v99.593H65.573z" transform="rotate(83.979 95.311 54.074)"/></defs><clipPath id="b"><use href="#a" overflow="visible"/></clipPath><g fill="#fff" clip-path="url(#b)"><path d="M.501 78.032 152.273-40.311l6.257 8.025L6.76 86.057zM21.542 140.862 173.314 22.52l10.744 13.778L32.286 154.641zM16.82 134.807 168.592 16.464l3.07 3.937L19.888 138.743z" opacity=".7"/></g><defs><path id="c" d="M0 0h192v108H0z"/></defs><clipPath id="d"><use href="#c" overflow="visible"/></clipPath><g clip-path="url(#d)"><path fill="#ffb681" d="M46.464 25.008c-1.51 3.044-18.24 17.088-19.392 21.696s-.042 21.885.923 26.596a4.897 4.897 0 0 0 1.198 2.367c.08.097.17.189.268.279.2.188.316.391.353.597.576 3.354-19.759 8.458-32.312 8.645a605.203 605.203 0 0 0-1.781-6.624c-.224-.843-.445-1.656-.657-2.423 7.17-6.372 13.63-29.062 21.832-37.309 6.601-6.647 24.309-22.731 26.688-22.08 3.938 1.078 4.39 5.212 2.88 8.256z"/><path fill="#ffb681" d="M59.52 87.984c3.264 2.496 3.942 13.771-3.368 12.366-6.456-1.241-9.663-3.849-11.505-4.012-.403-.036-.26-.485-5.161-.164-4.914.316-19.176 6.54-28.8 1.385-3.417-3.357-11.381 3.016-14.911 4.25-.643-2.841 2.665-13.047 1.726-16.62a605.203 605.203 0 0 0-1.781-6.624c5.806-1.235 20.405-6.493 31.108-10.475.128 1.599.454 3.425 1.166 5.211a12.748 12.748 0 0 0 1.819 3.244c2.251 2.91 5.322 7.793 11.85 8.177 3.091.182 5.641 1.824 9.408 1.728.669-.02 6.612.129 8.449 1.534z"/><path fill="#f28f5d" d="M40.634 87.946s2.392 2.872.089 6.884c0 0 .655-5.032-.089-6.884z"/><path fill="#f28f5d" d="M39.564 87.548s2.307 2.409-.091 5.922c0 0 .783-4.348.091-5.922z"/><path fill="#ffcaa3" d="M58.311 89.442s-1.393 6.798-.393 9.568c0 0-6.242-1.418-7.518-3.545-1.275-2.127.885-6.724 7.911-6.023z"/><path fill="#ffd6b8" d="m42.069 16.772 1.645 1.567s-4.998 4.847-8.249 4.82c-3.251-.027 6.604-6.387 6.604-6.387z"/></g><path fill="#f4401d" d="M108.427 52.364c.816 7.944-4.963 15.046-12.907 15.863-7.945.816-15.047-4.962-15.863-12.907-.816-7.945 4.962-15.047 12.907-15.863 7.945-.816 15.047 4.963 15.863 12.907z"/><path fill="#fff" d="m100.316 52.358-10.633-4.764a.965.965 0 0 0-1.354.978l1.191 11.591a.966.966 0 0 0 1.524.683l9.443-6.827a.964.964 0 0 0-.171-1.661z"/><path fill="red" d="M68.203 83.381c.335-.784.4-1.609.474-2.445L53.18 82.527a1.233 1.233 0 0 0 .264 2.452l14.733-1.513c.008-.028.013-.056.026-.085z"/><path fill="#fff" d="M143.542 74.197a1.233 1.233 0 0 0-1.358-1.094L70.23 80.777v.041c-.079.835-.141 1.673-.371 2.476l72.588-7.739a1.234 1.234 0 0 0 1.095-1.358z"/><path fill="red" d="M71.801 81.773a2.495 2.495 0 1 1-4.962.534 2.495 2.495 0 0 1 4.962-.534z"/><path fill="#fff" d="M138.04 27.927a1.12 1.12 0 1 0-.018-2.185.844.844 0 0 0-.066-.308.817.817 0 0 0-.124-.198 1.12 1.12 0 1 0-1.402-1.731 1.117 1.117 0 0 0-.155.198.846.846 0 0 0-.264-.171.839.839 0 0 0-.228-.053 1.12 1.12 0 1 0-2.185.018.844.844 0 0 0-.308.066.817.817 0 0 0-.198.124 1.12 1.12 0 1 0-1.731 1.402c.061.061.128.111.198.155a.846.846 0 0 0-.171.264.839.839 0 0 0-.053.228 1.12 1.12 0 1 0 .018 2.185.844.844 0 0 0 .066.308.817.817 0 0 0 .124.198 1.12 1.12 0 1 0 1.402 1.731c.061-.061.111-.128.155-.198.075.071.163.13.264.171.075.03.151.045.228.053a1.12 1.12 0 1 0 2.185-.018.844.844 0 0 0 .308-.066.837.837 0 0 0 .198-.124 1.12 1.12 0 1 0 1.731-1.402 1.117 1.117 0 0 0-.198-.155.846.846 0 0 0 .171-.264.847.847 0 0 0 .053-.228zm-3.352.842a1.937 1.937 0 1 1 0-3.873 1.937 1.937 0 0 1 0 3.873zm-24.218-2.425a1.233 1.233 0 0 0-1.372-1.076l-61.845 6.984a1.233 1.233 0 1 0 .296 2.448l61.845-6.984a1.233 1.233 0 0 0 1.076-1.372z"/><defs><path id="e" d="M0 0h192v108H0z"/></defs><clipPath id="f"><use href="#e" overflow="visible"/></clipPath><g clip-path="url(#f)"><path fill="#634027" d="m207.905 104.807-.8-12.513s-16.44-42.947-25.298-26.594c-5.427-3.754-12.052-6.626-12.901.916-.09.35-.11.681-.101 1.078-3.351-2.91-7.172-3.789-9.989 2.639a25.942 25.942 0 0 0-1.159 3.141c-6.991-9.92-17.254-23.07-21.79-21.885-3.761.983-6.775 4.228-4.541 7.895 1.463 2.401 3.218 4.811 3.723 5.692.123.214.255.421.395.625l23.527 34.399s-19.36-1.315-21.784 5.773c-.725 2.119.41 3.237 2.512 3.861l.007.139s7.524 1.431 9.238.801c3.927.187 7.837.472 10.004 1.835 5.816 3.66 17.777 9.485 20.97 8.491 3.193-.994 6.692 4.466 6.692 4.466l23.147-17.735-1.852-3.024z" opacity=".7"/><path fill="#ffb681" d="m205.777 104.02.247-12.536s-13.491-46.559-23.801-27.241c-10.309 19.319 7.543 5.131 7.543 5.131s-17.208-19.623-19.685-6.568c-2.478 13.055 6.439 11.687 6.439 11.687s-9.358-22.63-16.783-8.925c-7.425 13.705 4.783 14.166 4.783 14.166S145.774 43.7 138.432 44.976c-3.83.666-7.104 3.648-5.184 7.488 1.258 2.515 2.805 5.063 3.235 5.983.105.224.219.441.342.655L157.4 95.344s-19.183-2.926-22.189 3.935c-3.007 6.86 15.64 4.298 21.131 8.429 5.491 4.132 16.924 10.935 20.188 10.211 3.265-.724 6.296 5.009 6.296 5.009l24.546-15.742-1.595-3.166z"/><path fill="#f49d60" d="M158.386 68.525c.276-.568.576-1.343.828-1.736.316 1.878 8.974 15.772 15.111 24.883-5.662-6.208-16.479-22.038-15.939-23.147zm11.522-4.707c.037-.675.136-1.148.523-1.806.316 1.878 5.603 9.639 11.741 18.75-5.662-6.209-12.306-16.169-12.264-16.944zm13.393-.812c-.078-.252.188-.763.639-1.057.665 2.008 2.398 5.528 8.535 14.638-5.661-6.207-9.079-13.272-9.174-13.581z"/><path fill="#ffcaa3" d="m134.355 51.011 5.909-4.806s3.973 5.151 2.674 8.091c-1.297 2.938-5.456 2.613-8.583-3.285z"/><path fill="#ffd6b8" d="m137.386 103.475.08-2.29s7.005.523 9.162 2.992c2.158 2.471-9.242-.702-9.242-.702z"/></g></svg>