<svg xmlns="http://www.w3.org/2000/svg" enable-background="new 0 0 750 750" viewBox="0 0 750 750"><path fill="#ccd2ff" d="M162.1,604.2l-15.1-45.2c-1.7-4.9,2.6-10,8.8-10h26.6c2.8,0,5.2-1.7,5.6-4l7.8-51c0.6-3.9,4.5-6.8,9-6.8       h45.5c2.7,0,5-1.5,5.5-3.7l8.2-32.8c0.9-3.6,4.6-6.2,8.9-6.2h12.5c5.2,0,9.7,3.9,9,8.8l-11.8,83.3c-0.3,2.3,2,4.1,4.6,4.1h89.7       c5,0,9.1,3.5,9.1,7.8v23.2c0,1.6,1.6,2.9,3.6,2.9h21.1c2,0,3.6-1.3,3.6-2.9v-10.2c0-1.7,0.7-3.4,1.9-4.8       c5.1-4.8,6.8-10.1,13.6-10.1H507v-22.7c0-4.3,4.1-7.8,9.1-7.8h29.3c5,0,9.1,3.5,9.1,7.8v38.4c0,3.2,3.2,5.8,7.1,5.8h10       c3.9,0,7.1-2.6,7.1-5.8v-2c0-4.3,4.1-7.8,9.1-7.8h8.4c5,0,9.1,3.5,9.1,7.8v43.6c0,0.6-0.4,1-1,1s-1-0.4-1-1v-43.6       c0-3.2-3.2-5.8-7.1-5.8h-8.4c-3.9,0-7.1,2.6-7.1,5.8v2c0,4.3-4.1,7.8-9.1,7.8h-10c-5,0-9.1-3.5-9.1-7.8v-38.4       c0-3.2-3.2-5.8-7.1-5.8h-29.3c-3.9,0-7.1,2.6-7.1,5.8v23.7c0,0.6-0.4,1-1,1h-78.3c-5.6,0-6.9,4.4-12.1,9.5       c-0.9,1-1.4,2.2-1.4,3.5v10.2c0,2.7-2.5,4.9-5.6,4.9h-21.1c-3.1,0-5.6-2.2-5.6-4.9v-23.2c0-3.2-3.2-5.8-7.1-5.8h-89.7       c-3.9,0-7.1-2.9-6.6-6.4l11.8-83.3c0.5-3.7-3.2-6.5-7.1-6.5h-12.5c-3.4,0-6.3,2-7,4.7l-8.2,32.8c-0.8,3-3.8,5.2-7.4,5.2h-45.5       c-3.6,0-6.6,2.2-7.1,5.1l-7.8,51c-0.5,3.3-3.7,5.7-7.5,5.7h-26.6c-4.5,0-8.2,3.5-6.9,7.4l15.1,45.2c0.2,0.5-0.1,1.1-0.6,1.3       C162.8,605,162.2,604.8,162.1,604.2z"/><path fill="#fcbba4" d="M351,205.1c0,0-20.2-7.3-22.2-3.3c-1.7,3.5,5.4,6.2,10.4,8.1c-2.5-0.4-12.2-4.3-13.3-1.1        c-1.4,4.1,6.3,6.1,13.3,8.4c-1.8-0.2-12.1-3.7-13.3-0.4c-1.6,4.1,9.5,7.3,15.9,9.3c-1.2,0-10.9-3.5-11.9-0.5        c-1.9,5.7,31.9,16.5,34.2,13c9.6-14.8,15.8-19.3,3.3-33.2"/><path fill="#ffc25e" d="M444.4,587.3c1.8,6.6,3.4,13.8,4.4,20.3c0.9,6.1,1.2,11.7,0.4,15.5c-0.9,4.4-4.8,7.5-9.3,7.4         c-18.4-0.4-65.1-2.5-65.7-7.7c-1-8.8,11.5-14.5,20.2-17.6c4.1-1.5,7.4-4.3,9.6-7.9c1.2-2,2-4.2,2.4-6.6L444.4,587.3z"/><path fill="#efa130" d="M444.4,587.3c1.8,6.6,3.4,13.8,4.4,20.3c-14.6,7.1-34.2-3.4-44.7-10.4c1.2-2,2-4.2,2.4-6.6L444.4,587.3z         "/><path fill="#112544" d="M425.2,625.3c-22.8,0-44.4-5.2-44.7-5.3c-0.5-0.1-0.9-0.7-0.7-1.2c0.1-0.5,0.7-0.9,1.2-0.7         c0.4,0.1,36,8.7,63.8,3.6c0.5-0.1,1.1,0.3,1.2,0.8c0.1,0.5-0.3,1.1-0.8,1.2C438.7,624.9,431.9,625.3,425.2,625.3z"/><path fill="#112544" d="M399.4,606l-3.5-3.2c-0.4-0.4-0.4-1-0.1-1.4s1-0.4,1.4-0.1l3.5,3.2c0.4,0.4,0.4,1,0.1,1.4         C400.5,606.4,399.8,606.4,399.4,606z"/><path fill="#112544" d="M395.8,608.6l-3.5-3.2c-0.4-0.4-0.4-1-0.1-1.4c0.4-0.4,1-0.4,1.4-0.1l3.5,3.2c0.4,0.4,0.4,1,0.1,1.4         C396.8,609,396.2,609,395.8,608.6z"/><path fill="#112544" d="M403,603.4l-3.5-3.2c-0.4-0.4-0.4-1-0.1-1.4s1-0.4,1.4-0.1l3.5,3.2c0.4,0.4,0.4,1,0.1,1.4        C404.1,603.8,403.4,603.8,403,603.4z"/><path fill="#fc6054" d="M533,339.5c-4.7,50.8-42.7,118.9-58.6,145.4c-13.8,23-17.8,105.9-17.8,105.9c-1.1,10-51.9,10.4-59.3,2       c-0.7-0.8-1-1.6-0.9-2.5c0,0,4.7-96.8,14-126.2c9.6-30.2,30.4-73.3,44.1-100.3c7.6-15,13-25.1,13-25.1L533,339.5z"/><path fill="#e64b38" d="M533,339.5c-4.7,50.8-42.7,118.9-58.6,145.4c-13.8,23-17.8,105.9-17.8,105.9c-1.1,10-51.9,10.4-59.3,2       c3.2-1.9,6.5-3.5,9.6-5.5c12.9-8.5,20.4-23.3,24.5-38.2c4.1-14.9,5.6-30.5,9.8-45.4c10.7-38.2,38.5-69.8,49.4-107.9       c1.7-5.8,2.9-11.9,2.1-17.8c-0.8-6-4-11.9-9.3-14.7c-8.8-4.6-19.3,0.3-28.8,0.5c7.6-15,13-25.1,13-25.1L533,339.5z"/><path fill="#ffc25e" d="M558.2,582.1c3.2,6,6.4,12.7,8.8,18.8c2.2,5.8,3.8,11.1,3.8,15c0.1,4.5-3,8.4-7.4,9.3         c-18.1,3.7-64.1,11.8-65.8,6.9c-2.9-8.4,8.1-16.6,15.9-21.6c3.7-2.3,6.3-5.8,7.6-9.8c0.7-2.2,1.1-4.6,0.9-7L558.2,582.1z"/><path fill="#efa130" d="M558.2,582.1c3.2,6,6.4,12.7,8.8,18.8c-12.7,10.1-34.2,4.2-45.9-0.3c0.7-2.2,1.1-4.6,0.9-7L558.2,582.1z         "/><path fill="#112544" d="M503.1,628.1c-0.6,0-1-0.5-1-1c0-0.6,0.4-1,1-1c0.4,0,37,0.6,63-10.5c0.5-0.2,1.1,0,1.3,0.5         c0.2,0.5,0,1.1-0.5,1.3C548.7,625.2,523.1,628.1,503.1,628.1z"/><path fill="#112544" d="M518.5,610.3l-4.2-2.4c-0.5-0.3-0.6-0.9-0.4-1.4c0.3-0.5,0.9-0.6,1.4-0.4l4.2,2.4         c0.5,0.3,0.6,0.9,0.4,1.4C519.6,610.4,518.9,610.5,518.5,610.3z"/><path fill="#112544" d="M515.5,613.6l-4.2-2.4c-0.5-0.3-0.6-0.9-0.4-1.4s0.9-0.6,1.4-0.4l4.2,2.4c0.5,0.3,0.6,0.9,0.4,1.4         C516.6,613.7,516,613.9,515.5,613.6z"/><path fill="#112544" d="M521.4,606.9l-4.2-2.4c-0.5-0.3-0.6-0.9-0.4-1.4c0.3-0.5,0.9-0.6,1.4-0.4l4.2,2.4        c0.5,0.3,0.6,0.9,0.4,1.4C522.5,607,521.9,607.2,521.4,606.9z"/><path fill="#fc6054" d="M504.8,339.5c0,0-24.4,83.3-22.8,132.6c1,30.8,28.9,123.6,28.9,123.6c2.5,10.6,59.4-9,56.9-19.6        c0,0-24.4-79.6-18.6-105.8c6.4-28.8,33-79,17.6-130.7H504.8z"/><path fill="#112544" d="M481,472.1c-1.6-48.8,22.6-132,22.8-132.9c0.2-0.5,0.7-0.8,1.2-0.7c0.5,0.2,0.8,0.7,0.7,1.2        c-0.2,0.8-24.3,83.7-22.7,132.3c0,0.6-0.4,1-1,1C481.6,473.1,481,472.7,481,472.1z"/><path fill="#fff" d="M588.4,390.3l-8.1,19.8c-1.4,3.4-5.2,5-8.6,3.6c-2.3-1,12.4,5-48.1-19.5c-3.4-1.4-5-5.2-3.6-8.6l8.1-19.8        c1.4-3.4,5.2-5,8.6-3.6l48.1,19.5c1.2,0.5,2.2,1.3,2.9,2.3c0,0,0,0,0,0C589,385.7,589.3,388.1,588.4,390.3z"/><path fill="#e1e5ff" d="M588.4,390.3l-8.1,19.8c-1.4,3.4-5.2,5-8.6,3.6l-46.4-18.9c2.1-1,5.4-0.8,7.7-1.1        c5.5-0.8,10.3,3.1,15.1,5c5.2,2,17,4.4,22.2,2.6c5.2-1.9,9.7-5.7,12.4-10.5c1.4-2.4,2.4-5.4,5-6.8c0,0,0,0,0,0        C589,385.7,589.3,388.1,588.4,390.3z"/><path fill="#112544" d="M574.2,415.2c-2.7,0-1.1-0.1-51-20.1c-3.9-1.6-5.8-6.1-4.2-9.9l8.1-19.8c1.6-3.9,6.1-5.8,9.9-4.2        l48.1,19.5c3.9,1.6,5.8,6,4.2,9.9l0,0l-8.1,19.8C580.1,413.4,577.2,415.2,574.2,415.2z M529,366.1l-8.1,19.8        c-1.2,2.9,0.2,6.2,3.1,7.3l48.1,19.5c2.9,1.2,6.2-0.2,7.3-3.1l8.1-19.8c1.2-2.9-0.2-6.2-3.1-7.3L536.3,363        C533.5,361.9,530.2,363.2,529,366.1z M588.4,390.3L588.4,390.3L588.4,390.3z"/><path fill="#112544" d="M541.7,380.5c0,2.7-2.2,4.8-4.8,4.8c-2.7,0-4.8-2.2-4.8-4.8c0-2.7,2.2-4.8,4.8-4.8        C539.5,375.7,541.7,377.8,541.7,380.5z"/><path fill="#8d95ff" d="M538.5,380.5c0,0.9-0.7,1.6-1.6,1.6c-0.9,0-1.6-0.7-1.6-1.6c0-0.9,0.7-1.6,1.6-1.6        C537.8,378.9,538.5,379.6,538.5,380.5z"/><path fill="#8d95ff" d="M570.1,341.7c0,0-27.7,17.9-57.6,5c-29.9-12.9-44.8,9.2-50.7,3.8c-7.9-7.1,8.6-26.4,0.8-51.3       c-7.8-24.9-16.6-94.8,57.1-94.8C598.5,204.4,578.7,257.9,570.1,341.7z"/><path fill="#757bff" d="M578.1,272.7c-1.5,19.6-5.3,42.8-8,69c0,0-27.7,17.9-57.6,5c-29.9-12.9-44.8,9.2-50.7,3.8       c-3.5-3.2-2.2-8.8-0.3-16.3c11.7-3.7,24.5-0.3,36.4,1.8c12.4,2.2,25.4,3.2,37.6,0.1s23.8-10.7,29.4-22       c4.1-8.5,4.5-18.1,3.9-27.5c-0.2-3.2-1.9-8.3-0.6-11.4C569.7,271.6,573.9,271.5,578.1,272.7z"/><path fill="#8d95ff" d="M517.3,204.4l-5.7,20.2c0,0-14.7,71.4-77.4,73.4h-0.1c-48.4,1.5-76.3-59.3-76.3-59.3       c7.7-6,14.7-15.7,15-25c0,0,4.5,1.8,11.6,5.6c11.5,6.2,29.8,17.4,46.2,34.2C430.6,253.4,456.4,198.5,517.3,204.4z"/><path fill="#757bff" d="M434.2,297.9c-48.4,1.5-76.3-59.3-76.3-59.3c7.7-6,14.7-15.7,15-25c0,0,4.5,1.8,11.6,5.6       c-1.2,2.9-3.1,5.6-5.1,7.1c-3.7,2.9-8.3,4.9-10.9,8.8c-3.3,4.8-2.7,11.5,0,16.7c2.7,5.2,7.2,9.2,11.7,13       C396.3,278.6,414,291.8,434.2,297.9z"/><path fill="#fcbba4" d="M537.1,170.7c-0.3,0,0.4,34.6,0.4,34.6c1.4,9.3-13.1,10.6-24.4,4.1c-2.8-1.6-5.5-3.3-5-6.5l1.2-7.7       c-3.1,0.2-6.3,0.1-9.7-0.3c-21.2-2.5-5.8-45.1-0.7-52.3c5.2-7.3,28.9-8,34.2-7.4c5.3,0.7,2.2,23.1,2.2,23.1s4.5-4.6,7.7,0.4       C546.8,164.6,537.4,170.7,537.1,170.7z"/><path fill="#112544" d="M512.6,210.3c-2.6-1.5-6.1-3.5-5.5-7.5c0.1-0.5,0.6-0.9,1.1-0.8c0.5,0.1,0.9,0.6,0.8,1.1       c-0.4,2.5,1.6,3.8,4.5,5.5c10,5.8,24.2,5.4,22.9-3.1c-0.1-0.5,0.3-1.1,0.8-1.1c0.5-0.1,1.1,0.3,1.1,0.8       C540,215.6,524.4,217.1,512.6,210.3z"/><path fill="#e2805d" d="M589.1,372.4c3.4,2.3-7.9,36-13.6,33.9c-3-1.1,0.6-10.6,0.7-11.9c-2.1,6.4-5.5,17.4-9.6,15.7        c-3.2-1.3,0.4-11.5,0.6-13.3c-2.5,7-4.5,14.6-8.6,13.2c-3.2-1.1,0.9-10.7,1.3-13.2c-2,4.9-4.8,12-8.3,10.2c-4-2,9-34.9,9-34.9        l-8.5-3.5c0,0,2.4-3.3,6.3-4.8C569.2,360,574.4,362.7,589.1,372.4z"/><path fill="#8d95ff" d="M589.6,374.2c-7.3-7.5-15.6-12-25.6-11.4c0,0,0.2-8.9,2.8-21.2c3-14.1,9.2-32.8,22-47.9       c0,0-62.4-40.8-40.5-68l1.4-17.5c0,0,67.1,14.2,77.5,68.6v0c0.8,4,1.2,8.2,1.3,12.6C629.7,338,589.6,374.2,589.6,374.2z"/><path fill="#112544" d="M534.7,163.6l7.7,4.7c0,0,31.5-32.3-15.1-42.4c-19.8-4.3-49.7-10.8-35.5,16.6c0,0-12.4,2.6,0.1,18       c0.7-2.6,1.6-5.4,2.6-8.2c0,0,11.5,9.4,33.5,1c0,0-3.3,9.2,4.5,10.8L534.7,163.6z"/><path fill="#112544" d="M495.7,166.5c0,1,0.8,1.8,1.8,1.8c1,0,1.8-0.8,1.8-1.8c0-1-0.8-1.8-1.8-1.8       C496.5,164.7,495.7,165.5,495.7,166.5z"/><path fill="#112544" d="M493.8,160.1c-0.2,1.1,2,1,4.8,1.6c2.8,0.5,5.1,1.4,5.3,0.3c0.2-1.1-1.9-2.4-4.7-2.9       C496.5,158.6,494,159,493.8,160.1z"/><path fill="#112544" d="M511.5,169.2c0,1,0.8,1.8,1.8,1.8c1,0,1.8-0.8,1.8-1.8c0-1-0.8-1.8-1.8-1.8       C512.3,167.4,511.5,168.2,511.5,169.2z"/><path fill="#112544" d="M509.7,162.8c-0.2,1.1,2,1,4.8,1.6c2.8,0.5,5.1,1.4,5.3,0.3c0.2-1.1-1.9-2.4-4.7-2.9       C512.3,161.2,509.9,161.7,509.7,162.8z"/><ellipse cx="536.8" cy="168.9" fill="#fcbba4" rx="8.5" ry="6.2" transform="rotate(-77.661 536.853 168.894)"/><path fill="#e2805d" d="M500.2,174.3c-1.1-2.5,3.4-6.8,5.3-8.5c0.4-0.4,1-0.3,1.4,0.1c0.4,0.4,0.3,1-0.1,1.4       c-3.1,2.7-5.1,5.6-4.8,6.2c0,0,0.4,0.4,2.5,0.2c0.6-0.1,1,0.3,1.1,0.9s-0.3,1-0.9,1.1C503.1,175.8,500.9,175.8,500.2,174.3z"/><path fill="#e2805d" d="M496.6,182c-0.3-0.5-0.1-1.1,0.3-1.4c0.5-0.3,1.1-0.1,1.4,0.3c1.5,2.4,4.8,1.5,7.3-0.3       c0.4-0.3,1.1-0.2,1.4,0.2c0.3,0.4,0.2,1.1-0.2,1.4C502.1,185.7,498.2,184.6,496.6,182z"/><path fill="#e2805d" d="M536.1,170.9c-0.5-0.2-0.8-0.7-0.6-1.3l0.7-2.2c0.2-0.5,0.7-0.8,1.3-0.6c0.5,0.2,0.8,0.7,0.6,1.3       l-0.7,2.2C537.2,170.8,536.6,171.1,536.1,170.9z"/><path fill="#e2805d" d="M509.3,195.2c0,0,4.8-0.1,11.6-4.7c0.8-0.5,1.8,0.2,1.5,1.1c-0.8,3.4-3.7,9.2-14,9L509.3,195.2z"/><path fill="#757bff" d="M589.6,374.2c-7.3-7.5-15.6-12-25.6-11.4c0,0,0.2-8.9,2.8-21.2c3.9,1,7.1,5.8,8.5,9.3       c1.2,3.2,2.3,6.6,4.7,9.1c4.7,4.8,12.9,4.1,18.4,0.3c5.4-3.9,8.6-10.1,11.4-16.2c9.4-21.3,15.6-44.1,17.6-67.3       c0.8,4,1.2,8.2,1.3,12.6C629.7,338,589.6,374.2,589.6,374.2z"/><path fill="#112544" d="M588.9,374.9c-7.9-8-16-11.7-24.8-11.1c-0.6,0-1.1-0.5-1.1-1c0-0.4,1.1-40.5,24.3-68.8       c-5.8-3.9-35.8-25.1-43.1-46.5c-0.2-0.5,0.1-1.1,0.6-1.3c0.5-0.2,1.1,0.1,1.3,0.6c7.7,22.6,42.9,45.8,43.2,46.1       c0.5,0.3,0.6,1,0.2,1.5c-21.3,25.3-24.2,60.8-24.5,67.4c9-0.3,17.3,3.6,25.3,11.7c0.4,0.4,0.4,1,0,1.4       C589.9,375.3,589.2,375.3,588.9,374.9z"/><path fill="#112544" d="M461.2,351.2c-8.7-7.8,8.3-26.8,0.5-51.8c-5.8-18.6-8.7-47.8,2.6-68.6c0.3-0.5,0.9-0.7,1.4-0.4       c0.5,0.3,0.7,0.9,0.4,1.4c-10.9,20.3-8.1,48.8-2.4,67c7.8,24.8-8.2,44.5-1.1,50.9c4.8,4.4,20.6-16.9,50.4-4       c23,9.9,44.7,1.3,53-2.8c0.5-0.3,1.1-0.1,1.3,0.4s0.1,1.1-0.4,1.3c-8.5,4.3-30.9,13.2-54.7,2.9       C482.2,334.5,468.1,357.4,461.2,351.2z"/><path fill="#fff" d="M366.1,418.7H203.2c-15.6,0-30.6-12.6-33.6-28.2c-1.4-7.5-44.7-234.6-46.7-244.9         c-3-15.6,7.3-28.2,22.8-28.2h162.9c15.6,0,30.6,12.6,33.6,28.2c1.9,10,44.6,234.2,46.7,244.9         C391.9,406.1,381.7,418.7,366.1,418.7z"/><path fill="#e1e5ff" d="M366.1,418.7H203.2c-15.6,0-30.6-12.6-33.6-28.2l-2.1-10.7c20.5,3.9,152,69.7,190.7-18.9         c8.3-19.1,7.9-41.1,2.3-101c-1.3-13.8-2.8-27.5-4.5-41.2c-1.2-9.4-4.7-20.9-5.7-31.4l38.7,203.2         C391.9,406.1,381.7,418.7,366.1,418.7z"/><path fill="#e1e5ff" d="M159.1,142.3c1,5.5-2.5,9.9-8,9.9c-5.5,0-10.7-4.4-11.8-9.9c-1-5.5,2.5-9.9,8-9.9         C152.8,132.5,158,136.9,159.1,142.3z"/><path fill="#ccd2ff" d="M159.1,142.3c1,5.5-2.5,9.9-8,9.9c-3.1,0-6.1-1.4-8.3-3.6c1.5,0.7,3,1.1,4.7,1.1c8.4,0,11-9.8,4.6-16.2         C155.5,135.2,158.3,138.5,159.1,142.3z"/><path fill="#112544" d="M366.1,419.7H203.2c-16,0-31.5-13-34.6-29l-46.7-244.9c-3.1-16.3,7.7-29.4,23.8-29.4h162.9         c16,0,31.5,13,34.6,29l0,0l46.7,244.9C393,406.6,382.2,419.7,366.1,419.7z M145.8,118.3c-15.1,0-24.7,12.2-21.9,27         l46.7,244.9c2.9,15.1,17.5,27.4,32.6,27.4h162.9c15.1,0,24.7-12.2,21.9-27l-46.7-244.9c-2.9-15.1-17.5-27.4-32.6-27.4H145.8z         "/><path fill="#e1e5ff" d="M183.9,211.9c6.4,33.8,39.1,61.3,73,61.3c33.8,0,56-27.4,49.6-61.3c-6.4-33.8-39.1-61.3-72.9-61.3           C199.7,150.6,177.5,178,183.9,211.9z"/><path fill="#ccd2ff" d="M306.5,211.9c6.4,33.8-15.7,61.3-49.6,61.3c-16.6,0-33-6.6-46.1-17.4c10.8,6.2,22.9,9.8,35.1,9.8           c33.8,0,56-27.4,49.6-61.3c-3.3-17.2-13.3-32.8-26.9-43.9C287.6,171.3,302.4,190.3,306.5,211.9z"/><path fill="#fc6054" d="M272.8,270.9c10.2-3,18.5-8.8,24.4-16.3c-14.9-9.6-28.4-11.2-28.4-11.2l0,0L272.8,270.9z"/><path fill="#fc6054" d="M210.5,255.5c19.8,16.5,43.7,20.9,62.4,15.5c8.1-2.3,15-6.5,20.6-12c-5-6.6-11.1-11.7-18.6-13.9           c-2-0.6-4-1.1-6-1.6C243,237.5,221.5,242.4,210.5,255.5z"/><path fill="#fcbba4" d="M253.9,218.1c0,0-3.3,12,6.1,23.7c3.3,11.4-26.6,11.8-29.1,1.6c0,0-2.6-15.1-8.1-25.6L253.9,218.1z"/><path fill="#112544" d="M229.9,243.7c-0.1-0.5,0.2-1.1,0.7-1.2c0.5-0.1,1.1,0.2,1.2,0.7c2.2,9,30,8.8,27.2-1.1           c-0.2-0.5,0.2-1.1,0.7-1.2c0.5-0.1,1.1,0.2,1.2,0.7C264.7,254.5,232.7,255.1,229.9,243.7z"/><path fill="#fcbba4" d="M219.1,206.1c2.9,15,10.7,24.4,25.4,27.1c29.2,5.3,23.5-10.7,19.4-25.7           c-5.6-20.6-18.6-28.6-29.8-28.6C223,179,216.2,191.1,219.1,206.1z"/><path fill="#112544" d="M266,189.1c-0.8,9.7-3.7,13.4-38.4,6.4c0,0,10.3,5.8,1.7,9.8l1.5,6.6c0.2,0.9-1,1.2-1.5,0.4           c-1.5-2.1-3.5-4.4-5.4-4.8c-3.6-0.7-0.1,12-0.1,12s-2,2.5-6.1-2.8c-4.5-5.9-22.3-40.4-0.4-35.5c0,0-5-15.7,22.1-13.7           C263,169.2,266.6,181.6,266,189.1z"/><path fill="#fcbba4" d="M218.1,211.9c0.6,3.4,3.6,6.2,6.6,6.2c3,0,4.9-2.8,4.3-6.2c-0.6-3.4-3.6-6.2-6.6-6.2           S217.5,208.5,218.1,211.9z"/><path fill="#e2805d" d="M255.5,234.3c0,0-11.7,0-18.1-2.9c-0.6-0.3-1.1,0.3-0.8,0.8c1.7,3.1,7,9.5,21.7,7.4           C257.3,238,256.3,236.1,255.5,234.3z"/><path fill="#112544" d="M255.2,206.6c-1.9-1,1.7-5,5.6-2.5c0.5,0.3,0.6,0.9,0.3,1.4c-0.3,0.5-0.9,0.6-1.4,0.3            c-1.1-0.7-2.6-0.7-3.2,0.4C256.3,206.7,255.7,206.8,255.2,206.6z"/><path fill="#112544" d="M258.5,209.4l-0.3-0.8c-0.2-0.5,0-1.1,0.5-1.3c0.5-0.2,1.1,0,1.3,0.5l0.3,0.8c0.2,0.5,0,1.1-0.5,1.3            C259.3,210.1,258.7,209.9,258.5,209.4z"/><path fill="#112544" d="M240.2,207.8c-1.9-1,1.7-5,5.6-2.5c0.5,0.3,0.6,0.9,0.3,1.4c-0.3,0.5-0.9,0.6-1.4,0.3            c-1.1-0.7-2.6-0.7-3.2,0.4C241.3,207.9,240.7,208.1,240.2,207.8z"/><path fill="#112544" d="M243.5,210.6l-0.3-0.8c-0.2-0.5,0-1.1,0.5-1.3c0.5-0.2,1.1,0,1.3,0.5l0.3,0.8c0.2,0.5,0,1.1-0.5,1.3            C244.3,211.3,243.7,211.1,243.5,210.6z"/><path fill="#e2805d" d="M254.5,217.3c-0.5,0-1-0.4-1-1c0-0.6,0.4-1,1-1c0.4,0,0.9-0.1,1.4-0.1c-0.1-1.1-2.8-4.5-6-7.6           c-0.4-0.4-0.4-1,0-1.4c0.4-0.4,1-0.4,1.4,0c2.8,2.7,7.3,7.5,6.5,9.7c-0.1,0.4-0.5,1.1-1.6,1.2           C255.2,217.3,254.7,217.3,254.5,217.3z"/><path fill="#e2805d" d="M255,224c-0.5-0.3-0.6-0.9-0.3-1.4c0.3-0.5,0.9-0.6,1.4-0.3c3.9,2.4,4.4,0.3,4.3,0.4           c0.1-0.5,0.7-0.9,1.2-0.7c0.5,0.1,0.9,0.7,0.7,1.2C261.8,225.3,259.3,226.7,255,224z"/><path fill="#e2805d" d="M222.7,212.2l-0.9-1.2c-0.3-0.4-0.3-1.1,0.2-1.4c0.4-0.3,1.1-0.3,1.4,0.2l0.9,1.2           c0.3,0.4,0.3,1.1-0.2,1.4C223.7,212.7,223.1,212.6,222.7,212.2z"/><path fill="#112544" d="M256.9,274.2c-34.2,0-67.4-27.9-73.9-62.1l0,0c-6.6-34.7,16.3-62.5,50.6-62.5           c34.2,0,67.4,27.8,73.9,62.1C314.1,246.3,291.3,274.2,256.9,274.2z M184.9,211.7c6.4,33.3,38.6,60.5,72,60.5           c33.7,0,54.9-27.3,48.6-60.1c-6.4-33.3-38.6-60.5-72-60.5C200.4,151.6,178.6,178.3,184.9,211.7L184.9,211.7z"/><path fill="#e1e5ff" d="M337.5,304.9l4.4,22.9c0.5,2.8-1.3,5.1-4.2,5.1H198.9c-2.8,0-5.6-2.3-6.1-5.1l-4.4-22.9           c-0.5-2.8,1.3-5.1,4.2-5.1h138.8C334.2,299.8,337,302.1,337.5,304.9z"/><path fill="#ccd2ff" d="M337.5,304.9l4.4,22.9c0.5,2.8-1.3,5.1-4.2,5.1H198.9c-2.8,0-5.6-2.3-6.1-5.1l-0.1-0.6           c1,0.2-8.3,0.1,139.9,0.1c2.8,0,4.7-2.3,4.2-5.1l-4.2-22.3C334.9,300.4,337,302.5,337.5,304.9z"/><path fill="#e1e5ff" d="M347.5,357.4l4.4,22.9c0.5,2.8-1.3,5.1-4.2,5.1H208.9c-2.8,0-5.6-2.3-6.1-5.1l-4.4-22.9           c-0.5-2.8,1.3-5.1,4.2-5.1h138.8C344.2,352.2,346.9,354.5,347.5,357.4z"/><path fill="#ccd2ff" d="M347.5,357.4l4.4,22.9c0.5,2.8-1.3,5.1-4.2,5.1H208.9c-2.8,0-5.6-2.3-6.1-5.1l-0.1-0.6           c1,0.2-8.3,0.1,139.9,0.1c2.8,0,4.7-2.3,4.2-5.1l-4.2-22.3C344.9,352.9,347,354.9,347.5,357.4z"/><path fill="#112544" d="M337.7,334H198.9c-3.3,0-6.5-2.6-7.1-6l-4.4-22.9c-0.7-3.5,1.7-6.3,5.1-6.3h138.8c3.3,0,6.5,2.6,7.1,6           l0,0l4.4,22.9C343.5,331.1,341.2,334,337.7,334z M192.6,300.8c-2.2,0-3.6,1.7-3.2,4l4.4,22.9c0.5,2.4,2.8,4.3,5.1,4.3           h138.8c2.2,0,3.6-1.7,3.2-4l-4.4-22.9c-0.5-2.4-2.8-4.3-5.1-4.3H192.6z"/><path fill="#112544" d="M347.7,386.4H208.9c-3.3,0-6.5-2.6-7.1-6l-4.4-22.9c-0.7-3.5,1.7-6.3,5.1-6.3h138.8           c3.3,0,6.5,2.6,7.1,6l0,0l4.4,22.9C353.5,383.6,351.2,386.4,347.7,386.4z M202.6,353.2c-2.2,0-3.6,1.7-3.2,4l4.4,22.9           c0.5,2.4,2.8,4.3,5.1,4.3h138.8c2.2,0,3.6-1.7,3.2-4l-4.4-22.9c-0.5-2.4-2.8-4.3-5.1-4.3H202.6z"/><path fill="#8d95ff" d="M213.9,316.4c0.7,3.5-1.6,6.4-5.2,6.4c-3.5,0-6.9-2.8-7.6-6.4c-0.7-3.5,1.6-6.4,5.1-6.4            C209.8,310,213.2,312.9,213.9,316.4z"/><path fill="#757bff" d="M213.9,316.4c0.7,3.5-1.6,6.4-5.2,6.4c-2.8,0-5.6-1.8-6.9-4.4c5.6,3.5,11.4-1.4,8.3-7.2            C212.1,312.3,213.5,314.2,213.9,316.4z"/><path fill="#112544" d="M200.2,316.6c-0.8-4.1,2-7.5,6.1-7.5c6.5,0,11.2,7.9,7.3,12.5C209.8,326.2,201.4,323,200.2,316.6z             M203,312.5c-0.8,1-1.1,2.3-0.8,3.7c0.9,4.9,7.3,7.3,9.9,4.1c0.8-1,1.1-2.3,0.8-3.7l0,0C212,311.7,205.6,309.3,203,312.5z            "/><path fill="#8d95ff" d="M236.6,316.4c0.7,3.5-1.6,6.4-5.2,6.4c-3.5,0-6.9-2.8-7.6-6.4c-0.7-3.5,1.6-6.4,5.1-6.4            C232.5,310,235.9,312.9,236.6,316.4z"/><path fill="#757bff" d="M236.6,316.4c0.7,3.5-1.6,6.4-5.2,6.4c-2.8,0-5.6-1.8-6.9-4.4c5.6,3.5,11.4-1.4,8.3-7.2            C234.8,312.3,236.2,314.2,236.6,316.4z"/><path fill="#112544" d="M231.5,323.7c-6.5,0-11.2-7.9-7.3-12.5c3.8-4.6,12.2-1.4,13.4,5l0,0            C238.4,320.4,235.6,323.7,231.5,323.7z M229,311c-2.9,0-4.7,2.3-4.2,5.2c0.9,4.9,7.3,7.3,9.9,4.1c0.8-1,1.1-2.3,0.8-3.7            l0,0C235,313.5,232.1,311,229,311z"/><path fill="#8d95ff" d="M259.3,316.4c0.7,3.5-1.6,6.4-5.2,6.4c-3.5,0-6.9-2.8-7.6-6.4c-0.7-3.5,1.6-6.4,5.1-6.4            C255.2,310,258.6,312.9,259.3,316.4z"/><path fill="#757bff" d="M259.3,316.4c0.7,3.5-1.6,6.4-5.2,6.4c-2.8,0-5.6-1.8-6.9-4.4c5.6,3.5,11.4-1.4,8.3-7.2            C257.5,312.3,258.9,314.2,259.3,316.4z"/><path fill="#112544" d="M254.2,323.7c-6.4,0-11.2-7.9-7.3-12.5c3.8-4.6,12.2-1.4,13.4,5l0,0            C261.1,320.3,258.3,323.7,254.2,323.7z M251.7,311c-2.8,0-4.7,2.2-4.2,5.2c0.9,4.9,7.3,7.3,9.9,4.1c0.8-1,1.1-2.3,0.8-3.7            l0,0C257.7,313.5,254.8,311,251.7,311z"/><path fill="#8d95ff" d="M282,316.4c0.7,3.5-1.6,6.4-5.2,6.4c-3.5,0-6.9-2.8-7.6-6.4c-0.7-3.5,1.6-6.4,5.1-6.4            C277.9,310,281.3,312.9,282,316.4z"/><path fill="#757bff" d="M282,316.4c0.7,3.5-1.6,6.4-5.2,6.4c-2.8,0-5.6-1.8-6.9-4.4c4.7,3,10,0,9-5.2c-0.1-0.7-0.4-1.4-0.7-2            C280.2,312.3,281.6,314.2,282,316.4z"/><path fill="#112544" d="M268.3,316.6c-0.4-2,0.1-3.9,1.3-5.4c1.2-1.4,2.9-2.2,4.9-2.2c6.5,0,11.2,7.9,7.3,12.5            C280.6,323,269.5,323,268.3,316.6z M271.1,312.5c-2.7,3.3,0.8,9.3,5.8,9.3c1.4,0,2.6-0.5,3.3-1.5c0.8-1,1.1-2.3,0.8-3.7            l0,0C280.1,311.7,273.8,309.3,271.1,312.5z"/><path fill="#8d95ff" d="M304.7,316.4c0.7,3.5-1.6,6.4-5.2,6.4c-3.5,0-6.9-2.8-7.6-6.4c-0.7-3.5,1.6-6.4,5.1-6.4            C300.7,310,304.1,312.9,304.7,316.4z"/><path fill="#757bff" d="M304.7,316.4c0.7,3.5-1.6,6.4-5.2,6.4c-2.8,0-5.6-1.8-6.9-4.4c4.7,3,10,0,9-5.2            c-0.1-0.7-0.4-1.4-0.7-2C302.9,312.3,304.3,314.2,304.7,316.4z"/><path fill="#112544" d="M299.6,323.7c-4,0-7.8-3.2-8.6-7.2c-0.4-2,0.1-3.9,1.3-5.4c3.8-4.6,12.2-1.4,13.4,5l0,0            C306.5,320.4,303.7,323.7,299.6,323.7z M293.8,312.5c-0.8,1-1.1,2.3-0.8,3.7c0.9,4.9,7.3,7.3,9.9,4.1            c0.8-1,1.1-2.3,0.8-3.7C302.8,311.7,296.5,309.3,293.8,312.5z"/><g><path fill="#8d95ff" d="M327.4,316.4c0.7,3.5-1.6,6.4-5.2,6.4c-3.5,0-6.9-2.8-7.6-6.4c-0.7-3.5,1.6-6.4,5.1-6.4            C323.4,310,326.8,312.9,327.4,316.4z"/><path fill="#757bff" d="M327.4,316.4c0.7,3.5-1.6,6.4-5.2,6.4c-2.8,0-5.6-1.8-6.9-4.4c5.6,3.5,11.4-1.4,8.3-7.2            C325.6,312.3,327,314.2,327.4,316.4z"/><path fill="#112544" d="M322.3,323.7c-6.4,0-11.2-7.9-7.3-12.5c3.8-4.6,12.2-1.4,13.4,5l0,0            C329.2,320.3,326.4,323.7,322.3,323.7z M316.5,312.5c-2.7,3.3,0.8,9.3,5.8,9.3c2.8,0,4.7-2.2,4.2-5.2            C325.5,311.7,319.2,309.3,316.5,312.5z"/></g><g><path fill="#112544" d="M336.1,369.8H217.7c-0.6,0-1-0.4-1-1s0.4-1,1-1h118.4c0.6,0,1,0.4,1,1S336.7,369.8,336.1,369.8z"/></g><g><path fill="#112544" d="M138.3,142.5c-1.1-6,2.8-11.1,9-11.1c5.9,0,11.6,4.8,12.8,10.7l0,0c0.6,3-0.1,5.8-1.8,7.9        C152.5,156.9,140.1,152,138.3,142.5z M147.3,133.5c-4.8,0-8,3.9-7,8.7c1.5,8,12,12,16.4,6.6c1.4-1.6,1.9-3.9,1.4-6.2l0,0        C157.1,137.5,152.3,133.5,147.3,133.5z"/></g><g><path fill="#112544" d="M152.4,146.1c-0.7,0-0.4-0.1-7.1-5.7c-0.4-0.4-0.5-1-0.1-1.4c0.4-0.4,1-0.5,1.4-0.1l6.5,5.4         C153.8,144.9,153.3,146.1,152.4,146.1z"/><path fill="#112544" d="M146.3,145.8c-0.4-0.3-0.5-1-0.1-1.4l4.4-5.4c0.3-0.4,1-0.5,1.4-0.1c0.4,0.3,0.5,1,0.1,1.4l-4.4,5.4         C147.4,146.1,146.8,146.2,146.3,145.8z"/></g><g><path fill="#fcbba4" d="M371.8,211.4c0,0-9.2-24.4-20.2-25.3c-9-0.8-18.8,4.7-17.5,9.8c1.3,5,13.4,2.4,13.4,2.4s-0.4,13,9.6,14.1       "/></g><g><path fill="#112544" d="M357,213.4c-8.9-1-10.2-10.5-10.4-13.9c-3.4,0.6-12.1,1.6-13.4-3.3c-0.4-1.6,0-3.2,1.2-4.8       c2.6-3.5,8.7-6.1,14.7-6.4c0.6-0.1,1,0.4,1,1c0,0.6-0.4,1-1,1c-7.5,0.3-15,4.8-14.1,8.6c0.8,3.3,9.3,2.3,12.2,1.6       c0.6-0.1,1.2,0.4,1.2,1c0,0.5-0.3,12.1,8.7,13.1c0.5,0.1,0.9,0.6,0.9,1.1C358.1,213.1,357.6,213.5,357,213.4z"/></g><g><path fill="#112544" d="M433.1,207.9c-0.5-0.1-0.9-0.6-0.8-1.2c9.1-46.3-23.2-87-64.3-87c-34.8,0-58.9,30.7-54.2,52.3       c0.1,0.5-0.2,1.1-0.8,1.2c-0.5,0.1-1.1-0.2-1.2-0.8c-5.1-23.4,20.9-55.1,56.7-54.8c42.1,0.4,75,41.9,65.7,89.4       C434.2,207.7,433.7,208,433.1,207.9z"/></g><g><path fill="#112544" d="M312.9,173.4c-0.9-0.1,0,0.2-8.3-8.1c-0.4-0.4-0.4-1,0-1.4c0.4-0.4,1-0.4,1.4,0l6.9,7.1l7.1-6.9       c0.4-0.4,1-0.4,1.4,0c0.4,0.4,0.4,1,0,1.4l-7.8,7.6C313.4,173.3,313.2,173.4,312.9,173.4z"/></g></svg>