<svg xmlns="http://www.w3.org/2000/svg" enable-background="new 0 0 2500 2500" viewBox="0 0 2500 2500"><path fill="#fee4e8" d="M2039.95,639.57c-104.64-53.25-228.61-29.28-338.16,51.48c-68.82,50.73-153.68,68.4-234.86,49.36
														c-1.11-0.26-2.23-0.52-3.34-0.78c-101.73-23.89-183.37-103.85-221.56-209.57
														c-37.63-104.18-101.54-186.39-189.13-230.96C819.68,180.4,507.23,373.4,355.02,730.17
														c-152.21,356.77-86.55,742.2,146.66,860.89c118.59,60.35,257.66,40.1,385.74-41.29
														c121.24-77.04,263.16-105.08,399.99-71.4c14.71,3.62,29.41,7.27,44.12,10.96c83.4,20.9,159.2,65.73,226.76,123.08
														c15.9,13.5,33.18,25.13,51.83,34.62c185.83,94.58,432.7-54.28,551.4-332.48
														C2280.21,1036.34,2225.78,734.15,2039.95,639.57z"/><path fill="#fff" d="M1759.57,1080.76c-256.76-166.93-211.55-443.4-194.92-583.29c222.14,4.34,321.63-97.87,321.63-97.87
							s56.08,131.15,264.92,206.97C2116.41,743.09,2059.18,1017.32,1759.57,1080.76z"/><path fill="#070706" d="M1759.57,1083.62c-0.55,0-1.09-0.16-1.56-0.46c-248.09-161.3-215.7-426.39-198.29-568.8
							c0.73-5.94,1.43-11.69,2.09-17.22c0.17-1.46,1.38-2.56,2.89-2.52c218.19,4.31,318.54-95.99,319.53-97
							c0.67-0.68,1.62-0.99,2.57-0.81c0.94,0.17,1.73,0.81,2.1,1.69c0.56,1.3,58.17,130.94,263.27,205.41
							c1.38,0.5,2.16,1.97,1.79,3.39c-1.38,5.4-2.79,11.01-4.25,16.82c-34.97,139.15-100.06,398.16-389.56,459.45
							C1759.97,1083.6,1759.77,1083.62,1759.57,1083.62z M1567.18,500.37c-0.57,4.74-1.17,9.64-1.78,14.67
							c-17.23,140.99-49.29,403.25,194.74,562.67c285.03-61,349.42-317.26,384.04-455.01c1.24-4.92,2.44-9.71,3.61-14.34
							c-186.37-68.44-251.43-182.3-262.4-204.02c-17.71,16.01-115.96,96.1-307.23,96.11
							C1574.53,500.46,1570.89,500.43,1567.18,500.37z"/><path fill="#34cec3" d="M1775.14,997.06c-193.66-125.9-159.56-334.43-147.02-439.94c167.55,3.28,242.58-73.81,242.58-73.81
							s42.3,98.92,199.82,156.11C2044.28,742.38,2001.12,949.21,1775.14,997.06z"/><path fill="#fff" d="M1792.57,786.22c-4.4-0.82-8.48-3.31-11.22-7.29l-30.49-44.42c-5.47-7.96-3.44-18.85,4.52-24.31
								c7.96-5.47,18.84-3.44,24.31,4.52l20.6,30l97.33-66.79c7.96-5.47,18.84-3.44,24.31,4.52c5.47,7.96,3.44,18.85-4.52,24.31
								l-111.74,76.69C1801.68,786.18,1796.97,787.04,1792.57,786.22z"/><path fill="#fc9fad" d="M1482.51,821.98l89.96,179.37l56.94-42.05c-28.37-44.23-46.91-95.97-61.01-153.86l5.16-26.8l32.52-13.58
							c10.74-3.23,17.57-13.07,17.57-23.56c0-3.1-0.59-6.28-1.87-9.34c-5.09-12.52-19.31-18.55-31.88-13.58l-40.16,16.73
							c-6.75,2.8-12.57,7.51-16.68,13.5L1482.51,821.98z"/><path fill="#789afe" d="M1602.7,1014.94c0,0-181.58,205.43-308.32,202.31c-126.78-3.09-264.04-240.53-264.04-240.53l7.62-127.81
							c0,0,55.83,11.58,125.71,53.01c49.61,29.42,125.18,116.34,125.18,116.34l51.29-60.17l50.53-59.22l76.67-89.89
							C1498.67,776.13,1634.02,982.14,1602.7,1014.94z"/><path fill="#789afe" d="M561.63,1139.97c11.39-103.03,34.44-322.25,349.75-306.75c73.61,3.62,130.32,9.8,180.18,36.56
							c125.53,67.37,163.25,210.98,171.88,263.43L561.63,1139.97z"/><path fill="#fff" d="M2013.49,1273.23v834.88c0,69-55.94,124.94-124.94,124.94H406.37c-69,0-124.94-55.94-124.94-124.94
								v-834.88c0-81.55,66.11-147.66,147.66-147.66h1436.74C1947.35,1125.56,2013.49,1191.65,2013.49,1273.23z"/><path fill="#070706" d="M1888.55,2235.9H406.37c-70.47,0-127.8-57.33-127.8-127.8v-834.88c0-83,67.52-150.52,150.52-150.52
								h1436.74c83,0,150.52,67.52,150.52,150.52v834.88C2016.35,2178.57,1959.02,2235.9,1888.55,2235.9z M429.09,1128.42
								c-79.85,0-144.81,64.96-144.81,144.81v834.88c0,67.32,54.77,122.08,122.08,122.08h1482.19
								c67.32,0,122.08-54.77,122.08-122.08v-834.88c0-79.85-64.96-144.81-144.81-144.81H429.09z"/><path fill="#34cec3" d="M573.34,1226.33c-0.6,12.02-10.02,22.34-21.94,23.89c-17.53,2.3-32.25-13.27-28.25-31.05
								c2.2-9.82,10.47-17.58,20.43-19.23C560.01,1197.24,574.09,1210.21,573.34,1226.33z"/><path fill="#ffb839" d="M495.21,1226.33c-0.6,12.02-9.97,22.34-21.88,23.89c-17.53,2.3-32.25-13.27-28.3-31.05
								c2.2-9.82,10.52-17.58,20.48-19.23C481.89,1197.24,496.01,1210.21,495.21,1226.33z"/><path fill="#ff571c" d="M417.13,1226.33c-0.6,12.02-10.02,22.34-21.93,23.89c-17.53,2.3-32.25-13.27-28.25-31.05
								c2.2-9.82,10.47-17.58,20.43-19.23C403.81,1197.24,417.93,1210.21,417.13,1226.33z"/><path fill="#fff" d="M973.62,1699.37c0,79.17-33.46,150.5-87,200.67c-17.35,16.26-36.8,30.29-57.91,41.62
									c-38.73,20.87-83.02,32.67-130.06,32.67c-29.96,0-58.78-4.79-85.76-13.67c-14-4.58-27.49-10.24-40.38-16.92
									c-24.09-12.47-46.1-28.37-65.38-47.1c-6.5-6.32-12.74-12.98-18.58-19.93c-40.47-47.88-64.83-109.76-64.83-177.34
									c0-151.86,123.1-274.93,274.93-274.93C850.52,1424.44,973.62,1547.51,973.62,1699.37z"/><path fill="#ff571c" d="M886.63,1900.04c-17.35,16.26-36.8,30.29-57.91,41.62c-38.73,20.87-83.02,32.67-130.06,32.67
												c-29.96,0-58.78-4.79-85.76-13.67c-14-4.58-27.49-10.24-40.38-16.92c-24.09-12.47-46.1-28.37-65.38-47.1
												c9.67-49.23,41.38-91.33,85.1-114.55c2.53-1.39,5.12-2.65,7.74-3.88c8.55-3.97,17.56-7.29,26.89-9.76
												c5.54-1.51,11.17-2.71,16.92-3.61h0.03c6.26-0.99,12.65-1.63,19.12-1.9c0.51,0,1.02-0.03,1.54-0.06
												c0.9-0.03,1.81-0.06,2.71-0.09c22.58-0.75,45.77,1.78,68.3,7.32c0.15,0.03,0.33,0.06,0.48,0.12
												c0.3,0.06,0.57,0.12,0.87,0.21c0,0,0.03-0.03,0.03,0C807.37,1788.05,870.76,1834.76,886.63,1900.04z"/><path fill="#070706" d="M635.41,1559.51c-10.46,0.95-20.21,6.52-27.27,14.3s-11.59,17.62-14.12,27.81
													c-5.84,23.44-0.95,49.64,14.1,68.53c15.06,18.89,40.29,29.58,64.16,25.86c5.86-0.91,11.81-2.76,16.16-6.79
													c4.28-3.97,6.59-9.73,7.34-15.52c0.75-5.79,0.07-11.67-0.87-17.44c-4.09-25.15-13.06-49.5-26.26-71.3L635.41,1559.51z"/><path fill="#fc9fad" d="M626.85,1768.55c7.97-24.22,16.04-80.22,24.27-122.82l90.99,32.43l-1.37,15.01l-5.28,57.27
													l-0.05,18.92C782.27,1837.8,640.95,1836.14,626.85,1768.55z"/><path fill="#070706" d="M740.74,1693.16l-5.28,57.27c-4.71-2.33-24.66-13.17-39.36-35.82
													c-16.74-25.8,15.86-28.88,15.86-28.88L740.74,1693.16z"/><circle cx="790.48" cy="1540.16" r="42.23" fill="#070706"/><path fill="#fc9fad" d="M822.2,1614.56c10.77,65.11-24.97,112-65.2,116.87c-45.72,5.54-88.58-24.56-99.35-89.66
													c-10.77-65.11,14.92-138.6,60.36-146.12C763.45,1488.14,811.43,1549.45,822.2,1614.56z"/><path fill="#070706" d="M691.31,1618.77c-6.61,14.37-18.36-5.88-18.36-5.88l-52.59-5.72c0,0-18.28-103.18,43.15-131.75
													l25.34,30.36C701.52,1527.65,701.87,1595.81,691.31,1618.77z"/><path fill="#070706" d="M786.15,1549.75l-138.84,16.08l0,0c-27.88-40.49-2.63-96.11,46.21-101.76l81.61-9.45
													c26.27-3.04,50.03,15.79,53.08,42.06v0C831.25,1522.95,812.42,1546.71,786.15,1549.75z"/><circle cx="649.87" cy="1628.56" r="33.29" fill="#fc9fad"/><path fill="#070706" d="M646.45,1646.89c-1.96,0-3.97-0.47-5.79-1.44c-5.06-2.68-8.22-8.69-7.86-14.94
													c0.29-5.16,2.81-10.37,7.08-14.67c2.87-2.89,5.89-4.66,8.97-5.24c5.23-0.99,10.93,1.42,14.51,6.15
													c2.77,3.66,4.28,8.61,4.37,14.32c0.02,1.58-1.24,2.88-2.81,2.9c-1.63-0.01-2.88-1.24-2.9-2.81
													c-0.05-3.13-0.64-7.57-3.21-10.96c-2.24-2.96-5.81-4.56-8.89-3.98c-1.93,0.36-3.94,1.6-5.98,3.65
													c-3.29,3.31-5.22,7.2-5.43,10.96c-0.23,4,1.76,7.93,4.84,9.57c2.4,1.27,5.55,0.91,7.03-0.79
													c1.06-1.23,1.3-3.24,0.54-4.68c-0.76-1.44-2.54-2.35-4.16-2.21c-1.59,0.21-2.98-0.96-3.15-2.53
													c-0.17-1.57,0.96-2.98,2.53-3.15c3.94-0.42,8,1.72,9.84,5.24c1.85,3.52,1.32,8.07-1.28,11.08
													C652.7,1645.67,649.63,1646.89,646.45,1646.89z"/><path fill="#070706" d="M764.2,1692.04c-7.91,0-14.93-2.67-20.14-7.74c-4.73-4.6-10.03-13.24-8.41-28.27
														c0.17-1.57,1.57-2.75,3.15-2.54c1.57,0.17,2.71,1.58,2.54,3.15c-1.08,10.09,1.24,18.24,6.72,23.57
														c5,4.86,12.24,6.93,20.39,5.82c1.56-0.19,3,0.89,3.22,2.45c0.21,1.56-0.88,3-2.45,3.22
														C767.5,1691.93,765.83,1692.04,764.2,1692.04z"/><path fill="#070706" d="M768.28,1655.42c-1.37,0-2.58-0.99-2.82-2.39c-0.26-1.56,0.79-3.03,2.35-3.29
														c2.33-0.39,4.74-0.8,6.75-1.74c1.91-0.89,3.28-2.25,3.77-3.72c0.61-1.85,0.02-4.16-0.75-6.79l-8.12-27.62
														c-0.44-1.51,0.42-3.1,1.94-3.55c1.51-0.44,3.1,0.42,3.55,1.94l8.12,27.62c0.81,2.75,1.91,6.5,0.69,10.2
														c-0.99,3-3.4,5.52-6.77,7.1c-2.71,1.27-5.64,1.76-8.22,2.19C768.59,1655.41,768.43,1655.42,768.28,1655.42z"/><path fill="#070706" d="M798.87,1613.35c-2.72,3.63-7.45,3.07-10.57-1.24c-3.12-4.34-3.42-10.77-0.7-14.4
														c2.72-3.63,7.45-3.07,10.57,1.24C801.27,1603.26,801.59,1609.71,798.87,1613.35z"/><path fill="#070706" d="M753.89,1625.96c-2.72,3.63-7.45,3.07-10.57-1.24c-3.12-4.34-3.42-10.77-0.7-14.4
														c2.72-3.63,7.45-3.07,10.57,1.24C756.28,1615.88,756.61,1622.33,753.89,1625.96z"/><path fill="#070706" d="M800.41,1580.76c2.87,4.4-5.2,2.84-11.57,6.57c-6.59,3.82-7.06,9.15-9.72,8.67
														c-2.49,0.04-5.22-6.53,0.59-14.28C785.56,1573.71,797.78,1576.07,800.41,1580.76z"/><path fill="#070706" d="M754.02,1591.96c3.22,4.93-5.83,3.19-12.97,7.36c-7.39,4.28-7.92,10.26-10.9,9.72
														c-2.79,0.05-5.85-7.32,0.66-16.02C737.37,1584.05,751.07,1586.69,754.02,1591.96z"/><path fill="#ff571c" d="M612.9,1960.66c-14-4.58-27.49-10.24-40.38-16.92c-24.09-12.47-46.1-28.37-65.38-47.1
													c-6.5-6.32-12.74-12.98-18.58-19.93c29-64.95,85.73-88.59,103.68-94.62c3.55-1.2,5.6-1.72,5.6-1.72L612.9,1960.66z"/><path fill="#fff" d="M707.09,1818.36l33.65,34.38c17.63-35.15,29.38-58.13-5.32-83.39
												C736.36,1779.69,728.76,1798.43,707.09,1818.36z"/><path fill="#fff" d="M632.87,1744.98l-35.02,35.39c9.69,35.39,49.92,63.83,93.46,79.95l15.78-41.96
											C672.78,1799.1,645.92,1775.8,632.87,1744.98z"/><path fill="#070706" d="M828.72,1944.52c-1.55,0-2.82-1.24-2.86-2.8l-0.54-27.82c-0.03-1.58,1.22-2.88,2.8-2.91
										c0.02,0,0.04,0,0.06,0c1.55,0,2.82,1.24,2.86,2.8l0.54,27.82c0.03,1.58-1.22,2.88-2.8,2.91
										C828.76,1944.52,828.74,1944.52,828.72,1944.52z"/><path fill="#070706" d="M572.52,1946.6c-1.55,0-2.82-1.24-2.86-2.8l-0.6-29.9c-0.03-1.58,1.22-2.88,2.8-2.92
										c1.53,0.02,2.88,1.22,2.92,2.8l0.6,29.9c0.03,1.58-1.22,2.88-2.8,2.92C572.56,1946.6,572.54,1946.6,572.52,1946.6z"/><path fill="#070706" d="M698.66,1977.19c-29.65,0-58.81-4.65-86.66-13.82c-14.07-4.6-27.8-10.35-40.8-17.1
									c-24.25-12.55-46.48-28.56-66.05-47.58c-6.7-6.52-13.02-13.29-18.78-20.15c-42.24-49.97-65.5-113.6-65.5-179.17
									c0-153.18,124.62-277.79,277.79-277.79c153.19,0,277.82,124.62,277.82,277.79c0,76.51-32.04,150.41-87.9,202.76
									c-17.64,16.54-37.33,30.69-58.51,42.05C789.99,1965.78,744.55,1977.19,698.66,1977.19z M698.66,1427.3
									c-150.02,0-272.07,122.05-272.07,272.08c0,64.22,22.79,126.55,64.16,175.49c5.64,6.71,11.82,13.35,18.39,19.73
									c19.17,18.64,40.94,34.32,64.7,46.61c12.73,6.61,26.18,12.24,39.95,16.75c27.28,8.98,55.83,13.53,84.88,13.53
									c44.95,0,89.45-11.18,128.7-32.33c20.75-11.13,40.03-24.98,57.31-41.18c54.71-51.27,86.09-123.65,86.09-198.59
									C970.76,1549.35,848.7,1427.3,698.66,1427.3z"/><path fill="#fff" d="M1834.02,1579.78H1132.7c-6.06,0-10.98-4.92-10.98-10.98v-133.38c0-6.06,4.92-10.98,10.98-10.98h701.31
							c6.06,0,10.98,4.92,10.98,10.98v133.38C1845,1574.86,1840.08,1579.78,1834.02,1579.78z"/><path fill="#070706" d="M1803.15,1582.64h-639.59c-24.65,0-44.7-20.05-44.7-44.7v-71.65c0-24.65,20.05-44.7,44.7-44.7h639.59
							c24.65,0,44.7,20.05,44.7,44.7v71.65C1847.86,1562.58,1827.8,1582.64,1803.15,1582.64z M1163.57,1427.3
							c-21.5,0-38.99,17.49-38.99,38.99v71.65c0,21.49,17.49,38.98,38.99,38.98h639.59c21.5,0,38.99-17.49,38.99-38.98v-71.65
							c0-21.5-17.49-38.99-38.99-38.99H1163.57z"/><path fill="#fff" d="M1834.02,1806.35H1132.7c-6.06,0-10.98-4.92-10.98-10.98V1662c0-6.06,4.92-10.98,10.98-10.98h701.31
							c6.06,0,10.98,4.92,10.98,10.98v133.38C1845,1801.44,1840.08,1806.35,1834.02,1806.35z"/><path fill="#070706" d="M1803.15,1809.21h-639.59c-24.65,0-44.7-20.05-44.7-44.7v-71.65c0-24.65,20.05-44.7,44.7-44.7h639.59
							c24.65,0,44.7,20.05,44.7,44.7v71.65C1847.86,1789.16,1827.8,1809.21,1803.15,1809.21z M1163.57,1653.88
							c-21.5,0-38.99,17.49-38.99,38.98v71.65c0,21.49,17.49,38.98,38.99,38.98h639.59c21.5,0,38.99-17.49,38.99-38.98v-71.65
							c0-21.49-17.49-38.98-38.99-38.98H1163.57z"/><path fill="#789afe" d="M1643.55,2067.76h-320.37c-23.11,0-41.84-18.73-41.84-41.84v-106.48c0-23.11,18.73-41.84,41.84-41.84
								h320.37c23.11,0,41.84,18.73,41.84,41.84v106.48C1685.39,2049.03,1666.66,2067.76,1643.55,2067.76z"/><path fill="#070706" d="M1643.55,2070.62h-320.37c-24.65,0-44.7-20.05-44.7-44.7v-106.48c0-24.65,20.05-44.7,44.7-44.7h320.37
								c24.65,0,44.7,20.05,44.7,44.7v106.48C1688.25,2050.57,1668.2,2070.62,1643.55,2070.62z M1323.17,1880.45
								c-21.5,0-38.99,17.49-38.99,38.98v106.48c0,21.49,17.49,38.98,38.99,38.98h320.37c21.5,0,38.99-17.49,38.99-38.98v-106.48
								c0-21.49-17.49-38.98-38.99-38.98H1323.17z"/><rect width="304.72" height="28.34" x="1190.39" y="1487.94" fill="#e3e3e3"/><rect width="121.14" height="28.34" x="1549.1" y="1487.94" fill="#e3e3e3"/><path fill="#252420" d="M1286.23,1740.63c1.04,0.36,1.52,1.17,1.44,2.42c-0.08,1.25-0.87,3.17-2.38,5.76
							c-1.51,2.6-2.78,4.22-3.82,4.87c-1.04,0.65-1.97,0.64-2.8-0.04l-15.5-12.38l3.11,19.55c0.26,1.09-0.18,1.92-1.32,2.49
							c-1.14,0.57-3.22,0.86-6.23,0.86c-3.01,0-5.09-0.29-6.23-0.86c-1.14-0.57-1.59-1.4-1.32-2.49l3.11-19.55l-15.5,12.38
							c-0.78,0.67-1.69,0.67-2.73,0c-1.04-0.67-2.34-2.31-3.89-4.91c-1.51-2.54-2.28-4.44-2.34-5.69c-0.05-1.25,0.42-2.05,1.4-2.42
							l18.54-7.16l-18.54-7.17c-0.99-0.36-1.46-1.17-1.4-2.42c0.05-1.25,0.83-3.17,2.34-5.76c1.51-2.59,2.79-4.23,3.86-4.9
							c1.06-0.68,1.99-0.65,2.76,0.08l15.5,12.38l-3.11-19.55c-0.26-1.04,0.18-1.86,1.32-2.45c1.14-0.6,3.22-0.9,6.23-0.9
							c3.01,0,5.09,0.3,6.23,0.9c1.14,0.6,1.58,1.41,1.32,2.45l-3.11,19.55l15.5-12.38c0.83-0.73,1.75-0.74,2.77-0.04
							c1.01,0.7,2.3,2.35,3.86,4.95c1.51,2.55,2.3,4.44,2.38,5.69c0.08,1.25-0.4,2.05-1.44,2.42l-18.46,7.17L1286.23,1740.63z"/><path fill="#252420" d="M1397.79,1740.63c1.04,0.36,1.52,1.17,1.44,2.42c-0.08,1.25-0.87,3.17-2.38,5.76
							c-1.51,2.6-2.78,4.22-3.82,4.87c-1.04,0.65-1.97,0.64-2.8-0.04l-15.5-12.38l3.11,19.55c0.26,1.09-0.18,1.92-1.32,2.49
							c-1.14,0.57-3.22,0.86-6.23,0.86c-3.01,0-5.09-0.29-6.23-0.86c-1.14-0.57-1.59-1.4-1.32-2.49l3.11-19.55l-15.5,12.38
							c-0.78,0.67-1.69,0.67-2.73,0s-2.34-2.31-3.89-4.91c-1.51-2.54-2.28-4.44-2.34-5.69c-0.05-1.25,0.42-2.05,1.4-2.42l18.54-7.16
							l-18.54-7.17c-0.99-0.36-1.46-1.17-1.4-2.42c0.05-1.25,0.83-3.17,2.34-5.76c1.51-2.59,2.79-4.23,3.86-4.9
							c1.06-0.68,1.99-0.65,2.76,0.08l15.5,12.38l-3.11-19.55c-0.26-1.04,0.18-1.86,1.32-2.45c1.14-0.6,3.22-0.9,6.23-0.9
							c3.01,0,5.09,0.3,6.23,0.9c1.14,0.6,1.58,1.41,1.32,2.45l-3.11,19.55l15.5-12.38c0.83-0.73,1.75-0.74,2.77-0.04
							c1.01,0.7,2.3,2.35,3.86,4.95c1.51,2.55,2.3,4.44,2.38,5.69c0.08,1.25-0.4,2.05-1.44,2.42l-18.46,7.17L1397.79,1740.63z"/><path fill="#252420" d="M1509.35,1740.63c1.04,0.36,1.52,1.17,1.44,2.42c-0.08,1.25-0.87,3.17-2.38,5.76
							c-1.51,2.6-2.78,4.22-3.82,4.87c-1.04,0.65-1.97,0.64-2.8-0.04l-15.5-12.38l3.11,19.55c0.26,1.09-0.18,1.92-1.32,2.49
							c-1.14,0.57-3.22,0.86-6.23,0.86c-3.01,0-5.09-0.29-6.23-0.86c-1.14-0.57-1.59-1.4-1.32-2.49l3.11-19.55l-15.5,12.38
							c-0.78,0.67-1.69,0.67-2.73,0c-1.04-0.67-2.34-2.31-3.89-4.91c-1.51-2.54-2.28-4.44-2.34-5.69c-0.05-1.25,0.42-2.05,1.4-2.42
							l18.54-7.16l-18.54-7.17c-0.99-0.36-1.45-1.17-1.4-2.42c0.05-1.25,0.83-3.17,2.34-5.76c1.51-2.59,2.79-4.23,3.86-4.9
							c1.06-0.68,1.99-0.65,2.76,0.08l15.5,12.38l-3.11-19.55c-0.26-1.04,0.18-1.86,1.32-2.45c1.14-0.6,3.22-0.9,6.23-0.9
							c3.01,0,5.09,0.3,6.23,0.9c1.14,0.6,1.58,1.41,1.32,2.45l-3.11,19.55l15.5-12.38c0.83-0.73,1.75-0.74,2.77-0.04
							c1.01,0.7,2.3,2.35,3.86,4.95c1.51,2.55,2.3,4.44,2.38,5.69c0.08,1.25-0.4,2.05-1.44,2.42l-18.46,7.17L1509.35,1740.63z"/><path fill="#252420" d="M1620.91,1740.63c1.04,0.36,1.52,1.17,1.44,2.42c-0.08,1.25-0.87,3.17-2.38,5.76
							c-1.51,2.6-2.78,4.22-3.82,4.87c-1.04,0.65-1.97,0.64-2.8-0.04l-15.5-12.38l3.11,19.55c0.26,1.09-0.18,1.92-1.32,2.49
							c-1.14,0.57-3.22,0.86-6.23,0.86c-3.01,0-5.09-0.29-6.23-0.86c-1.14-0.57-1.59-1.4-1.32-2.49l3.11-19.55l-15.5,12.38
							c-0.78,0.67-1.69,0.67-2.73,0s-2.34-2.31-3.89-4.91c-1.51-2.54-2.28-4.44-2.34-5.69c-0.05-1.25,0.42-2.05,1.4-2.42l18.54-7.16
							l-18.54-7.17c-0.99-0.36-1.46-1.17-1.4-2.42c0.05-1.25,0.83-3.17,2.34-5.76c1.51-2.59,2.79-4.23,3.86-4.9
							c1.06-0.68,1.99-0.65,2.76,0.08l15.5,12.38l-3.11-19.55c-0.26-1.04,0.18-1.86,1.32-2.45c1.14-0.6,3.22-0.9,6.23-0.9
							c3.01,0,5.09,0.3,6.23,0.9c1.14,0.6,1.58,1.41,1.32,2.45l-3.11,19.55l15.5-12.38c0.83-0.73,1.75-0.74,2.77-0.04
							c1.01,0.7,2.3,2.35,3.86,4.95c1.51,2.55,2.3,4.44,2.38,5.69c0.08,1.25-0.4,2.05-1.44,2.42l-18.46,7.17L1620.91,1740.63z"/><path fill="#252420" d="M1732.47,1740.63c1.04,0.36,1.52,1.17,1.44,2.42c-0.08,1.25-0.87,3.17-2.38,5.76
							c-1.51,2.6-2.78,4.22-3.82,4.87c-1.04,0.65-1.97,0.64-2.8-0.04l-15.5-12.38l3.11,19.55c0.26,1.09-0.18,1.92-1.32,2.49
							c-1.14,0.57-3.22,0.86-6.23,0.86c-3.01,0-5.09-0.29-6.23-0.86c-1.14-0.57-1.59-1.4-1.32-2.49l3.11-19.55l-15.5,12.38
							c-0.78,0.67-1.69,0.67-2.73,0c-1.04-0.67-2.34-2.31-3.89-4.91c-1.51-2.54-2.28-4.44-2.34-5.69c-0.05-1.25,0.42-2.05,1.4-2.42
							l18.54-7.16l-18.54-7.17c-0.99-0.36-1.45-1.17-1.4-2.42c0.05-1.25,0.83-3.17,2.34-5.76c1.51-2.59,2.79-4.23,3.86-4.9
							c1.06-0.68,1.99-0.65,2.76,0.08l15.5,12.38l-3.11-19.55c-0.26-1.04,0.18-1.86,1.32-2.45c1.14-0.6,3.22-0.9,6.23-0.9
							c3.01,0,5.09,0.3,6.23,0.9c1.14,0.6,1.58,1.41,1.32,2.45l-3.11,19.55l15.5-12.38c0.83-0.73,1.75-0.74,2.77-0.04
							c1.01,0.7,2.3,2.35,3.86,4.95c1.51,2.55,2.3,4.44,2.38,5.69c0.08,1.25-0.4,2.05-1.44,2.42l-18.46,7.17L1732.47,1740.63z"/><path fill="#fff" d="M1393.92,1999.65c0,0.99-0.04,1.82-0.12,2.5c-0.08,0.68-0.2,1.24-0.37,1.68
						c-0.17,0.45-0.37,0.77-0.62,0.96c-0.25,0.2-0.54,0.3-0.87,0.3h-29.33c-1.09,0-2-0.32-2.75-0.96s-1.11-1.69-1.11-3.14v-58.13
						c0-0.33,0.11-0.63,0.32-0.89c0.21-0.26,0.57-0.48,1.06-0.64c0.49-0.16,1.16-0.3,2-0.4c0.84-0.1,1.89-0.15,3.14-0.15
						c1.29,0,2.34,0.05,3.17,0.15c0.82,0.1,1.48,0.23,1.98,0.4c0.49,0.16,0.85,0.38,1.06,0.64c0.21,0.26,0.32,0.56,0.32,0.89v51.5
						h20.13c0.33,0,0.62,0.09,0.87,0.27c0.25,0.18,0.45,0.48,0.62,0.89s0.29,0.96,0.37,1.63
						C1393.87,1997.83,1393.92,1998.66,1393.92,1999.65z"/><path fill="#fff" d="M1457.38,1972.35c0,5.31-0.66,10.06-1.98,14.25c-1.32,4.19-3.28,7.74-5.89,10.66s-5.83,5.15-9.67,6.68
						c-3.84,1.53-8.29,2.3-13.33,2.3c-4.98,0-9.33-0.65-13.04-1.95c-3.71-1.3-6.8-3.29-9.28-5.96s-4.33-6.07-5.57-10.19
						c-1.24-4.12-1.86-9-1.86-14.64c0-5.18,0.66-9.84,1.98-13.98c1.32-4.14,3.28-7.66,5.89-10.56c2.6-2.9,5.83-5.13,9.67-6.68
						c3.84-1.55,8.3-2.32,13.38-2.32c4.85,0,9.13,0.64,12.84,1.93c3.71,1.29,6.81,3.26,9.3,5.94s4.37,6.04,5.64,10.12
						C1456.75,1962,1457.38,1966.81,1457.38,1972.35z M1443.73,1973.04c0-3.36-0.26-6.42-0.79-9.18c-0.53-2.75-1.43-5.11-2.7-7.07
						c-1.27-1.96-2.96-3.48-5.07-4.55s-4.75-1.61-7.92-1.61c-3.2,0-5.87,0.6-8.01,1.8c-2.14,1.21-3.88,2.81-5.19,4.82
						c-1.32,2.01-2.25,4.36-2.79,7.05c-0.55,2.69-0.82,5.53-0.82,8.53c0,3.49,0.26,6.64,0.79,9.42c0.53,2.79,1.42,5.17,2.67,7.15
						c1.25,1.98,2.93,3.49,5.05,4.53c2.11,1.04,4.77,1.56,7.96,1.56c3.2,0,5.87-0.59,8.01-1.78c2.14-1.19,3.88-2.81,5.19-4.85
						c1.32-2.05,2.25-4.43,2.79-7.15C1443.46,1979,1443.73,1976.11,1443.73,1973.04z"/><path fill="#fff" d="M1519.67,1951.02c0,0.96-0.04,1.78-0.12,2.47c-0.08,0.69-0.2,1.25-0.35,1.66
						c-0.15,0.41-0.33,0.7-0.54,0.87c-0.22,0.16-0.47,0.25-0.77,0.25c-0.43,0-1.12-0.29-2.08-0.89c-0.96-0.59-2.23-1.24-3.81-1.93
						c-1.58-0.69-3.47-1.34-5.66-1.93c-2.19-0.59-4.74-0.89-7.64-0.89c-3.1,0-5.9,0.54-8.41,1.61s-4.65,2.59-6.43,4.55
						c-1.78,1.96-3.15,4.32-4.11,7.07c-0.96,2.75-1.43,5.8-1.43,9.13c0,3.66,0.49,6.88,1.46,9.67c0.97,2.79,2.33,5.12,4.08,7
						c1.75,1.88,3.85,3.3,6.31,4.26c2.46,0.96,5.17,1.43,8.14,1.43c1.45,0,2.89-0.16,4.3-0.49c1.42-0.33,2.74-0.82,3.96-1.48v-14.84
						h-12.12c-0.59,0-1.06-0.37-1.39-1.11c-0.33-0.74-0.49-2-0.49-3.78c0-0.92,0.04-1.7,0.12-2.32c0.08-0.63,0.2-1.13,0.37-1.51
						c0.17-0.38,0.36-0.66,0.59-0.84c0.23-0.18,0.49-0.27,0.79-0.27h21.62c0.53,0,1,0.09,1.41,0.27c0.41,0.18,0.77,0.45,1.09,0.82
						c0.31,0.36,0.55,0.8,0.72,1.31c0.17,0.51,0.25,1.1,0.25,1.76v25.48c0,0.99-0.17,1.85-0.52,2.6c-0.35,0.74-1.06,1.33-2.13,1.76
						c-1.07,0.43-2.4,0.87-3.98,1.34c-1.58,0.46-3.22,0.86-4.92,1.19c-1.7,0.33-3.41,0.58-5.14,0.74c-1.73,0.16-3.47,0.25-5.22,0.25
						c-5.11,0-9.69-0.73-13.73-2.2c-4.04-1.47-7.46-3.59-10.26-6.38c-2.8-2.79-4.95-6.18-6.43-10.19
						c-1.48-4.01-2.23-8.55-2.23-13.63c0-5.24,0.79-9.95,2.37-14.12c1.58-4.17,3.83-7.72,6.73-10.64c2.9-2.92,6.41-5.15,10.51-6.7
						c4.11-1.55,8.68-2.33,13.73-2.33c2.77,0,5.29,0.19,7.57,0.57c2.28,0.38,4.26,0.84,5.96,1.38c1.7,0.54,3.11,1.13,4.23,1.76
						c1.12,0.63,1.91,1.17,2.35,1.63s0.77,1.11,0.96,1.95C1519.57,1948.13,1519.67,1949.38,1519.67,1951.02z"/><path fill="#fff" d="M1545.93,2003.31c0,0.33-0.11,0.63-0.32,0.89c-0.22,0.26-0.57,0.48-1.06,0.64
						c-0.49,0.16-1.15,0.29-1.98,0.39c-0.83,0.1-1.88,0.15-3.17,0.15c-1.25,0-2.3-0.05-3.14-0.15c-0.84-0.1-1.51-0.23-2-0.39
						c-0.49-0.17-0.85-0.38-1.06-0.64c-0.22-0.26-0.32-0.56-0.32-0.89v-60.45c0-0.33,0.11-0.63,0.32-0.89
						c0.21-0.26,0.57-0.48,1.09-0.64s1.18-0.3,2-0.4c0.82-0.1,1.86-0.15,3.12-0.15c1.29,0,2.34,0.05,3.17,0.15
						c0.82,0.1,1.48,0.23,1.98,0.4c0.49,0.16,0.85,0.38,1.06,0.64c0.21,0.26,0.32,0.56,0.32,0.89V2003.31z"/><path fill="#fff" d="M1612.67,2000.54c0,0.76-0.13,1.44-0.4,2.03c-0.26,0.6-0.62,1.09-1.06,1.48
						c-0.44,0.39-0.97,0.68-1.58,0.86c-0.61,0.18-1.23,0.28-1.85,0.28h-5.54c-1.16,0-2.15-0.12-2.99-0.35
						c-0.84-0.23-1.62-0.65-2.32-1.26c-0.71-0.61-1.39-1.44-2.05-2.47c-0.66-1.04-1.4-2.38-2.23-4.03l-15.93-29.93
						c-0.92-1.78-1.86-3.7-2.82-5.76c-0.96-2.06-1.81-4.06-2.57-6.01h-0.1c0.13,2.37,0.23,4.74,0.3,7.1c0.07,2.36,0.1,4.79,0.1,7.3
						v33.49c0,0.33-0.09,0.63-0.27,0.89c-0.18,0.26-0.49,0.49-0.94,0.67c-0.44,0.18-1.05,0.32-1.8,0.42
						c-0.76,0.1-1.73,0.15-2.92,0.15c-1.15,0-2.11-0.05-2.87-0.15c-0.76-0.1-1.35-0.24-1.78-0.42c-0.43-0.18-0.73-0.41-0.89-0.67
						c-0.17-0.26-0.25-0.56-0.25-0.89v-57.53c0-1.55,0.45-2.71,1.36-3.49c0.91-0.77,2.02-1.16,3.34-1.16h6.98
						c1.25,0,2.31,0.11,3.17,0.32c0.86,0.22,1.62,0.57,2.3,1.06c0.68,0.49,1.31,1.18,1.91,2.05c0.59,0.87,1.2,1.95,1.83,3.24
						l12.47,23.4c0.73,1.42,1.44,2.81,2.15,4.18c0.71,1.37,1.39,2.74,2.05,4.1c0.66,1.37,1.3,2.71,1.93,4.03
						c0.63,1.32,1.24,2.64,1.83,3.96h0.05c-0.1-2.31-0.17-4.71-0.22-7.22c-0.05-2.5-0.07-4.9-0.07-7.17v-30.03
						c0-0.33,0.1-0.63,0.3-0.89c0.2-0.26,0.53-0.49,0.99-0.7c0.46-0.2,1.07-0.33,1.83-0.42c0.76-0.08,1.73-0.12,2.92-0.12
						c1.12,0,2.06,0.04,2.82,0.12c0.76,0.09,1.34,0.22,1.76,0.42c0.41,0.2,0.7,0.43,0.87,0.7c0.16,0.26,0.25,0.56,0.25,0.89V2000.54
						z"/><path fill="#070706" d="M1250.85,1127.23c-1.29,0-2.46-0.88-2.78-2.19c-9.04-37.53-25.23-71.82-46.84-99.2
						c-0.98-1.24-0.77-3.04,0.47-4.02c1.24-0.98,3.04-0.77,4.02,0.47c22.11,28.02,38.68,63.08,47.9,101.4
						c0.37,1.54-0.57,3.08-2.11,3.45C1251.3,1127.2,1251.08,1127.23,1250.85,1127.23z"/><path fill="#070706" d="M950.31,548.66c-23.6,7.22-45.72,20.08-62.24,38.41c-16.52,18.33-27.16,42.3-27.73,66.98
						s9.44,49.78,28.1,65.93c8.16,7.06,18.05,12.44,28.75,13.78c17.17,2.16,34.57-6.6,45.55-19.97c10.98-13.37,16.16-30.75,17.59-48
						s-0.63-34.57-2.69-51.75"/><path fill="#fc9fad" d="M1037.97,749.47l-34.07,92.55c-5.98,46.28-138.93,37.97-147.77-9.06l64.43-157.81
						C954.42,649.34,992.28,712.56,1037.97,749.47z"/><path fill="#070706" d="M1003.9,842.02c0,0-59.12-52.07-57.28-85.94c1.75-32.15,81.16,27.74,81.16,27.74L1003.9,842.02z"/><circle cx="1115.68" cy="587.13" r="54.18" fill="#070706"/><path fill="#fc9fad" d="M1155.5,680.23c8.83,90.97-38.81,140.73-102.3,146.9c-63.49,6.16-111.12-34.4-119.95-125.37
						c-8.83-90.97,33.49-190.14,96.98-196.3S1146.67,589.26,1155.5,680.23z"/><path fill="#070706" d="M956.25,618.43c0,0,202.11-4.97,200.31-78.67c-1.07-43.86-82.72-99.16-186.1-49.51
						c-90.35,43.4-46.2,180.12-46.2,180.12L956.25,618.43z"/><circle cx="937.4" cy="643.58" r="46.11" fill="#fc9fad"/><path fill="#070706" d="M932.13,667.53c-2.88,0-5.84-0.79-8.44-2.4c-6.38-3.96-9.98-12.12-8.97-20.31
						c0.85-6.83,4.68-13.55,10.78-18.92c4.07-3.58,8.21-5.65,12.3-6.14c6.91-0.86,14.15,2.84,18.42,9.35
						c3.36,5.12,4.93,11.88,4.53,19.54c-0.08,1.57-1.47,2.77-3,2.71c-1.58-0.08-2.79-1.43-2.71-3c0.23-4.49-0.2-10.93-3.6-16.11
						c-3.05-4.64-8.29-7.39-12.96-6.81c-2.92,0.35-6.02,1.95-9.21,4.76c-5.05,4.44-8.21,9.89-8.88,15.33
						c-0.73,5.92,1.86,11.98,6.31,14.74c3.22,2,8.27,2.32,11.15-0.59c1.92-1.94,2.51-5.15,1.4-7.64c-1.1-2.49-3.89-4.18-6.6-4.1
						c-1.61,0.1-2.91-1.15-2.98-2.73c-0.07-1.58,1.16-2.91,2.73-2.98c5.08-0.25,10.02,2.87,12.07,7.49
						c2.05,4.63,0.99,10.38-2.57,13.97C939.41,666.23,935.83,667.53,932.13,667.53z"/><path fill="#070706" d="M1069.54,767.17c-8.99,0-16.8-3.23-22.2-9.23c-4.45-4.95-9.2-14.01-6.56-29.04
							c0.27-1.56,1.78-2.58,3.31-2.32c1.55,0.27,2.59,1.75,2.32,3.31c-1.78,10.1,0.01,18.48,5.18,24.23
							c4.71,5.25,11.9,7.81,20.18,7.26c1.57-0.08,2.94,1.08,3.04,2.66c0.11,1.57-1.08,2.94-2.66,3.04
							C1071.27,767.14,1070.4,767.17,1069.54,767.17z"/><circle cx="1050.73" cy="680.23" r="9.86" fill="#070706"/><path fill="#070706" d="M1083.14,723.24c-1.45,0-2.69-1.1-2.84-2.57c-0.16-1.57,0.99-2.97,2.56-3.13
							c2.6-0.26,5.05-0.51,7.21-1.35c2.1-0.81,3.66-2.16,4.28-3.7c0.78-1.93,0.33-4.42-0.3-7.24l-6.56-29.47
							c-0.34-1.54,0.63-3.07,2.17-3.41c1.54-0.34,3.07,0.63,3.41,2.17l6.56,29.47c0.65,2.91,1.54,6.9,0.02,10.64
							c-1.24,3.03-3.9,5.48-7.51,6.88c-2.89,1.13-5.85,1.43-8.72,1.71C1083.33,723.23,1083.23,723.24,1083.14,723.24z"/><path fill="#070706" d="M1073.04,659.45c-0.21,5.16-9.71,1.14-19.86,1.19c-10.26-0.12-17.09,3.39-19.28,0.43
							c-2.23-2.53,2.24-11.2,14.92-13.55C1061.57,645.03,1073.58,654.3,1073.04,659.45z"/><path fill="#070706" d="M1143.63,644.52c0.08,5.16-9.63,1.68-19.76,2.3c-10.25,0.45-16.87,4.35-19.23,1.51
							c-2.37-2.4,1.61-11.3,14.14-14.36C1131.37,630.76,1143.88,639.35,1143.63,644.52z"/><circle cx="1125.12" cy="666.48" r="9.86" fill="#070706"/><g><path fill="#fc9fad" d="M918.45,1024.07c0,0,140.42,16.72,173.34,37.03c32.92,20.32,36,63.27,36,63.27H920.76L918.45,1024.07z"/><path fill="#789afe" d="M921.71,1146.14c0,0-51.44,10.56-119.84,18.06c-20.39,2.21-42.3,4.19-64.82,5.49
							c-115.39,6.86-246.47-2.93-270.17-77.85c-53.65-169.53,327.98-251.61,327.98-251.61l-73.2,149.49l196.78,13.72
							C967.85,1016.55,946.74,1135.66,921.71,1146.14z"/><path fill="#fff" d="M801.86,1164.21c-20.39,2.21-42.3,4.19-64.82,5.49c-0.08-0.88-0.11-1.75-0.11-2.63
							c0-17.99,14.56-32.54,32.5-32.54C786.47,1134.52,800.42,1147.55,801.86,1164.21z"/><path fill="#070706" d="M677.49,1175.04c-98.8,0-194.1-17.73-213.36-82.37c-0.45-1.51,0.41-3.1,1.92-3.55
							c1.51-0.46,3.1,0.41,3.56,1.92c39.84,133.69,438.37,54.96,451.23,52.37c12.94-5.86,27.01-49.42,24.36-88.31
							c-1.07-15.76-6.04-42.99-27.23-48.83l-196.53-13.69c-1.57-0.11-2.76-1.47-2.65-3.05c0.11-1.57,1.46-2.79,3.05-2.65
							l196.8,13.71c0.18,0.01,0.36,0.04,0.54,0.09c18.42,4.89,29.68,24.08,31.72,54.04c2.7,39.66-11.48,87.13-28.1,94.08
							c-0.17,0.07-0.35,0.12-0.53,0.16C913.13,1150.82,792.93,1175.04,677.49,1175.04z"/><path fill="#070706" d="M1100.77,1070.66c-0.3,0-0.6-0.04-0.9-0.15c-0.5-0.16-50.62-16.47-75.5-4.28
							c-1.41,0.69-3.13,0.11-3.82-1.31c-0.7-1.42-0.11-3.13,1.31-3.83c26.97-13.21,77.67,3.27,79.81,3.99
							c1.5,0.49,2.31,2.11,1.82,3.61C1103.09,1069.9,1101.97,1070.66,1100.77,1070.66z"/><path fill="#070706" d="M1121.77,1102.26c-0.38,0-0.76-0.07-1.13-0.23c-0.52-0.22-52.76-22.35-93.75-12.17
							c-1.54,0.39-3.08-0.55-3.46-2.08c-0.38-1.53,0.55-3.08,2.09-3.46c42.87-10.68,95.18,11.52,97.38,12.47
							c1.45,0.62,2.12,2.3,1.5,3.75C1123.93,1101.61,1122.88,1102.26,1121.77,1102.26z"/></g><g><path fill="#fff" d="M869.78,799.53l-36.45,34.93l79.2,80.03l40.06-42.2C916.93,856.02,890.78,830.33,869.78,799.53z"/></g><g><path fill="#fff" d="M952.59,872.3l56.36,44.04l17.17-70.33l-17.41-15.69C991.02,848.34,972.58,863.32,952.59,872.3z"/></g><g><path fill="#fff" d="M778.68,656.6v129.66H557.83c-71.58,0-129.63-58.05-129.63-129.66c0-35.81,14.5-68.19,37.99-91.64
							c23.45-23.48,55.87-37.99,91.64-37.99h91.23C720.67,526.97,778.68,585.02,778.68,656.6z"/><path fill="#070706" d="M778.69,789.12H557.83c-73.05,0-132.49-59.45-132.49-132.52c0-35.4,13.79-68.67,38.83-93.66
							c25-25.04,58.26-38.82,93.66-38.82h91.23c73.05,0,132.49,59.43,132.49,132.49v129.66
							C781.54,787.84,780.26,789.12,778.69,789.12z M557.83,529.83c-33.87,0-65.7,13.19-89.62,37.15
							c-23.96,23.92-37.15,55.75-37.15,89.62c0,69.92,56.87,126.81,126.77,126.81h218V656.6c0-69.9-56.87-126.77-126.77-126.77
							H557.83z"/><circle cx="684.31" cy="651.55" r="26.2" fill="#ccced6"/><circle cx="608.27" cy="651.55" r="26.2" fill="#ccced6"/><circle cx="532.23" cy="651.55" r="26.2" fill="#ccced6"/></g><g><path fill="#070706" d="M2178.66,1443.67c-4.98-2.06-7.35-7.77-5.29-12.76l26.59-64.29c12.94-31.29-1.99-67.28-33.28-80.22
						s-67.28,1.99-80.22,33.28l-26.59,64.29c-2.06,4.98-7.77,7.35-12.76,5.29s-7.35-7.77-5.29-12.76l26.59-64.29
						c17.06-41.25,64.49-60.92,105.74-43.87s60.92,64.49,43.87,105.74l-26.59,64.29
						C2189.36,1443.37,2183.65,1445.74,2178.66,1443.67z"/><path fill="#ffb839" d="M2220.84,1475.93l-59.3,143.38c-9.24,22.35-34.86,32.97-57.2,23.73l-144.03-59.57
					c-22.38-9.26-32.97-34.86-23.73-57.2l59.3-143.38c9.24-22.34,34.82-32.99,57.2-23.73l144.03,59.57
					C2219.46,1427.97,2230.08,1453.59,2220.84,1475.93z"/><path fill="#070706" d="M2121.01,1649.23c-5.93,0-11.95-1.14-17.77-3.54l-144.03-59.57c-11.53-4.77-20.5-13.73-25.27-25.24
					c-4.77-11.5-4.77-24.18-0.01-35.69l59.3-143.39c4.76-11.51,13.72-20.49,25.22-25.26c11.5-4.79,24.19-4.78,35.72-0.02
					l144.03,59.57c23.77,9.83,35.11,37.17,25.28,60.94l-2.64-1.09l2.64,1.09l-59.3,143.39
					C2156.76,1638.37,2139.34,1649.23,2121.01,1649.23z M2036.33,1358.67c-5.31,0-10.63,1.05-15.68,3.14
					c-10.09,4.19-17.95,12.06-22.13,22.17l-59.3,143.39c-4.18,10.1-4.18,21.23,0.01,31.32c4.19,10.1,12.06,17.96,22.18,22.15
					l144.03,59.57c20.85,8.62,44.84-1.32,53.47-22.18l59.3-143.39l0,0c8.62-20.85-1.33-44.84-22.18-53.47l-144.03-59.57
					C2046.93,1359.71,2041.63,1358.67,2036.33,1358.67z"/><path fill="#070706" d="M2039.39,1525.64l28.06-29.02c-4.66-6.32-5.95-14.85-2.74-22.61c4.91-11.88,18.52-17.49,30.4-12.58
					c11.88,4.91,17.54,18.5,12.63,30.38c-3.21,7.76-10.15,12.88-17.91,14.07l-0.63,40.36L2039.39,1525.64z"/></g><g><path fill="#fff" d="M778.68,656.6v129.66H557.83c-71.58,0-129.63-58.05-129.63-129.66c0-35.81,14.5-68.19,37.99-91.64
					c23.45-23.48,55.87-37.99,91.64-37.99h91.23C720.67,526.97,778.68,585.02,778.68,656.6z"/><path fill="#070706" d="M778.69,789.12H557.83c-73.05,0-132.49-59.45-132.49-132.52c0-35.4,13.79-68.67,38.83-93.66
					c25-25.04,58.26-38.82,93.66-38.82h91.23c73.05,0,132.49,59.43,132.49,132.49v129.66C781.54,787.84,780.26,789.12,778.69,789.12
					z M557.83,529.83c-33.87,0-65.7,13.19-89.62,37.15c-23.96,23.92-37.15,55.75-37.15,89.62c0,69.92,56.87,126.81,126.77,126.81
					h218V656.6c0-69.9-56.87-126.77-126.77-126.77H557.83z"/><circle cx="684.31" cy="651.55" r="26.2" fill="#ccced6"/><circle cx="608.27" cy="651.55" r="26.2" fill="#ccced6"/><circle cx="532.23" cy="651.55" r="26.2" fill="#ccced6"/></g><g><circle cx="654.56" cy="1083.42" r="20.09" fill="#fff"/></g><g><circle cx="630.64" cy="929.15" r="12.81" fill="#fff"/></g><g><circle cx="1135.47" cy="966" r="20.21" fill="#fff"/></g><g><path fill="#fff" d="M1395.59,918.54c0,23.13-18.75,41.84-41.84,41.84c-4.76,0-9.34-0.8-13.6-2.29l50.53-59.22
			C1393.8,904.74,1395.59,911.41,1395.59,918.54z"/></g><g><circle cx="1505.15" cy="1018.85" r="21.78" fill="#fff"/></g><g><circle cx="1366.4" cy="1075.19" r="29.19" fill="#fff"/></g><g><circle cx="957.8" cy="979.29" r="25.71" fill="#fff"/></g></svg>